<svg xmlns="http://www.w3.org/2000/svg" viewBox="0 0 802.21 659.51"><defs><style>.cls-1{fill:#fefefe;}.cls-2{fill:#af2a1b;}.cls-3{fill:#ee9f97;}.cls-4{fill:#e35d4e;}.cls-5{fill:#dcdcdc;}.cls-6{fill:#6e332d;}.cls-7{fill:#69352f;}.cls-8{fill:#aaa3a2;}.cls-9{fill:#a38481;}.cls-10{fill:#834f49;}.cls-11{fill:#7e3e37;}.cls-12{fill:#80504b;}.cls-13{fill:#987b78;}.cls-14{fill:#955a53;}.cls-15{fill:#844942;}.cls-16{fill:#fae8e6;}.cls-17{fill:#8a5f5b;}.cls-18{fill:#8e534d;}.cls-19{fill:#ab9997;}.cls-20{fill:#905852;}.cls-21{fill:#9c6862;}.cls-22{fill:#684d49;}.cls-23{fill:#9c706b;}.cls-24{fill:#a36c66;}.cls-25{fill:#956b67;}.cls-26{fill:#944e46;}.cls-27{fill:#91635e;}.cls-28{fill:#564f56;}.cls-29{fill:#a5716b;}.cls-30{fill:#927a78;}.cls-31{fill:#8a5f5a;}.cls-32{fill:#8e7977;}.cls-33{fill:#855e5a;}.cls-34{fill:#90433a;}.cls-35{fill:#90645f;}.cls-36{fill:#b4aead;}.cls-37{fill:#9a6d67;}.cls-38{fill:#906a66;}.cls-39{fill:#a29b9a;}.cls-40{fill:#7d6765;}.cls-41{fill:#6a5e58;}.cls-42{fill:#9b908f;}.cls-43{fill:#9b9c93;}.cls-44{fill:#89635f;}.cls-45{fill:#4f546c;}.cls-46{fill:#5d4d47;}.cls-47{fill:#95918e;}.cls-48{fill:#997773;}.cls-49{fill:#977f7c;}.cls-50{fill:#9a706c;}.cls-51{fill:#423c3f;}.cls-52{fill:#959e9f;}.cls-53{fill:#a75c54;}.cls-54{fill:#97625c;}.cls-55{fill:#685355;}.cls-56{fill:#946c67;}.cls-57{fill:#adaaae;}.cls-58{fill:#865a55;}.cls-59{fill:#acaaad;}.cls-60{fill:#926762;}.cls-61{fill:#9e9898;}.cls-62{fill:#4a4546;}.cls-63{fill:#78687b;}.cls-64{fill:#ada6a5;}.cls-65{fill:#8c8a80;}.cls-66{fill:#32413a;}.cls-67{fill:#cf9791;}.cls-68{fill:#9e726d;}.cls-69{fill:#be6359;}.cls-70{fill:#95706c;}.cls-71{fill:#846f7f;}.cls-72{fill:#91615c;}.cls-73{fill:#919a9c;}.cls-74{fill:#786d6c;}.cls-75{fill:#f2f2f2;}.cls-76{fill:#86635f;}.cls-77{fill:#a09a99;}.cls-78{fill:#959f9f;}.cls-79{fill:#9c6660;}.cls-80{fill:#886e6b;}.cls-81{fill:#9b9fa2;}.cls-82{fill:#916e6a;}.cls-83{fill:#97989d;}.cls-84{fill:#a8939b;}.cls-85{fill:#93959b;}.cls-86{fill:#8a8e97;}.cls-87{fill:#293745;}.cls-88{fill:#6d6d72;}.cls-89{fill:#8c8089;}.cls-90{fill:#32101c;}.cls-91{fill:#58585e;}.cls-92{fill:#856a67;}.cls-93{fill:#7f6360;}.cls-94{fill:#494d41;}.cls-95{fill:#808b6d;}.cls-96{fill:#bcb8b8;}.cls-97{fill:#957f7d;}.cls-98{fill:#7b7878;}.cls-99{fill:#918d8c;}.cls-100{fill:#878281;}.cls-101{fill:#bcb2c0;}.cls-102{fill:#f9fef8;}.cls-103{fill:#76514d;}.cls-104{fill:#623a36;}.cls-105{fill:#80605d;}.cls-106{fill:#671910;}.cls-107{fill:#661910;}.cls-108{fill:#6f4642;}.cls-109{fill:#a06f6a;}.cls-110{fill:#f9e3e0;}.cls-111{fill:#8a5d58;}.cls-112{fill:#e2e1e0;}.cls-113{fill:#ed9f97;}.cls-114{fill:#f8e2df;}.cls-115{fill:#ccbab7;}.cls-116{fill:#f6e0de;}.cls-117{fill:#ec9e96;}.cls-118{fill:#f8e3e0;}.cls-119{fill:#544f4e;}.cls-120{fill:#dedede;}.cls-121{fill:#cbc7c6;}.cls-122{fill:#f0b2ac;}.cls-123{fill:#e87d71;}.cls-124{fill:#bf5549;}.cls-125{fill:#e9efec;}.cls-126{fill:#f0f3e2;}.cls-127{fill:#c7c7bb;}.cls-128{fill:#f3dedb;}.cls-129{fill:#f1dcd9;}.cls-130{fill:#975851;}.cls-131{fill:#dde1e5;}.cls-132{fill:#dfdfdf;}.cls-133{fill:#7d7a82;}.cls-134{fill:#505055;}.cls-135{fill:#706f72;}.cls-136{fill:#7f7d82;}.cls-137{fill:#a19da3;}.cls-138{fill:#46454c;}.cls-139{fill:#5a575c;}.cls-140{fill:#3f3e42;}.cls-141{fill:#534b51;}.cls-142{fill:#51454c;}.cls-143{fill:#605c5e;}.cls-144{fill:#333747;}.cls-145{fill:#40373c;}.cls-146{fill:#7c7c84;}.cls-147{fill:#3b3b44;}.cls-148{fill:#34373f;}.cls-149{fill:#79787f;}.cls-150{fill:#43454f;}.cls-151{fill:#434145;}.cls-152{fill:#43434d;}.cls-153{fill:#4d4955;}.cls-154{fill:#5f5c65;}.cls-155{fill:#3a3d42;}.cls-156{fill:#4f4d54;}.cls-157{fill:#45434a;}.cls-158{fill:#43424c;}.cls-159{fill:#51505c;}.cls-160{fill:#464046;}.cls-161{fill:#878387;}.cls-162{fill:#49494f;}.cls-163{fill:#515159;}.cls-164{fill:#505261;}.cls-165{fill:#504950;}.cls-166{fill:#f1f7f6;}.cls-167{fill:#72727b;}.cls-168{fill:#525362;}.cls-169{fill:#70717b;}.cls-170{fill:#676b77;}.cls-171{fill:#212548;}.cls-172{fill:#5d5c72;}.cls-173{fill:#65636a;}.cls-174{fill:#46454f;}.cls-175{fill:#53494c;}.cls-176{fill:#6a595d;}.cls-177{fill:#4a4959;}.cls-178{fill:#71726b;}.cls-179{fill:#949499;}.cls-180{fill:#7b7d8d;}.cls-181{fill:#5c5f6e;}.cls-182{fill:#495052;}.cls-183{fill:#615e61;}.cls-184{fill:#5a5e63;}.cls-185{fill:#d1d5d1;}.cls-186{fill:#434d52;}.cls-187{fill:#676467;}.cls-188{fill:#d5e1e4;}.cls-189{fill:#ced1d0;}.cls-190{fill:#e1eae9;}.cls-191{fill:#d6d7d4;}.cls-192{fill:#eaf3f4;}.cls-193{fill:#abb1b0;}.cls-194{fill:#e8f2f8;}.cls-195{fill:#f3f4ed;}.cls-196{fill:#e3e3da;}.cls-197{fill:#dddcd6;}.cls-198{fill:#d5dcde;}.cls-199{fill:#f2f2ed;}</style></defs><g id="Layer_2" data-name="Layer 2"><g id="Layer_1-2" data-name="Layer 1"><path class="cls-1" d="M401,.09Q599.64.09,798.32,0c3.3,0,3.89.74,3.89,3.91q-.13,325.8,0,651.62c0,3-.34,4-3.82,4q-397.33-.16-794.68,0c-3.13,0-3.67-.66-3.67-3.67q.14-326,0-652.07C0,.14,1.22,0,4.09,0Q202.53.13,401,.09Z"/><path class="cls-2" d="M214.16,282.39q18.12,3.21,36.24,6.41c18.76,3.28,37.72,5,56.63,7.11a16,16,0,0,1,2.15.52c1.2,1.42,2.84.76,4.19.66,3.28-.26,4.47,1.31,4.16,4.21-1.18,11.07-1.78,22.2-3,33.25-.39,3.57-.19,7.14-.66,10.67-.74,5.53-2.28,6.38-7.76,5.85-14-1.37-27.94-3.28-41.92-4.88-4.92-.56-9.73-1.78-14.68-2.08-1.2-.07-2.49-.53-3.21.82-2.11,4-6,3.05-9.38,3.32a32.15,32.15,0,0,1-3.57-.29c-6.21-.22-9.2-2.49-10.85-8.44-.52-1.86-1.15-3.7-1.56-5.58s-1-3.24-3.53-2.87-2.93-1.46-2.66-3.49a4.54,4.54,0,0,1,.43-1.27c2.55-5.73,2.73-11-1.66-16.27a31,31,0,0,1-5.13-10.24c-1.74-5.31-.37-10,.64-14.86C209.61,282.16,211.53,281.42,214.16,282.39Z"/><path class="cls-3" d="M249.67,530a.38.38,0,0,1,0,.57c-3,1.68-5.94.16-8.59-.68-2.24-.72-1.68-3.62-1.39-5.6,1-6.74,1.9-13.5,2.92-20.25,2.1-13.91,3.79-27.88,5.91-41.8.4-2.63.6-5.3,2-7.68,4.73-2.37,9.46-.22,14.08.29,13.65,1.52,27.28,3.18,41,4.07a22.67,22.67,0,0,1,8.25,1.8c1.44,1.68,1.15,3.63.92,5.57-1.54,7.88-1.76,15.91-2.31,23.87-.78,11.39-2,22.74-2.88,34.11-.24,3-2.05,4.08-4.82,4.08-4.95,0-9.83-.83-14.75-1.18-6.26-.45-12.48-1.51-18.77-1.47-3.37,0-6.6,1.56-10.09,1a53.81,53.81,0,0,0-8-1C249.76,525.74,248.66,526.89,249.67,530Z"/><path class="cls-4" d="M193.38,513.8c-5.56-2.39-10.2-6.31-15.48-9.18-.77-.42-1.94-1.21-.76-2.45,2.58-1.68,4.66-3.51,3.16-7.08a3.19,3.19,0,0,1,.56-3.38c3.14-2.77,2.13-8.18,6.71-10,1.25-.51.52-1.81.05-2.73-3.29-6.4-1-13.07-.87-19.62,0-2,1.51-4,3.9-3.11,3.66,1.34,4-1.09,4.68-3.38.76-2.49.33-5.36,2.43-7.43,5.75-.55,11.21,1.24,16.76,2.1,10.6,1.65,21.16,3.53,31.75,5.24a5,5,0,0,1,2.87,1.11c1.64,3.26-.07,6.48-.51,9.56q-4.5,31.68-8.82,63.41c-.33,2.4-1.54,2.84-3.67,2.64-7.1-.67-14.09-2.05-21.13-3.14a20.53,20.53,0,0,1-5.82-3.15A97.85,97.85,0,0,0,193.38,513.8Z"/><path class="cls-5" d="M398.3,226.12H221.72c-5.6,0-6.17-.45-6.18-6.06q0-91.77,0-183.54c0-5.61.58-6.05,6.19-6.05H574.89c6.07,0,6.41.23,6.41,6.27q0,91.56,0,183.1c0,6-.34,6.28-6.41,6.28Z"/><path class="cls-2" d="M202.3,279.66l6.82,1.59c1.4,3.77-.84,7.13-1.29,10.69a20.59,20.59,0,0,0,3.09,13.22c2.22,3.78,3.53,8.18,7.13,11.13.75.61.25,1.82-.28,2.45-2.23,2.65-.8,6.34-2.92,9.17-.94,1.25-.22,3.92,2.56,3s3.2.45,3.62,2.7c.86,4.58,3.22,8.59,5.4,12.65.29.54.66,1.14,1.28,1.13,4-.05,8.19,1.29,11.81.4,4.15-1,4.38,1.07,4.92,3.53s-.23,4.69-.61,7c-1,6.29-2,12.57-3,18.88-.27,1.88-.53,3.83-1.78,5.43-2.37,1.31-4.76.2-7-.16-15.4-2.44-30.66-5.57-45.89-8.85-4.57-1-5.66-2.48-4.62-6.89,1.68-7.08,2.63-14.35,5.37-21.17.34-.82,1-1.78.43-2.54-2.77-3.73-.06-6,2.12-8.47a18.27,18.27,0,0,0,4-6.42c1.35-2.67-.16-5.13-.59-7.66,0-4.16.45-8.3.69-12.44a230.32,230.32,0,0,1,5.68-25C200.21,281.91,199.59,279.29,202.3,279.66Z"/><path class="cls-4" d="M562.13,520.16c-.73,4.94-2.37,9.72-2.55,14.76-.74,1.47-2.19,1.33-3.5,1.51-.88.12-2.19.05-2.3,1-.45,4-3.11,2.65-5.55,2.69a160,160,0,0,0-19.2,1.34c-9,1.25-11.43-.47-13-9.45-.62-3.53-1.35-6.91-.51-10.52.44-1.93-.72-3.73-1.52-5.49-4.08-9-5.66-18.73-8.57-28.07a3.3,3.3,0,0,1,.26-3c4.84-2.44,10.21-2,15.36-2.73a24.57,24.57,0,0,0,4.44-.52c2.29-.29,4.67-.53,5.06,2.75a1.72,1.72,0,0,0,1,1.42c3.88,1.65,5.81,5.65,9,7.77,4.82,3.16,8.65,7.44,12.36,11.4C556.81,509.15,561.13,513.9,562.13,520.16Z"/><path class="cls-4" d="M524.57,552.64l-2.2,1.38c-3.09,1-5.46.65-8.35-1.63-5.72-4.51-12.49-6.13-19.74-3.35-2.42-.44-6.31-4.45-6.16-6.47s1.8-2.79,3.45-2.91c7.3-.52,14.54-1.66,21.85-2,1.05,0,2.4-.22,3.06.44,5.51,5.45,12,2.29,18.17,2.23,4.48,0,9-.39,13.42-.85a3.23,3.23,0,0,1,2.53.59c1.4,1.17,3,1.14,2.58-.81-.92-4.42,1.66-3.41,4-3.07a8.29,8.29,0,0,1,1.31.3c1.43,1.06,1.6,2.71,2.12,4.25a55.65,55.65,0,0,0,10.25,18.59c1.93,2.24,3.94,4.36,3.8,7.7-.1,2.53,1.94,4.25,3.15,6.25,3.7,6.07,7.49,12,7.58,19.55.06,4.39-1.32,8.39-1.74,12.6-1.11,1.77-3.06,2.33-4.79,3.1-2.38,1.07-4,.83-5-2.21-.94-2.76-2.14-6.07-6.34-5.73-1,.08-1.62-.7-2.07-1.47a55.79,55.79,0,0,0-11.21-13.79l0,0c-1.41-2-3.42-3.86-1.4-6.68.59-.83.1-1.93-1.14-1.6-3.12.82-2.74-1.37-2.77-3.06,0-2.66.37-5.31.5-8a7,7,0,0,0-3.65-6.64,60,60,0,0,1-8.68-6.85C531.13,547,530.24,547.07,524.57,552.64Z"/><path class="cls-2" d="M444.82,563.86a3.6,3.6,0,0,1-2.65-1.08c-1.91-1.48-3.95-3-6.24.11-1.79,2.43-4.5,1.21-6.86.43-2.48-2-5.37-2.16-8.38-1.89-4.82.44-4.7.29-4.29-4.28a45.12,45.12,0,0,1,2-10.89c.84-2.41-.59-4.28-1.46-6.31-2.27-5.27-5.12-10.29-4.53-16.45.51-5.3.51-6.06,5.64-6.82,7.9-1.16,15.89-.75,23.81-.28,4.73.27,7.09,9.52,3.78,14.14a20.19,20.19,0,0,0-3.87,8.4c-.49,2.89.27,4.24,3.41,4,3.88-.25,7.78.25,11.66-.6,3.27-.72,5.66.21,5.75,4.15.06,2.67,3.13,4.47,2.3,7.44l-.86.82c-2.45,3.07.26,2.37,1.72,2.13,1.21-.19,2.44-.82,2.91.81.38,1.31-1.19,1.42-1.7,2.12-1.82,2.49-5.06,3.48-6.49,6.28-.28.54-.77,1.44-1,1.24-2.91-2.13-4.8-.29-7.22,1.17-1.35.81-3.45-.58-4.46-2.17A4.84,4.84,0,0,0,444.82,563.86Z"/><path class="cls-6" d="M464.91,554c-1.24-3-4.07-5.29-3.63-9.19.24-2.12-2.32-1.63-3.53-1.32-4.6,1.16-9.28.31-13.86.84-3.32.39-3.93-1.53-3.68-3.73a18,18,0,0,1,4-10.07c2.53-2.92,2.31-10-.38-12.58a2.51,2.51,0,0,0-1.64-.51c-8.66.33-17.36-.72-26,.75-1.94.33-2.33,1.14-2.54,2.87-.78,6.52,1,12.45,4.2,18,1.92,3.32,2.87,6.5,1,10.07-1.74,3.33-.58,7.12-1.85,10.66-.79,2.18,2.07,1.38,3.21,1.15,3.45-.7,6.42-.24,8.84,2.45-5-2.48-10.17-1.31-15.31-.46a1.71,1.71,0,0,1-.41-1.32c1.76-4.91,1.37-10.27,3.18-15.19a5.52,5.52,0,0,0-.57-4.74,39,39,0,0,1-5.21-24.74c.35-3.47-1.13-5-4.37-6.54a24.42,24.42,0,0,0-18.61-1.53c-1.82.56-4.12.77-3.65-2.49,6.1-2,12.18-4.29,18.69-1.77,2.36.91,2.5-.73,2.8-2.19.95-4.71.39-9.49.57-14.24.08-2.19-.42-4.5,1.06-6.47,3,.27,2.22,2.73,2.28,4.38.21,5.64.09,11.29.07,16.94,0,2.31.15,4.48,2.59,5.7a2.1,2.1,0,0,1,1.2,1.28c1,5.7,5.33,5.22,9.64,5.34,5.57.14,11-1,16.58-1,1.8,0,3.58-.58,3-2.83-1.28-4.7.83-8.73,3.11-12.18,4.11-6.22,5.63-13.35,8.38-20,.29-.71.42-2-.1-2-5.13.41-1.57-7.17-6.53-6.84-11.21.73-22.44.73-33.65,1.4-2.09.12-4.16.6-6.2-.3a2.1,2.1,0,0,1-1.15-2.44,5.68,5.68,0,0,1,4.24-1.1c11.11.28,22.15-1.54,33.26-.95a30.29,30.29,0,0,0,4.94-.25c5.15-.58,6.17.17,7.82,5.37.31-4.42,6.36-7,3.65-12.38a1.82,1.82,0,0,1,.71-1.15,21.61,21.61,0,0,1,6.05-2.68,7.18,7.18,0,0,0,5.34-6.38c.52-4,2-7.67,3.51-11.42,2-4.93.18-10.21.06-15.34-.21-8.88-2.06-17.67-1.86-26.6a2.64,2.64,0,0,1,1.23-1.55c2.93-.06,5.42-1.6,8.14-2.39a10.85,10.85,0,0,1,2.13-.23c9.7-1.42,19.51-1.8,29.23-3.06a2.84,2.84,0,0,1,2.49,1.54l0,0a.86.86,0,0,1-.14,1.21c-2.76,1.31-5.83,1.14-8.73,1.74-2.54.53-3.6,1.82-3.26,4.36,1,7.93,1.91,15.87,2.66,23.83.47,5.06,5.11,6.53,8.46,7.44,5.63,1.54,11.8.52,17.69,1.39a1.73,1.73,0,0,1,.63,2.91c-3.26,3.4-.56,5.47,1.53,7.71.81.86,1.81,1.52,2.65,2.34,1.06,1,2.24,2.1.89,3.72a2.91,2.91,0,0,1-2.59.1c-3.51-3-6.92-6.14-8.24-10.81-.71-2.52-2.64-3.2-4.91-2.75a16.43,16.43,0,0,1-12.75-2.81c-.72-.48-1.27-1-2.17.11-3.46,4.33-8.24,7.47-10.81,12.7-1.7,3.47-6.23,2-9.22,3.76a12.09,12.09,0,0,1-8.65,1.56c-1.32-.29-3.21.1-3.32,1.57-.23,3.05-3,4.28-4.07,6.62-.91,2.06-2.18,3.1-4.43,3-1.37-.09-2.42.28-2.35,1.91.06,1.41.39,2.68,2.07,3a5.21,5.21,0,0,0,3.54-.13c6-3.51,12.74-3.24,19.18-3.71,10.88-.81,21.73-2.12,32.65-2.49.92.36,1.78.77,2,1.88-3.37,2.87-7.62,2.22-11.49,2.48-11.07.75-22.19,1.37-33.08,3.17-5.17.85-10.4,2.26-15.65,3.23a4.14,4.14,0,0,0-3.08,2.34c-1.84,3.59-3.17,7.38-4.74,11.08-1.24,2.92.61,3.82,3.18,3.52,7.45-.84,14.94-1.1,22.39-1.86,8.64-.88,17.3-1.58,25.94-2.42,4.22-.4,7.69-1.4,10.33-5.14,3-4.22,7.43-6.8,12.44-8.28a1.2,1.2,0,0,1,1.12.66c.13,3.34-2.72,4.4-4.91,5.46a17.55,17.55,0,0,0-6.55,5.59c-1.12,1,.84,1.85.23,2.85l-15.87,2a4.85,4.85,0,0,1-2.1,1.11c-6.17,1.36-12.49,1.24-18.74,1.87-3.44.34-5.14,1.6-5.14,5.22,0,10.83-1.37,21.62-.9,32.47a149.5,149.5,0,0,0,2.6,22,4.22,4.22,0,0,1,.55,2.19c-4.06,1.53-8.43-.13-12.51,1.16-.17-2.37,1.81-2.74,3.26-2.71,4.07.07,3.91-2.46,3.42-5.08-2-10.9-1.7-21.9-1.72-32.9,0-5.65,1.32-11.22.94-16.9-.3-4.3-.84-4.95-5.23-4.24-3.43.55-6.88.38-10.31.57s-5.77,1.46-6.91,4.73a7.47,7.47,0,0,1-1.18,2.4c-6.43,7.44-5.24,16-3.51,24.54.79,3.92.75,7.32-1.6,10.59a11.57,11.57,0,0,0-1.14,1.92c-1,2.13-2.84,4.4-1.29,6.64,1.41,2,3.89.53,5.89.38,2.4-.19,4.81,0,7.2-.2,4.14-.28,7.08.78,7.35,5.56.17,3,3,3.39,4.9,4.68C468.25,552.41,467.11,554.14,464.91,554Z"/><path class="cls-4" d="M630.9,302.47c-1.64-5.72,2-10.28,3.51-15.3.38-1.31,2-1.51,2.78-.07.9,1.72,1.86,1.64,3.17.66,7-2.3,7.94-1.84,10.28,5.14.75,2.25,1.54,4.49,2.23,6.76.64,5.71,5,8.81,9.08,11.77,3.27,2.36,3.78,3.59.89,6.37-3.58,3.44-6.63,7.68-12.25,8.08a1.63,1.63,0,0,0-1.59,1.8c0,5.49-4.31,7.27-8.16,9.46l-2.41,6c-2.25,2.82-3.62,2.91-4.89-.09-2.89-6.82-4.54-14-6.83-21.07-.52-1.58.54-2.7,1.16-4,1.61-3.47,4.22-6.74,2.69-11.09A6,6,0,0,1,630.9,302.47Z"/><path class="cls-4" d="M563.37,516.06l0,.1c-1.41,1.78-2.63.36-3.1-.6-1.09-2.18-3.14-3.67-4.2-5.7-3.37-6.46-9.25-10.39-14.56-14.9a12.52,12.52,0,0,1-3.34-3.51,8.11,8.11,0,0,0-4.52-4c-3.7-1.46-4.08-4.34-.86-6.65,2.77-2,5.79-4.1,9.24-4.32,5.47-.35,11.2-2.76,16.35,1.64,1.45,1.24,3.73.49,5.66.15,5.57-1,15.69,3.61,18.71,8.3,1,1.61.41,2.77-.48,4l.06,0c-1.51,2-2.82,4.15-2.79,6.81a4.15,4.15,0,0,1-1.47,3.09C573,505.51,568.22,510.83,563.37,516.06Z"/><path class="cls-7" d="M238.81,382.4c1.44-8.75,2.91-17.5,4.27-26.27a19.41,19.41,0,0,0,.18-5.74c-.23-1.52-.72-2.41-3.3-1.92a26.51,26.51,0,0,1-12.9-.51c-2.28-.78-3.62-4.76-5-7.48a21.83,21.83,0,0,1-1.74-6c-.38-2,0-4.16-3.49-2.61-2,.89-4.28-2.86-2.63-5,2.13-2.78.35-6.63,3.15-9a1,1,0,0,0-.21-1.54c-4.37-2.84-5.77-8-7.91-12-2.4-4.53-3.74-10.47-1.57-16.17a45.14,45.14,0,0,0,1.49-6.91c1.72.16,3.49.14,5,1.14-2.77-.21-3.47,1.15-4.32,3.75a22.93,22.93,0,0,0,.52,16.33c1.86,4.3,4.2,8.76,7.67,12.28.78.79,2.46,1.27,1.29,2.7-2.38,2.94-1.24,7-3.4,10a2,2,0,0,0,0,2.5c.78.94,1.65.14,2.38-.24,2.81-1.45,3,.18,3.64,2.42,1,3.87,1.6,7.79,4.07,11.42,1.76,2.58,3.22,3.18,5.93,3.27,3.82.13,7.62-.09,11.42-.15,1.61,0,1.19-1,1.32-1.56.67-2.63,2-2.74,4.61-2.35,15.17,2.29,30.37,4.37,45.65,5.8,4.3.4,8.57,1,12.85,1.65,2.62.39,4-.19,4.61-3.17.93-4.84.5-9.72,1.19-14.59,1.44-10.08,1.92-20.3,2.84-30.45.25-2.72,0-4.78-3.61-4.39-1.26.13-2.76.37-3.59-1.14l71.17,3.88a6.24,6.24,0,0,1,.89,1.32c1.36,12.59,3.28,25.11,5.3,37.62.36,2.23.54,4.6-2.68,5.08a62,62,0,0,0-13.32-1.43c-17-.25-34-1.93-51-2.09-2.67,0-3.77.46-3.82,3.26s-.64,5.28-.7,8c0,1.74.09,3.62-1.71,4.78-.44,0-1.1.17-1.25-.21-2.08-5.15-6.9-4.47-11-4.86-15.5-1.46-30.93-3.41-46.32-5.69-6.6-1-8.27.08-8.92,6.92-.79,8.29-2.3,16.46-3.6,24.67-.27,1.73-.36,3.59-2,4.82A1.3,1.3,0,0,1,238.81,382.4Z"/><path class="cls-4" d="M458.78,321.54c1.07-1.6,2.13-3.23,4.51-2.52,1.31.4.58,1,.1,1.48A16.53,16.53,0,0,1,461.6,323c-.55.69-1.07,1.53-.57,2.42.61,1.08,1.61.35,2.42.3a6.3,6.3,0,0,1,5.25,1.7c4.56,4.32,7.75,4.34,12.59.44l0,0c2.76-2,6.33-.88,9.27-2.31a1.56,1.56,0,0,1,1.85.88c1.38,2.45,3.45,2.28,5.69,1.46,5.13-1.92,3.52,2.86,4.13,4.62.93,2.7-1.73,1.87-3.18,2-6.35.67-12.84.33-18.36,4.77-1.47,1.19-4.28.91-5.77,2.83-1,1.08-1.5,2.63-2.74,3.49-1.53,1.05-3.38,1.53-3.7-.95-.55-4.33-3.71-5.48-7.13-6.12-4-.74-7.81-2-11.74-2.86-2-.46-4.4-.91-4.66-3.47s2.35-3.32,4.07-4C452.88,326.83,455.84,324.25,458.78,321.54Z"/><path class="cls-8" d="M176.78,501.35l-24.05-2.71c-2.93-.33-3.54-2-3.17-4.71.91-6.53-3.19-10.15-7.49-14.44-3-3-7.39-4.79-9.22-8.31-2.32-4.46-6.3-5.15-10.09-6.43-3.23-1.1-5.07-2.46-3.66-6,1.49-3.81-.63-7.11-1.74-10.43a124.49,124.49,0,0,0-5.27-12.19,5.68,5.68,0,0,1,.87-6.15c1-1.27,1.31-2.51-.16-3.41-5-3.07-3-7.61-2.7-11.83.05-.74,1.53-1.34.78-1.71-5.81-2.8-2.74-9.45-6.16-13.47-3-3.51-1.79-8-.45-12.13a10.35,10.35,0,0,0-1.24-9c-1.74-2.78-1.63-5.1.78-7.56,4.36-4.46,5.15-10.35,6-16.16a1,1,0,0,1,1.28.09c2.54,6-.29,11.1-3.44,15.76-1.88,2.78-2.79,5-1.23,8.12a11.77,11.77,0,0,1,.73,9.16c-2.45,7.15,2,13,3.36,19.37.14.63.62.87,1.26,1.06,3.94,1.14,5,3,3.09,6.21-2.48,4.05-3.17,7.54.86,11.07,1.43,1.25,1.35,3.32.45,5-1.41,2.65-.89,5.11.15,7.71,1.83,4.57,3.91,9,5.6,13.65.63,1.71,1.36,3.5.74,5.21-1.3,3.56.66,4.79,3.52,5.78a23.28,23.28,0,0,1,9.11,6.27c3.16,3.26,7.14,5.7,10.32,9.08,3.77,4,7.14,8.09,7.08,13.93,0,2.8,1.41,4,4.08,4.26,5.23.47,10.42,1.28,15.64,1.88,1.64.18,3.33.2,4.45,1.72A1.18,1.18,0,0,1,176.78,501.35Z"/><path class="cls-9" d="M111.11,355l-1.3-.26c-1.51-6.8.25-13,4.09-18.51,6.33-9.07,9.19-19.6,13.25-29.61,3.28-8.08,3.63-16.75,3.8-25.4.05-2.68-1.53-5.12-.63-7.9,1.13-3.5,2.38-4,5-1.42,3.51,3.49,8.51,3.84,12.63,6,.49.73.9,1.54,2,1.73-.67-.57-1.56-.92-2-1.71-.07-1.09,0-2.22,1.26-2.56,3.32-.93,3.43-2.73,1.65-5.22a2.19,2.19,0,0,1-.22-2.86c.67-.87,1.47-.71,2.4-.46q24.66,6.45,49.34,12.84c-1.82.63-.71,2.95-2.2,3.78a8.45,8.45,0,0,0-4.59-3.28c-13.07-3.28-26.09-6.75-39.2-9.88a2.18,2.18,0,0,0-2,.12c1.2,6.45-1.06,12.34-3.81,18.14-.46,1-1,2-2.2,1.91a2.15,2.15,0,0,1-2.12-2.44c1.75-8.18-4.14-10.07-9.9-12.16-.7-.25-1.27-.79-2-1a8.79,8.79,0,0,0-1.27,0c1.79,8-.61,16.07.72,24.12-.13,1.42-1.47,2.07-2.08,3.19-3,9.22-6.74,18.11-10.44,27-.8,1.93-1.38,4.05-2.84,5.55-4.73,4.83-5.55,11-6.36,17.22a8.81,8.81,0,0,1-.28,1.91A2.74,2.74,0,0,1,111.11,355Z"/><path class="cls-10" d="M428.18,329.74c2.2.53,4-.56,5.81-1.5,3-1.58,5.71-2.88,6,2.29l-.5.45c-2.33.27-4.6-.51-7.06.35-3.49,1.21-6.55,2.11-5.47,6.82.31,1.35-.74,2.57-1.82,3.42-1.83,1.45-1.51,3.45-2,5.4-2.43,9.14,4.38,12.84,9.89,16.84,4.82,3.51,6.08,8.37,7.12,13.38,1.18,5.69,3.53,8.33,9.29,7.48,6.12-.9,12.31-.15,18.39-1.29a4,4,0,0,1,3.8.83,1.78,1.78,0,0,1-.8,2.39,167.41,167.41,0,0,1-22.36,1.65c3.68,6.93,3,9.41-3.61,14.2-1,.72-2.07,1.27-1.77,2.76,1.06,5.41-2.5,8.75-5.63,12.29a4.19,4.19,0,0,1-2.31-4c2.24-2.82,4.48-5.48,3.24-9.63-.66-2.19,1.48-3.28,3.24-4.26,5.61-3.1,6-5.66,1.74-10.44a17.87,17.87,0,0,0-3.71-3.23,7.24,7.24,0,0,1-3.72-5.81c-.2-3.78-2.31-4.58-5.68-4.58-8,0-15.89.14-23.82.9a23.74,23.74,0,0,1-7.18-.33c-1.78-.73-3.95-.16-5.49-1.66.75-3,3.29-2.1,5.15-2.13,9.42-.14,18.85,0,28.28-.07a19.48,19.48,0,0,0,4-.17c2.54-.53,3.1-1.91,1-3.59-3-2.43-5.58-5.4-9-7.33a8.28,8.28,0,0,1-4.45-8.54c.19-2.23-.73-4.75-.21-6.56,1.69-5.92,3.86-11.77,7.43-16.94A2.42,2.42,0,0,1,428.18,329.74Z"/><path class="cls-4" d="M622.68,323.14c.06-.45.11-.9.17-1.36,2.39-2.15,3.67-1,4.47,1.49,1.55,4.94,3,9.9,4.62,14.82.93,2.89,1.32,6.06,4,8.27,1.38,1.14,1.42,2.82.33,4.43-2,3-9.12,6.21-12.59,5.67a3.19,3.19,0,0,1-2.82-3c-1.21-7.36-1.5-14.61,2.16-21.53,1.25-2.37.09-4.94-.13-7.41C622.79,324.07,622.73,323.61,622.68,323.14Z"/><path class="cls-11" d="M482.19,550.2l-.93-.72c-.69-1.7-.56-3.47,1.08-4.29,2.11-1.05,3.38,1.19,4.84,2,.47-.28.61-.55.49-.86-2.6-6.47-2.2-7.08,4.88-8,5.79-.74,11.6-1.3,17.42-1.77,4.22-.33,5-1.28,4.08-5.42a20.26,20.26,0,0,1-.42-9.22,6.81,6.81,0,0,0-.88-4.29c-4.25-9.41-6.28-19.5-9.05-29.35a4.08,4.08,0,0,1,.08-3l2.14,0c3.52,11,5.05,22.56,10.47,32.95a5.81,5.81,0,0,1,.31,4.21c-1.27,5.31.36,10.34,2.18,15.34.85,2.32,2.24,2.87,4.41,2.7q11.84-.9,23.67-1.72c1.72-.11,3.54-.46,5,1,0-4.57,0-4.55,4.47-4.61,1,0,2.08-.17,3.12-.27l.18.32c.54,1,.62,1.86-.94,1.89l-4.94-.59a16.93,16.93,0,0,1,.23,3.9c-.32,1.81-1.83,2.9-3.07,1.18-1.47-2-2.95-1.27-4.7-1.15-8.2.56-16.41,1-24.62,1.51-1,.06-2,0-2.43-.74-2-3.3-5.14-2.55-8-2.32-6.4.49-12.8,1.14-19.18,1.82-2.78.3-4.54.86-1.5,3.88,1.35,1.35.81,4.56,4.16,4,.24.14.33.28.26.44s-.15.23-.23.23a36.53,36.53,0,0,0-4.54,1.35c-3.49,1.54-4.87-1.2-6.66-3.12C483.07,548.48,482.63,549.34,482.19,550.2Z"/><path class="cls-12" d="M542.27,384q5.1-3.59,10.21-7.16c.91.52,1.07,2,2.5,1.88,11.6-2.23,23.21-4.25,34.75-6.66,5-1,9.41-.93,12.52,4.06,1.38,2.22,4.28,2.53,6.6,3.51,1.88.79,4.16.95,5.14,3.17-.11.83-.74,1.06-1.43,1.21a8.77,8.77,0,0,1-2.64-.41c-1.78-.35-3.91-2.17-5.24.21a6.57,6.57,0,0,0,.32,7.55c4.29,5.73,3.79,8.05-2.54,12.31a17,17,0,0,0-4,1.72,7,7,0,0,1-1.16.49c-4.47,1.25-9.08,1.87-13.61,2.86-1.74.39-3.62.47-4.74,2.18-2.53.72-5.2-.39-7.71.6A14.41,14.41,0,0,0,561,414.79c-1.46-1-1.34-2.29-.79-3.69,1.82-2.12,4.47-2.32,6.93-2.79l24.74-4.73a30.63,30.63,0,0,0,9.48-3.95c2.63-1.5,3.17-3.63.65-5.72-3.21-2.66-2.81-6-2-9.4.42-1.89,2-3.5-.32-5.56s-4.29-4.31-8.08-3.49c-8.94,1.93-17.92,3.68-26.91,5.33-4.39.81-8.71,2.07-13.33,1.46-3-.38-3.88,1.84-3.54,4.41.5,3.83,1.23,7.63,1.84,11.45.26,1.61.66,3.23-.38,4.75-1.6.84-2-.58-2.7-1.41-2.24-5.16-1.6-11-3.83-16.16A5.55,5.55,0,0,1,542.27,384Z"/><path class="cls-13" d="M611.9,383.42l1.92-.06c1.62,2.41,3.58,2.75,6.12,1.27,1.66-1,3.25-2.17,5.16-2.55.6-.25-.35-.78,0-.33.06.08,0,.2-.31.3-1.13.4-2.17,1-3.26,1.49-4.91,2.13-7.7.37-7.81-4.92,0-2.94-1.68-5.79-.53-8.8.56-.95,1-2,2.46-1.76,2,2.51.43,7.28,3.07,8.24,2.35.85,5.5-2.18,8.57-2.73,1-.17,2-.72,3,.07a1,1,0,0,1-.21,1.15l-.87.83c-2.26,1.84-5.35,2.24-7.51,4.13,2.92-.22,4.58-4.43,8.24-2.49.25.8,2.46.94,1,2.27-5.3,4.72-10.67,9.39-18.27,9.73,3.69,3.11,3.73,11.13,1.14,17.27-2.18,5.16-5.22,5-9.84,2.43,1.07,4.94,7.09,6.06,6.18,11a5.11,5.11,0,0,1-1.86,1.19c-5.89,1.42-7.1.78-8.59-4.9a76.24,76.24,0,0,1-2.21-8.56,3.57,3.57,0,0,1,1-2.75c.65-1.82,2.12-2,3.74-1.8,1,.75,1.11,2.14,2.11,2.85,2.17,1.52,4.34,2.08,6.33-.34,2.13-2.59,3.21-10.41,1-12.72C608.34,389.39,609.78,386.53,611.9,383.42Z"/><path class="cls-14" d="M249.67,530c-1.36-4.74-1.06-5.15,3.62-4.69,2.67.25,5.33.72,8,.86a13.53,13.53,0,0,0,6.92-1.64c2.82-1.35,7-.13,10.52.18,8.63.73,17.27,1.51,25.88,2.43,3.08.33,3.64-.9,3.84-3.72,1.36-18.49,2.94-37,4.48-55.46a4.79,4.79,0,0,1,.77-1.53,3.83,3.83,0,0,1,1.78,2.38c1.07,4.33-.35,8.57-.59,12.84-.85,14.81-2.42,29.57-3.62,44.36-.32,3.94-3,4.34-6.12,4-10.41-1.19-20.87-1.88-31.29-2.89a2.1,2.1,0,0,0-1.6.33c2.48,5.23,8.12,8.25,10.13,13.79a1.51,1.51,0,0,1-.39,1.4c-4.17-3.49-7.38-7.84-10.9-11.91-.76-.87-1-2.29-2.36-2.47-5.48-.73-11-1.43-16.46-2C249.4,526,250.2,528.52,249.67,530Z"/><path class="cls-13" d="M553.62,380.42c-1.8-.74-.87-2.33-1.14-3.54,1.37-1.55,2.86-3,4.07-4.68s2.63-3.36.32-5.72c-1.56-1.58-1.4-3.72,1.41-4.87,3.77-1.54,7.39-2.76,11.66-2,6,1,13.58-4.73,11.39-8.76-3.33-6.15,2-8.5,3.84-12.29,2.21-4.57,5.79-7.13,11.28-8.33,8.82-1.91,17.88-3.28,26.23-7.06l.32.34a2.07,2.07,0,0,1,0,2c-3.59,2.36-7.85,2.66-11.87,3.58-2.64.6-2.73,1.53-2.26,3.86,1.36,6.79,4,13.19,5.79,19.83.71,2.63,2.5,3,4.48,3.54a1.57,1.57,0,0,1,.51,1.19c-3.18,2.41-4,5.87-4.34,9.57-.58.69-1,1.51-1.54,2.21-2.29-.51-1.94-2.45-2-3.95-.08-6.77-1-13.3-4.21-19.43-1.74-3.34-1.08-7.31-2.42-10.86-1-2.69-2.11-3.25-5.2-3.1-9,.44-12.15,7.15-16.07,13.25-.76,1.19-.19,2.27.05,3.42,1.27,6-1.91,10.86-8,12.65-3.55,1-7.17.4-10.74.86-5.2.67-5.56,1.12-4.28,6,.45,1.68-.36,2.86-1.2,4.1C557.81,375,555.11,377.27,553.62,380.42Z"/><path class="cls-15" d="M582.25,490.6c-.2-1,.92-1.83.24-3-2.34-3.89-13.54-9.24-17.85-8.34-3.23.67-5.72.21-9-1.4-5.52-2.71-11.9-1.05-17.69,1.17-1,.37-1.75,1.25-2.72,1.53-2.09.61-3.7,1.89-3.73,4s2,2.24,3.65,2.54a4.5,4.5,0,0,1,2.78,2.16c4.25,6.31,10.75,10.31,16,15.55,2.55,2.52,4.26,5.91,6.21,9,.8,1.27,1.14,2.87,3.19,2.38.45,1.59-.45,2.77-1.22,4-.72-2.56-2.79-4.32-4.12-6.52a56.37,56.37,0,0,0-14.77-16.21c-4.52-3.32-6.92-9-12.72-10.7-.14,0-.34-.16-.36-.26-.84-6.16-5.19-3.13-8.37-3.15-.39-1.19-4.4-.74-1.57-3.4,5.39,1.37,10.38-.11,15.09-2.43,6.15-3,12.67-3.31,19.29-3.19a4.54,4.54,0,0,1,3,.94c2.43,2.17,5.28,2,8.08,1.34,3.7-.91,6.68.14,9.63,2.32,3.84,2.83,7.47,6,12.08,7.66a.77.77,0,0,1,.24,1.18Z"/><path class="cls-16" d="M631.71,592.43c-1.78-4.69-.52-9.54-.76-14.31a5.75,5.75,0,0,1,1.43-.9c4.45-.2,9-1.33,13.26.81a32.21,32.21,0,0,1,0,13.37c-3,1.15-6.13.25-9.19.55C634.88,592.11,633.21,591.47,631.71,592.43Z"/><path class="cls-17" d="M169.88,540.47c2.3,0,2,1.8,2.25,3.17,2.4,11.94,4.77,23.9,7.21,35.83.4,1.93,0,5,3.83,3.37,1.28-.54,1.67,1.06,2.31,1.71,2.52,2.57,4.67,3.09,6.55-.58,1.19,1.3.9,2.55-.1,3.78-.48.13-.86,1-1.48.21.06.4.39.34.67.45,2.51.93,3.32,1.93.06,3-6.47-4.25-14-4.33-21.27-5.15-.85-.1-2.16-.12-2.55.37-2.62,3.27-7.69,1.83-10.18,5.41-.59.83-2.37,1.72-3-.51.73-1.12,1-2.65,2.62-3,1.75-.81,3.69-1.39,3.95-3.78.42-3.82,3.14-3.45,5.71-2.82,2.31.57,4.41,1.9,6.77,2.35,3.34.64,4.51-.47,3.76-3.79-2.93-13-4.57-26.36-8.53-39.18a1.46,1.46,0,0,1,.12-.86A1.32,1.32,0,0,1,169.88,540.47Z"/><path class="cls-14" d="M215,526.31c6.16-.13,12.08,1.56,18.12,2.4,3.39.46,5.45.76,6-4.12,2.15-18,5.12-35.89,7.68-53.84.79-5.53,1.24-11.12,1.84-16.68,1-.68,1.53-.06,1.94.77-1.94,14.23-3.85,28.46-5.83,42.69-1.29,9.24-2.67,18.46-4,27.69-.41,2.8-.23,4.86,3.55,5a51.62,51.62,0,0,0,5.31.39c-2.69,2.52-5.58.53-8.3.2-7.85-1-15.67-2.23-23.49-3.39C216.82,527.25,215.72,527.27,215,526.31Z"/><path class="cls-18" d="M622.63,325.54c.13-.68.25-1.37.37-2.06,1.91,2.9,3,6.48,1.11,9.19-3.73,5.34-3,11.25-2.75,16.83.34,6.63,1,6.38,7.91,4.87,3-.65,4.32-3,6.46-4.42.88-.6.57-1.63-.05-2.36-5.54-6.53-5.74-15-8.63-22.56-.72-1.87-.69-4.85-4.2-3.25.1-.54,0-1.44.31-1.56,6.13-2.71,7.16-7.78,6.62-13.66-.13-1.45-.24-3,1.12-4.09.56,5.93,1.47,11.91-3.21,16.89-.66.7-.17,1.66.11,2.52,2.2,6.73,4.47,13.43,6.47,20.22.93,3.15,2.22,2.89,4.16,1-.11.9-.23,1.8-.34,2.7-1.05,2.31.39,5.26-1.89,7.26-4.9,4.25-10.59,5.58-16.93,4.48,0-.33,0-.66,0-1a51.89,51.89,0,0,1-.08-19.87A47.61,47.61,0,0,1,622.63,325.54Z"/><path class="cls-19" d="M598.47,404.93c0,.9-.06,1.81-.08,2.72-1.66,3.78-.37,7.51.37,11.2.6,3,4.45,3.06,5.77,5.67.29.59,1.56-.35,2.11-1.07.73-1,.64-2.28,1.46-3.21l2-.29c.61,6.24-3.41,11.47-3.89,17.49a2.12,2.12,0,0,1-2.55,1.94c-1.15-.27-1.48-1.39-1.53-2.46s-.41-2.56.06-3.52c1.58-3.24-.91-5.46-2-7.9-.68-1.62-2.31-1.7-2.63.7a2.13,2.13,0,0,1-3.23-.28c-1.52-3.15-2.87-6.18-3.15-9.91-.4-5.39,1.66-8.68,6.15-11Z"/><path class="cls-20" d="M458.78,321.54c-1.6,3.24-4.5,5-7.65,6.44-2.15,1-5.43,1.58-5.35,3.93.1,3.21,3.81,2.51,6.09,3.14,3.69,1,7.51,1.57,11.16,2.71,3.2,1,6.67,2.13,6.38,6.61,0,.62-.16,1.29.68,1.27a2.23,2.23,0,0,0,1.54-.64c.89-1.16,1.62-2.44,2.42-3.68a2,2,0,0,1,.7,1,6.22,6.22,0,0,1-.87,3.64c-.46.92-1,1.79-1.73,3.17.94-1.06,1.32-2,2.23-2.39,1.94-.62,3.42.63,2.83,2.05-1.94,4.66-1.9,9.91-4.49,14.33a2.1,2.1,0,0,1-1.33-.11c-1.61-1.75-.91-3.86-.86-5.9-1.4,1.09-2.95,1.67-4.36.39s-.82-3,0-4.1c2.73-3.76.06-7.11-.63-10.55-.38-1.87-2.37-2.6-4.2-2.88-4.44-.68-8.69-2.15-13.06-3.13-3.6-.8-7.07-2.22-8.48-6.19l.24-.16c6.26.21,10.65-3.8,15.45-6.82C456.58,323,457.45,321.93,458.78,321.54Z"/><path class="cls-21" d="M348.55,598.93c-.27-.35-.8-.71-.76-1,.66-6.25-4.16-10-7.15-14.35a46.8,46.8,0,0,1-6.39-12.45c-2-6.17-12.53-13.05-18.82-11.92a7.79,7.79,0,0,0-6.15,5.19c-2.39,5.76-4.11,6.18-9.24,2.68-2.45-1.67-5.09-3.07-7.58-4.7-5.14-3.37-4.69-9-6.27-13.71a13.17,13.17,0,0,0-4.18-6,2.2,2.2,0,0,1,.23-.46c3.24-.93,4.73,1.15,5.81,3.53a24,24,0,0,1,2,6.83c1,7.57,7.14,10.14,12.69,13.3,1.74,1,2.72-.44,3.64-1.67,7.06-9.33,15.57-9.93,24.11-1.92,3.1,2.91,5.58,5.91,6.87,10.15,1.75,5.73,5.55,10.59,9.38,15.06,2.91,3.39,3.74,6.55,2.77,10.57A1.58,1.58,0,0,1,348.55,598.93Z"/><path class="cls-22" d="M191.18,591.39c.92-.9,2.11-1.76-.18-2.52-2-.67-.48-.81.21-1,4.58-3,7,.85,10,3,.75.54.82,2.61,2.54,1.27,1.88,1.57,3.76,3.13,6.41,3.21-1.39,1.57-2.62,3,.45,4.23,1,.39,2.24,1,2.17,2.45-1.58.89-3.53.76-4.93,2.43-1.08,1.29-2.53.09-3.36-1-1.56-2.08-3.61-3.25-5.85-4.57C195.72,597.13,193.63,594,191.18,591.39Z"/><path class="cls-23" d="M497.32,336.9c3,1.17,6,2.43,9,3.5,5.28,1.85,8.93,10.66,6.27,15.66-1,1.87-1.34,4.13-3.37,5.51a1.73,1.73,0,0,0,.13,2.74c1.15.76,1.82-.13,2.49-1.05,1.08-1.47.89-4,3.43-4.26l.5.43c.21,2.11-.89,3.74-2.13,5.23s-2.82,3-5,1.64-2.62-3.51-1.69-5.87a22.89,22.89,0,0,1,2-3c3.68-6.16,1.29-12.92-5.42-15.32-1-.35-1.93-.83-2.92-1.16-2.15-.72-3.76-1.22-4.51,2.08-.56,2.47-2.3,4.68-2.67,7.41a2.67,2.67,0,0,1-3.13,2.54c-3.37-.72-3.7,1.53-4.19,3.79-1.21,5.62-1.33,11.2.6,16.7a3,3,0,0,1-.69,1.83c-3.51-.42-3.93-3.49-4.36-5.86-1.12-6.13.47-12.1,2.27-17.92.72-2.35,2.85-3.84,5.12-4.73.75-.3,1.11,0,1.58-1.19,1.24-3.17.83-7.33,4.77-9.13A1.84,1.84,0,0,1,497.32,336.9Z"/><path class="cls-24" d="M631.73,578.06l-.38.1-.4,0c.06-18,.25-36,.08-54,0-4.08,1-5.58,5.19-5.11,3.26.36,6.59.13,9.89.17a.76.76,0,0,1-.18,1.26c-2.8,1.37-5.82.78-8.75.82-2.73,0-4.15,1-4.06,3.89.11,3.38-.21,6.77.56,10.1a49.27,49.27,0,0,1,.09,11.45,9.36,9.36,0,0,0,0,3.54,36.94,36.94,0,0,1,.28,5.26c.09,4.69,4,7,8.4,4.87,1.7-.82,1.5-2.34,1.63-3.77.22-2.44-.51-5,1.23-7.22a1,1,0,0,1,1.34.43c-.26,4.79.92,9.64-.72,14.36-2.49,1.37-5.23.85-7.87.88-2.84,0-4,1.25-4,4,0,2.49.31,5-.54,7.46A3.12,3.12,0,0,1,631.73,578.06Z"/><path class="cls-25" d="M402.31,569.44a16.34,16.34,0,0,1-11,7.81c-12.52,2.61-16.33,12.19-19,22.54-.5,1.93.49,4.75,1.6,7.06.87,1.82,2.44,4.18.82,6s-3.88,0-6-.27c-5.1-.79-9.43-3-14-4.94-4.28-1.79-4.38-5.64-6.14-8.71l.41-.39a2.55,2.55,0,0,1,2.74,1.87c2.13,5.19,6.94,6.76,11.6,8.29,2.64.87,5.49,1.15,8.68,2.21-.85-4.33-2.1-8.06-2.34-12-.27-4.62,2.79-7.67,4.41-11.4,1.94-4.45,6.34-7.26,8.11-11.85.29-.75,1.27-.84,2-.69,6.6,1.38,11.6-1.65,16.25-5.71a2.06,2.06,0,0,1,.84-.31A1,1,0,0,1,402.31,569.44Z"/><path class="cls-26" d="M176.78,501.35l0-1c.73-1,2.52-1.33,2.11-3.1-1.48-6.26,2.94-10.46,5.64-15.16a5.89,5.89,0,0,0,.77-4.94c-.88-3.29-2.86-6.24-3-9.75a2.75,2.75,0,0,1,.56-1.12c1.88-.62,1.66-2.19,1.66-3.66a17.59,17.59,0,0,1,.67-5.68c.69-2.08,2.05-3.56,4.26-3,3.54,1,3.89-1,4.4-3.61.44-2.18-.15-4.84,2.24-6.39a2.12,2.12,0,0,1,1.47,2.07,33.44,33.44,0,0,1-2.07,9.95c-.82,1.91-2,3.46-4.41,1.57-2.62-2.05-3.48.47-3.38,1.95.47,6.74-3.09,13.84,1.77,20.19,1,1.37,0,2.2-.95,3-4.93,4.15-8,8.9-6.41,15.77,1,4.46-3.54,2.2-5,3.72Z"/><path class="cls-27" d="M138.69,600.35c.58-1.5,1.52-2.92,1-4.65-2.91,1.28-4.65-2.89-7.34-1.69s-3.15.3-2.81-2.15c.28-2.05,1-4.56-2.84-3.37a1.64,1.64,0,0,1-1.88-.9c-.89-1.55-1.34-2.51-3.37-.64-1.82,1.67-2.92-.71-4-1.88a2.57,2.57,0,0,1,2.53-1.31c3,.38,3.24-.59,2.24-3.17-1.25-3.26,3.21-9.38,6.73-9,1.7.16,2.4-2.19,4.33-1,.66.42,1.17-1.05.91-2s0-2.27-1.75-1.84c-2.26.57-4.24-.65-6.34-1.07.78-1.05,2-1.14,3.12-1.31.73-.12,1.47-.23,2.2-.38,2.19-.45,4.67-1.39,5.38,1.92.62,2.89.65,5.71-2.91,7-1.55.56-3.1,1.09-4.64,1.66-2.58,1-4.37,2.73-4.07,5.68.26,2.51.51,5.19,4.15,5.23a2.53,2.53,0,0,1,2.52,2.18c.6,3.59,3.37,4,6.21,4.71,1.71.4,4.54-.62,4.77,2.09.21,2.41-.24,5.08-3,6.42A1.71,1.71,0,0,1,138.69,600.35Z"/><path class="cls-28" d="M734.38,508.74c-4.12,1.29-8.35.08-12.5.57l-.7-.55a3.9,3.9,0,0,1-1-1.44c0,.66.35,1.33,0,2-3.95-.53-8.12.66-11.87-1.51-.23-.14-.58,0-.88-.09-1.38-.22-1.85,2.89-3.14,1.27-1-1.32.79-2.8,1.49-4.16a11.34,11.34,0,0,1,4.4,1l.29.33c.07.08.15.14.23.22a8.86,8.86,0,0,1,10.54-3.42c2.95,1.08.57,3.52,2.06,4.74,1.7-.42.82-1.88,1-2.9.14-.67-.09-1.54,1-1.6a1.07,1.07,0,0,1,1.19,1.06c0,5.22,2.51-.61,3.3,1-.55-1.2-2.2.53-2.36-1a1.39,1.39,0,0,1,1.91-1.23c1.8,1.3,3.47-.83,5.13.07A6.24,6.24,0,0,1,734.38,508.74Z"/><path class="cls-29" d="M558.82,537.13l.93-1.89c2.67,10,9.44,18,13.65,27.07,5,10.81,14.8,20.43,12.71,34-.57,3.7-.86,7.42-2.79,10.75a.83.83,0,0,1-.18-1.32c-.55-4.95,2.06-9.39,1.4-14.71-.93-7.54-5-13.11-8.34-19.27-.28-.52-1.05-.89-1.11-1.37-1.09-10.1-10.51-15.76-13.47-24.91C560.72,542.72,559.6,540,558.82,537.13Z"/><path class="cls-30" d="M380.41,301.21c0-.3,0-.6-.05-.9,4.49-.08,9-.22,13.48-.2,2.05,0,3.66-.17,3.33-2.82-.13-1.06-.18-2.22,1.31-2.35a2.56,2.56,0,0,1,2.81,1.76,19.28,19.28,0,0,1,.71,3.49c.31,2,.84,3.48,3.46,3.77,3.26.37,6.3,2.43,9.82.67a3.76,3.76,0,0,1,3.42.51c3.33,3.15,8.6,2.41,11.66,5.93a1.6,1.6,0,0,0,2.39.21c4.16-3.41,8.34-.76,12.52-.14a.8.8,0,0,1-.27,1.17c-9.16,1.52-18.24,2.43-26.19-4a3.44,3.44,0,0,0-3.34-.92c-3.57,1.46-6.7-.17-10-1s-5.49-2.29-5.81-5.42C393.13,302.85,386.8,303.2,380.41,301.21Z"/><path class="cls-31" d="M130.13,565.46l-4,.23c-3.7-.63-2.64-4.47-4.23-6.58-.74-1,2.21-1.81,3.62-2.46,2.83-1.32,5.6-2,7.73,1.69a21.84,21.84,0,0,0-4.82-8.89c-2.42-3-2-4.43,1.89-5.05,1.28-.2,2.44-.46,3-1.67,2.22-5.26,7.84-5.44,12-7.28,2-.87,5.91.75,8,3.32a.74.74,0,0,1,.23.74c-.07.24-.14.37-.21.37s-.31.19-.41.15c-8.3-2.92-14.65-.08-20.22,6.19-1.45,1.64-1.56,2.46-.53,4a21.55,21.55,0,0,0,2.94,3.31c1.44,1.45,2.36,3.25,1.11,5.19-1.11,1.72-3,1.71-4.85,1.4a5.9,5.9,0,0,1-1.67-.62c-1.13-.53-2.45-1-3.21.26s0,2.55,1.09,3.47C128.41,564,130,563.94,130.13,565.46Z"/><path class="cls-32" d="M594.88,425.5c.72,1,1.79.66,2.75.7,1.15,4.05,2.94,7.95,2.59,12.36-.08,1,.82,2.64,1.91,2.65,3.28,0,3.74,2.39,4.5,4.62l-.57.34a3.1,3.1,0,0,1-1.28-.28c-1.79-1.26-3.9-1.37-5.95-1.82-2.63-.58-4.49-1.47-2.33-4.85,2.44-3.81-.09-9.4-4.45-10.77-1.71-.54-3.53-.72-5.21-1.36s-2.94-1.68-2.32-3.3c1.26-3.28,0-5.31-2.55-7.14a3.38,3.38,0,0,1-1.17-2.8,2.29,2.29,0,0,1,.51-1.17c3.22-.09,5.29,2.44,8,3.53a2,2,0,0,1,.91,2.35c-1.37,3.65.66,5.1,3.7,6C594.33,424.72,594.61,425.15,594.88,425.5Z"/><path class="cls-33" d="M138.69,600.35l1.18.12c1.15,2.15,1.59.07,2.16-.42,1.71-1.48,3-4,5.92-2.44.54,1.61-1.12,1.42-1.74,2.08-4,3.31-7.28,7.64-12.47,9.46-1.14.41,1.38,5-2.32,2.24-2.27-1.7-3.41,0-5.08.48-1.84.54-3.75.87-5.64,1.23-.74.14-1.63.07-1.6-1,0-1.24,1.06-1.68,2.09-2,4.64-1.47,8.76-4,12.93-6.36A42,42,0,0,0,138.69,600.35Z"/><path class="cls-34" d="M444.82,563.86a3,3,0,0,1,3,1.44c1.84,2.6,3.87,4.33,6.56.84a1.65,1.65,0,0,1,.78-.39c5.21-1.59,5.64-1.79,9.41-5.83,1-1.06,3.19,0,3.56-2.26-1.86-1.28-4.53,1.43-5.91-.87-.54-.91.59-1.84,1.79-2-.26,1.23-.43,3,1.4,1.43,2.11-1.77,3.12-.34,3.86.93,1,1.73-.17,2.75-1.91,3.1-1,.21-1.66.73-1.57,1.78s1,1.43,1.87,1.65c1.4.36,3.09-.18,4.12,1.27.6.84,2.41,1.1,1.3,2.77-1,1.47-2.27,2-3.8,1.15s-2.61-2.23-4.57-2.59c-1.75-.32-3.34-1.63-3.88,1.29-.06.3-.77.78-1,.69C454.88,566.66,447.82,572,444.82,563.86Z"/><path class="cls-35" d="M640.84,337.14c-.84-.76-.47-1.58.4-1.47,2.88.38,3.5-2.41,5.32-3.5,2.77-1.66.49-4.94,1.87-6.89s4.33.66,6.55-1.76c2.06-2.24,4.83-4,7.22-6.15,3-2.69,1.86-3.53-.76-5.45-4-2.94-8.71-5.69-8.87-11.64.27-.43.54-.43.82,0a23.41,23.41,0,0,0,9.93,11c3.26,1.92,3.21,4.53.44,7.12-1.81,1.69-3.9,3-5.29,5.28a5.7,5.7,0,0,1-4.84,2.72c-2.3,0-3.56.88-4.24,3.81C648.5,334,645.15,336.55,640.84,337.14Z"/><path class="cls-36" d="M645.24,564.09c2.07-4.77.53-9.75.84-14.62-1.61-9.81-2.29-19.61,0-29.41a1.67,1.67,0,0,0,0-.83c1.5.66,1,2,1,3.11q0,33.4,0,66.82c0,1.09.5,2.44-1,3.14-.3-.3-.86-.34-.9-.89q0-6.58,0-13.18c0-.94-.84-1.6-.93-2.52C644.24,571.8,643.09,567.82,645.24,564.09Z"/><path class="cls-37" d="M524.57,552.64c2-5.23,5.87-6.08,10.67-2.69,4.18,3,7.28,7.2,12.08,9.57,1.72.84,2.71,3.34,2.58,5.84-.2,3.67,0,7.36,0,10.91,1.62.78,2.87-1.4,4-.26s-.11,2.59-.77,3.59c-1.61,2.43,1.57,3.67,1.2,5.72-3.16-1.61-4.43-3.8-1.88-7.16-3.54.94-4.44-.78-4.29-3.5.16-2.95.4-5.9.68-8.85a5.16,5.16,0,0,0-2.34-5c-4.48-2.71-8-6.5-11.92-9.75-1.87-1.53-5-4.29-7.13.47C527.09,552.19,525.54,552.28,524.57,552.64Z"/><path class="cls-38" d="M497.32,336.9l-1.58,0a19.24,19.24,0,0,0-14.05,3.61,10.62,10.62,0,0,1-7.55,1.8l-.09-1c3-3.08,7.65-3.18,11-5.47,4.84-3.35,9.93-1.18,14.87-1.71.91-.1,2.35-.3,1.8-1.24-1-1.62.93-5.12-3-4.85a.84.84,0,0,1-1.31-.2c2.71-1.74,4.9-2.45,5.13,2.07.1,2,1,2.92,3.28,1.82a1.94,1.94,0,0,1,2.94,1.67c.06,1.58-1.41,1.6-2.65,1.63-2.23.06-4.48.34-6.69.19C497.87,335.12,497.6,335.87,497.32,336.9Z"/><path class="cls-39" d="M291.13,609.54a5.69,5.69,0,0,1-3.78,3.33c-2.35.67-4.58,1.47-6,3.6a2.33,2.33,0,0,1-3.15.81c-1.27-.49-2.6-1.15-2.39-2.82.29-2.18-.64-4-1.29-6-1-3.22,2.53-5.61,2-8.86a5.12,5.12,0,0,1,1.22-.22c3.21.09,12.28,6.68,13.22,9.58A4.68,4.68,0,0,1,291.13,609.54Z"/><path class="cls-37" d="M583.14,605.77l.18,1.32c-1.05.53-2.06,1.13-3.14,1.59-3.19,1.36-6.07,2.81-7.1-2.68-.44-2.31-2-5.61-6-4.61a1.61,1.61,0,0,1-1.78-1.1c-2.23-5.28-6.63-8.85-10.28-13a6.75,6.75,0,0,1-.81-2c1.71.26,2.23,2.9,4.59,2.09.84-.29,1.74.73,1.69,1.68-.16,3,2.7,4.17,3.56,6.21,2.37,5.63,10.89,5.48,11.42,12.6.07.91,1.84.66,2.81.24C580,607.39,581.54,606.56,583.14,605.77Z"/><path class="cls-40" d="M613.72,369.12c.09-.82.23-1.6,1.13-2,5.76-3.34,12.34-4,18.69-5,3.45-.56,4.86,3.29,6.68,5.72a1.68,1.68,0,0,1-.16,1.4l-1.89,1c-2.38.09-2.48-2.79-4.52-3.38-.71,2.26.9,3.94,1.37,5.85-1.31,1.46-3.17,1.66-4.93,2.07l0-1.12c-.08-.89,0-1.79,0-2.68-.33-3.14-1.79-4.35-5.17-3.59-2.94.66-5.86,2.66-9.08.91l-1.92,1.63a.51.51,0,0,1-.26-.52C613.61,369.22,613.66,369.12,613.72,369.12Z"/><path class="cls-41" d="M637.22,504.14c2-2.55,5.82.09,8-2.67.29-.37,1.79,1.31,1.3,2.83a5.51,5.51,0,0,0,.62,4.94c-3.54.21-6.57.46-6.37-4.68-.78,2.65-.71,5.64-4.44,4.63-.88-.72-2.84.25-2.93-1.34C633.22,505.42,635.84,505.31,637.22,504.14Z"/><path class="cls-42" d="M640.06,369.24l-.18-1.31c-.59-3.12,1.87-2.16,3.32-2.56-2.27-2-4.09-4.56-6.92-6.13-1.08-.59-.8-2.1-.74-3.3s.84-2.62-.16-3.86c2.65-1.34,1.15-4.45,2.71-6.26-.62,3.5,1.54,6.94.19,10.46-.28.73-.26,1.63.7,1.76,2.32.29,3,2.26,4.19,3.71s2.59,2.61,4.52.87c.67-.61,1.65-1.22,2.28-.23a1.88,1.88,0,0,1-.67,2.37c-1.92,1.32-3.45,3.7-6.12,3.2C641.59,367.66,641.16,369,640.06,369.24Z"/><path class="cls-43" d="M693.91,540.57c-.45,1.22.75,3.75-2.7,2.87-1-.26-2.59,1.1-3.76,1.93s-2.41,1.13-3.62.11a3.94,3.94,0,0,1-1.2-4.42c.43-1.46,1.12-2.78,2.75-3.2.44-.12,1.62.13,1.07.69-2.87,2.92,2.13,1.74,1.66,3.31,1.91.36,1.85-1.52,2.64-2.38s1-2,2.34-1.4C694.14,538.52,693.77,539.58,693.91,540.57Z"/><path class="cls-44" d="M606.63,445.83c.33.48.66.95,1,1.45,1.76,2.86,2.55,5.38-2.22,5.71,0,.44,0,.84.13.89,2,.91,5.87-.09,5.44,3.58-.45,3.93-3.33,6.55-7,8.09a.88.88,0,0,1-1.13,0c-.81-2.49,1.76-2.69,2.75-3.95s2.46-2.24,1.76-3.76-2.37-.6-3.63-.45a12.75,12.75,0,0,1-2.22.22c-1.17-.07-2.59,0-3-1.35-.31-1.12.81-1.77,1.54-2.49,1.92-1.88,5.42-2.24,5.66-5.74a2.76,2.76,0,0,1,.73-1.7A1.35,1.35,0,0,0,606.63,445.83Z"/><path class="cls-45" d="M684.2,505c-.37,1.51,1.59,3.7-1.79,4.31-4.29.77-6.89-.09-6.54-5.1-2.6,1.18-.34,3.94-2.48,5.23-1.67-1.73-1.19-3.88-.71-5.67.41-1.55,5-.88,5.41.76.28,1.06-.26,2.34,1.06,3.63.74-2.4-.28-6.13,4-4.92A2.33,2.33,0,0,1,684.2,505Z"/><path class="cls-46" d="M626.4,504c-1.81.24-1.89,1.54-1.88,2.95,0,4.44-3.54,2.1-5.26,2.33-2.17.3-2.59-1.94-2.45-3.85.07-.95.7-2.08,1.44-2,2.7.17,5.57-1.41,8.09.66Z"/><path class="cls-47" d="M682.79,587.76c.67-1.78,3.87,0,2.86-.89-1.74-1.47,2.81-6.17-2.86-4.43a2.37,2.37,0,0,1,3.33-1.7c2.63.78,1,3.22,1.53,5,1.84-.18,1.92-1.82,2.75-2.68s1.13-3.14,2.76-1.88.77,4.69.24,4.71c-3.5.11-5.89,3.44-9.42,2.92C683.53,588.71,683.16,588.09,682.79,587.76Z"/><path class="cls-48" d="M603.05,465.57a8.42,8.42,0,0,1,.87,0,8.24,8.24,0,0,0,2.2,2.67c2,1.69.65,4.8-2.42,5.5-5.78,1.32-9.69,4.88-11.06,10.38-.81,3.22-2.08,4.16-5,3.64,0-.28,0-.56,0-.83,2.29-2.64,3.19-6.11,5.39-8.81,2-2.44,4.24-4.63,7.28-5.59s4.21-2.39,2.35-5.35A1.29,1.29,0,0,1,603.05,465.57Z"/><path class="cls-49" d="M445.24,312l0-.9,3.86.81.64,1c-9.26,3.19-15.64,9.75-21.59,16.81l-2-.29c3.75-5.72,7.86-11.09,14.1-14.44C442,314.1,443.86,313.49,445.24,312Z"/><path class="cls-50" d="M563.37,516.06c2.79-6,8.82-9.31,12.58-14.59,1.19-1.66,2.54-2.83,2.88-5.07s1-4.64,3.48-5.82c-1.12,3.44-1.54,7.39-3.6,10.15a38.55,38.55,0,0,1-6.42,7C569.08,510.29,567.39,514.41,563.37,516.06Z"/><path class="cls-51" d="M637.22,504.14c-.2.79.22,2-.89,2.21-5.79.93-.64,1.89,0,2.84-2.46.88-4.8-.56-7.49-.06-3.41.63-2.76-2.84-2.41-5.18l-.06.06C628.58,503.05,635.22,503.13,637.22,504.14Z"/><path class="cls-52" d="M683,552.6c2,.43,2.83,1.71,3.65,2.44,2.2,1.94,2.92.79,3.93-.89.51-.85.81-2.07,2.18-1.92.91.1,1.14.89,1.12,1.66,0,1.3.23,3.72-.63,3.66-3.35-.25-5.28,3-8.4,2.83-.51,0-1-.51-1.53-.8.43-1.94,3.24.37,3.15-2-.07-1.76-1.7-1.26-2.64-1.78C682.6,555.15,683.44,554,683,552.6Z"/><path class="cls-53" d="M203.78,592.12c.06,1.45-1.05,2.22-1.73,1.07-1.8-3-6-3.19-7.47-7.27,0,4.53-2.09,2-3.37,1.92A6.57,6.57,0,0,0,192,584c2.21-1.74,3,.69,4.33,1.5A23.25,23.25,0,0,1,203.78,592.12Z"/><path class="cls-54" d="M481.29,327.89c-3.5,4.58-8.19,5-12.11,1-2.12-2.2-4.15-3.77-7.3-1.71-2.13,1.38-2.26-.34-2-1.71a7.49,7.49,0,0,1,3.53-4.92c.49,1.68-1.61,2.44-1.46,4.43,3.66-.33,6.34,1.13,9.14,3.78S478,329.55,481.29,327.89Z"/><path class="cls-55" d="M660.11,508.46a13.16,13.16,0,0,1-2.92,1c-2.48.26-3.6-1.24-3.52-3.46a2.83,2.83,0,0,1,3.52-3c1,.13,2.43,1.25,2.73,1a2.94,2.94,0,0,1,3.56-.67c-1.46,1.58-1,3.64-1.44,5.47C661.83,509.53,660.88,509.36,660.11,508.46Z"/><path class="cls-56" d="M494.76,549.31c0-.22,0-.45,0-.67,7.33-3.87,13.86-.78,19.59,3.22,2.77,1.94,5.17,2.16,8,2.16-3.06,1.87-5.13,2.21-8.43-.92C508.8,548.24,501.8,547.41,494.76,549.31Z"/><path class="cls-57" d="M665.46,566.6c2.64,0,6.37-1.58,5.73,3.61,0,.14.31.43.52.48,1.77.39,2.71,1.27,1.76,3.11-.46.9-2.11,1.16-2.17.79-.26-1.81-4.8.31-2.95-3.41.62-1.26-1.53-.69-2.22-1.28C665,569,664.57,567.92,665.46,566.6Z"/><path class="cls-57" d="M665.46,538c2.64.06,6.37-1.58,5.73,3.62,0,.14.31.43.52.47,1.77.39,2.71,1.27,1.76,3.11-.46.9-2.11,1.16-2.17.79-.27-1.81-4.8.31-2.95-3.41.62-1.26-1.53-.69-2.22-1.27C665,540.39,664.57,539.33,665.46,538Z"/><path class="cls-57" d="M665.46,580.89c2.64.06,6.37-1.58,5.73,3.62,0,.14.31.43.52.47,1.77.39,2.71,1.27,1.76,3.11-.46.9-2.11,1.16-2.17.79-.27-1.81-4.8.31-2.95-3.41.62-1.26-1.53-.68-2.22-1.27C665,583.27,664.57,582.21,665.46,580.89Z"/><path class="cls-57" d="M665.46,552.3c2.64.06,6.37-1.58,5.73,3.62,0,.14.31.43.52.48,1.77.38,2.71,1.26,1.76,3.1-.46.9-2.11,1.17-2.17.8-.27-1.81-4.8.3-2.95-3.41.62-1.26-1.53-.69-2.22-1.28C665,554.68,664.57,553.63,665.46,552.3Z"/><path class="cls-58" d="M152.52,595.24c3.79,1.08,1.42,4,1.16,5.63a4.37,4.37,0,0,1-4.75,3.12c-1.83-.25-2-1.87-1.8-3.44A12.84,12.84,0,0,1,152.52,595.24Z"/><path class="cls-59" d="M702.78,558.26c-.38,1.51-1.53,2.7-2.18,2-1.12-1.14-3.9,0-3.65-2.61.06-.66.83-1.31-.35-1.7-2-.64-2.24-2-1.05-3.42s2.52-.33,3.57.45C701,554.43,700.64,557.29,702.78,558.26Z"/><path class="cls-59" d="M702.84,572.17c-.35,1.67-.92,2.66-1.85,2.45a30.11,30.11,0,0,1-4.5-1.79c1.88-2-.18-2.49-1.22-3.52-.36-.36-.26-1.45,0-2.07.39-1,1.34-1,2.3-.85C701.5,566.84,699.25,572.07,702.84,572.17Z"/><path class="cls-59" d="M702.88,543.69c-.5,1.82-1.43,2.92-2.36,2.32-1.25-.81-3.27-.51-3.76-2.27-.16-.59,1.35-1.51-.19-2-1.72-.58-2-1.75-1.3-3.13a1.65,1.65,0,0,1,2.67-.5c.74.92,3.74-.08,2.36,2.6S704.18,541.69,702.88,543.69Z"/><path class="cls-59" d="M702.73,586.44c-.09,1.55-.64,2.6-1.84,2.5a5.67,5.67,0,0,1-4.11-2.37c-.25-.34,1.32-1.47-.23-2-1.72-.57-2-1.75-1.26-3.14A1.64,1.64,0,0,1,698,581c.74.91,3.67-.09,2.35,2.61C699.14,586,703.31,584.71,702.73,586.44Z"/><path class="cls-59" d="M677.81,531.79c0-1.84-4.57.59-3.12-3.27.44-1.16-.69-1-1.25-1.31a2,2,0,0,1-.84-2.7,1.64,1.64,0,0,1,2.57-.83c.87.93,3.42.19,2.76,2s.09,2.07,1.4,2.65a1.6,1.6,0,0,1,.62,2.31A2,2,0,0,1,677.81,531.79Z"/><path class="cls-60" d="M517.3,391.34q0-.42.09-.84a54,54,0,0,0,8.1,1.92c3.52.61,7-1.25,9.93-3.59,2.17-1.77,3.92-4.1,6.85-4.79a1,1,0,0,1,.48.26c-4.49,8.51-15.19,13.13-23.65,8.9A3.09,3.09,0,0,1,517.3,391.34Z"/><path class="cls-61" d="M269.46,589.56a7.9,7.9,0,0,1,2.61.54c1.37.68,3.42.8,3.65,2.78.14,1.29-.75,2.16-2.15,2.34-1.74.22-3.7,1.8-4.9-1a6.12,6.12,0,0,0-1.81-1.81c-.74-.62-1.26-1.32-.75-2.26S267.54,588.75,269.46,589.56Z"/><path class="cls-62" d="M692.23,503.3c2-.42,4.33-1.21,5.14,1.55.68,2.3.28,4.4-2.85,4.75-.85.1-.84,2.06-2.3,1.23C691.06,508.32,690.1,505.81,692.23,503.3Z"/><path class="cls-63" d="M734.38,508.74l.09-5.66c.33-.93.09-2.33,1.34-2.57s1.72,1,2.22,1.87c1.9,3.45,1,7.11-2.85,9.92,1.11-3.32,1.91-6.23.81-9.48C734,504.6,736.3,507.25,734.38,508.74Z"/><path class="cls-64" d="M249.51,586.22c-2.65.22-3.26-2-3.51-3.68-.34-2.25,2.25-2,3.51-2.42,2.32-.75,2.53,1.58,2.81,3C252.71,585,251.53,586.08,249.51,586.22Z"/><path class="cls-65" d="M663.51,523.63c2.13.74-2.46,1.68-.23,2.45,1.32.45,1.48,1.59,2,2.66,1,2.13-.63,2.65-1.81,3-2.82.71-2.77-2.53-4.42-3.51-.38-.23-1.41-.65-.39-.86C661,526.83,660.63,523.46,663.51,523.63Z"/><path class="cls-66" d="M611,509.93c-1.27-2.84-.76-5.14-.73-7.35,0-1.82,1.6-1.3,2.69-1.39,1.41-.12,2.84.07,3.33,1.56.4,1.18-.44,2.87-1.33,2.81C612.15,505.37,612.32,507.88,611,509.93Z"/><path class="cls-67" d="M635,372.72c-3.3-1.15-2.34-4.34-3.17-6.65-.11-.31.44-1.1.86-1.3a1.72,1.72,0,0,1,2.24.83c1.06,1.56,2.15,3.1,3.22,4.65C636.84,370.72,636.62,372.59,635,372.72Z"/><path class="cls-68" d="M517.37,390.46l-1.83-1a31.27,31.27,0,0,1,7.87-16.86.81.81,0,0,1,1.19,0c.17,2.63-.1,4.51-2.51,6.79C519.33,382,518.43,386.53,517.37,390.46Z"/><path class="cls-69" d="M212.81,602a25.33,25.33,0,0,1-3-1.8c-1.32-1.05-3.9-1.38-3.71-3.3s3-.31,4.1-1.58C213.14,596.75,214.4,598.83,212.81,602Z"/><path class="cls-70" d="M653.39,300.27h-.82c-.7-1.95-1.44-3.9-2.1-5.86C648,287,648,287,640.36,287.76c5.11-3.72,8.51-2.69,10.38,3.23C651.71,294.05,652.51,297.18,653.39,300.27Z"/><path class="cls-71" d="M704.38,500c-2,4.57-2.14,8.22.1,12.19C699.08,509.48,698.93,503.73,704.38,500Z"/><path class="cls-72" d="M156.8,589.73c-1.37-.13-1.67,1.32-2.65,1.78-.06-1.18-.13-2.35-.2-3.53-.28,2.15-4.43,2-3.13,5.18.31,1,.31,1.8-.87,2.17-3-1.19-3.29-3.2-1.35-5.43,1.7-2,2.62-4.62,5.21-5.79,1.54.23,2.07,1.49,2.75,2.62C156.93,587.7,157.59,588.66,156.8,589.73Z"/><path class="cls-25" d="M413.74,562c0,.28,0,.57,0,.86-5.53,2.4-5.53,2.4-10.49.42-.35,2.09,1.92,4.65-1,6.16l-.39-.35c-1.26-1.28-1.29-3-1.47-4.58-.32-2.74,1.8-4.49,3.74-3.69C407.41,562.13,410.65,561.07,413.74,562Z"/><path class="cls-73" d="M654.46,573.56c.63-1.69,2.87,1,3-1.37-3.64.26,3.06-6.17-3.53-3.87,1.56-2.42,3.39-2.71,4.41-1.34a6.19,6.19,0,0,1,.41,6.72C657.79,575.4,655.85,575.29,654.46,573.56Z"/><path class="cls-74" d="M106.94,616.88c3.16-1.9,6.3-4,10.56-4.16C115.26,617.61,111,616.83,106.94,616.88Z"/><path class="cls-75" d="M630,377.26c-3.71-.17-5.57,4-9.24,3.93a7.15,7.15,0,0,0-1.82.53c2.21-4.52,6.5-4.93,10.33-6.1C629.46,376.17,629.71,376.71,630,377.26Z"/><path class="cls-76" d="M497.35,327.85l1.31.2c-2.46.95-4.78,2.2-6.81-1.07-1.27-2-3.21.27-4.91.19a30,30,0,0,0-5.68.75c2.89-3,7.23-1.62,10.53-3.41.16-.09,1.09.65,1.14,1.06C493.31,328.53,495.53,327.77,497.35,327.85Z"/><path class="cls-77" d="M233.63,575.51c-.24,1.65-1.17,3.06-3.13,2.56-1.51-.37-4-.35-3.77-2.78s2.42-2.66,4.39-2.72S233.79,573.53,233.63,575.51Z"/><path class="cls-78" d="M687.83,571.71c1.47-.46,1.67-2,2.52-3s.89-2.55,2.4-2.19c1.83.43,1.1,2.15,1.09,3.35s.14,2.72-2.16,2.18c-1.38-.32-2.84,1.58-4.45.29C687,571.78,687.19,571.56,687.83,571.71Z"/><path class="cls-79" d="M524.6,372.63l-1,0c-3.06-.91-2.76-3.85-3.41-6-.86-2.89-2-5.45-4.46-7.27a5.46,5.46,0,0,0-.44-.38c3.43-2.29,4.93,0,5.9,2.67C522.5,365.26,523.48,369,524.6,372.63Z"/><path class="cls-80" d="M118.56,569.6c-1.75,1-6.64-.36-7-2-.29-1.19.26-1.93,1.75-1.62C115.57,566.47,117,568.07,118.56,569.6Z"/><path class="cls-81" d="M687.23,572.39c-1.58-1.14-3.19.41-5,.15a6.89,6.89,0,0,1,.82-1.79c1.27-1.34,1.35-4.5,3.49-4.07,2.34.47.66,3.35,1.33,5Z"/><path class="cls-82" d="M193.38,513.8a38.33,38.33,0,0,1,15.81,9.36A121.45,121.45,0,0,1,193.38,513.8Z"/><path class="cls-83" d="M655.23,588.93c-.56-3,2.84-3.81,2.08-6.27-.53-1.75-1.9,1.1-3.06-.31.75-2.11,2.36-2.21,4.07-1.3s1.25,2.48.33,3.75C657.6,586.24,656.38,587.56,655.23,588.93Z"/><path class="cls-84" d="M658.92,554.35c.13,2.27.23,4-2.65,3.56-.83-.12-2.12.41-1.84-.78.46-2,1.17-4.29,3.44-4.77C659.27,552.07,658.83,553.81,658.92,554.35Z"/><path class="cls-85" d="M666,556.69c-.47,3.24-1.83,4.77-5.23,2.86.58-1.91,2.82.39,3.12-1.59.26-1.75-1-1.75-2.19-2-1.47-.29-1.1-1.58-1-2.52.2-1.37,1-.36,1.6-.28C663.82,554.06,665.78,554.48,666,556.69Z"/><path class="cls-85" d="M666,542.39c-.47,3.25-1.83,4.77-5.23,2.86.58-1.9,2.82.4,3.12-1.59.26-1.75-1-1.74-2.19-2-1.47-.3-1.1-1.59-1-2.53.2-1.37,1-.35,1.61-.28C663.82,539.77,665.78,540.18,666,542.39Z"/><path class="cls-85" d="M666,585.27c-.47,3.26-1.83,4.79-5.23,2.86.56-1.91,2.81.4,3.12-1.58.27-1.75-1-1.75-2.18-2-1.48-.29-1.11-1.58-1-2.52.19-1.38,1-.36,1.6-.29C663.82,582.65,665.78,583.06,666,585.27Z"/><path class="cls-86" d="M666,571c-.49,3.21-1.84,4.7-5.23,2.82.71-1.81,2.87.44,3.17-1.58.25-1.71-.92-1.78-2.17-2-1.48-.24-1.12-1.53-1-2.47.16-1.37,1-.42,1.57-.33C663.83,568.35,665.8,568.77,666,571Z"/><path class="cls-87" d="M684.2,505a1.64,1.64,0,0,1-1-1.76c2.46-.21,4.93-.54,7.36.24.2.89.35,1.74-1.08,1.33-3.37.17-.36,3.48-2.43,4.46-1.92-.63-.83-2.39-1.08-3.63S685.17,504.14,684.2,505Z"/><path class="cls-88" d="M667.16,531.43c.65-1.36,7.41-1.81.6-4.21-1.4-.49-.83-1.93-.53-2.68.76-1.91,2.39-1,3.66-.86,1,1.18-5.19,1.09-.34,3,1.28.5,1.24,2.3.72,3.59C670.46,532.28,668.81,532,667.16,531.43Z"/><path class="cls-89" d="M654.71,544.92c.81-1.42,2.92,1,3.19-1.34.2-1.78-1.11-1.66-2.28-2-1.45-.37-1-1.48-.7-2.87,1.9,2,6.2,1.82,4.39,5.87C658.33,546.81,656.41,546.66,654.71,544.92Z"/><path class="cls-90" d="M666.06,501.34h6.29c-3.77,2-1.19,5.47-3,8.19C667.21,506.94,670.2,503.09,666.06,501.34Z"/><path class="cls-91" d="M710.14,505.81c-1.84,1.29-3.25.73-4.4-1,.29-1.36.16-3.51,1.88-3.41C710.05,501.55,709.57,504.15,710.14,505.81Z"/><path class="cls-92" d="M458.54,309.91c0,1.12-4.17,4.65-5.2,4.45a1.18,1.18,0,0,1-1-1.29c0-.94,4.6-4.32,5.49-4C458.27,309.19,458.76,309.36,458.54,309.91Z"/><path class="cls-93" d="M153.32,539.66l0-.89c5.57.15,11.15.26,16.59,1.7l-1.23.11C163.35,543.42,158.33,541.69,153.32,539.66Z"/><path class="cls-94" d="M651.35,509.45c-1.6-1.82-.26-3.91-1.26-5.66-.43-.77.61-1.87,1.5-2.37.45-.25,1.13-.08,1.7-.11-.09.95.15,2.12-.33,2.79C651.82,505.67,653.61,507.92,651.35,509.45Z"/><path class="cls-95" d="M689.46,504.76c.86-.05.86-.78,1.08-1.33l1.69-.13c0,2.51,0,5,0,7.53C690,509.41,688.43,507.65,689.46,504.76Z"/><path class="cls-96" d="M149.52,595.19c1.17-.21,1.28-1.09,1.3-2l1.7,2.08a13.83,13.83,0,0,1-5.39,5.31l-.92-.86,1.53-2.07C147.65,596.31,147.77,595.16,149.52,595.19Z"/><path class="cls-97" d="M150.22,272.34c-.1,1.15-.56,2.1-1.81,2.11s-2.09-.52-2-1.83a2.48,2.48,0,0,1,2.14-2.46C150,270,149.81,271.5,150.22,272.34Z"/><path class="cls-98" d="M645.25,591.41l.9.89-14.44.13C636.08,590.27,640.77,592.23,645.25,591.41Z"/><path class="cls-99" d="M262.91,586.79a2.11,2.11,0,0,1-2.11,2.05c-.92,0-2.29.52-2.52-.91-.19-1.24.86-1.74,2-1.82S262.27,585.91,262.91,586.79Z"/><path class="cls-100" d="M78.71,614.92c.36-.48.44-.69.52-.69,2.06,0,4,.24,5.55,1.83.13.13-.15,1-.37,1.05C81.84,617.89,80.76,615.48,78.71,614.92Z"/><path class="cls-101" d="M720.14,509.31a5.44,5.44,0,0,1,0-5.69c1.46,2,.35,4.26,1.73,5.69Z"/><path class="cls-102" d="M666,542.39c-.49-1.92-3.38-1.39-3.66-3.52l3.13-.86c.22,1.1.44,2.21.67,3.31C666.08,541.67,666,542,666,542.39Z"/><path class="cls-102" d="M666,585.27c-.49-1.91-3.38-1.39-3.66-3.52l3.13-.86c.22,1.11.44,2.21.67,3.31C666.08,584.56,666,584.92,666,585.27Z"/><path class="cls-102" d="M666,571c-.48-1.94-3.4-1.4-3.67-3.54l3.15-.87c.22,1.1.44,2.2.67,3.31Z"/><path class="cls-102" d="M666,556.69c-.49-1.92-3.38-1.39-3.66-3.52l3.13-.87c.22,1.11.44,2.21.67,3.31C666.08,556,666,556.33,666,556.69Z"/><path class="cls-7" d="M314.67,468.27c-.77-.37-.85-1.11-1-1.82,0-1.79,0-3.58,0-5.37a1,1,0,0,1,.32-1.36,3.89,3.89,0,0,1,2.11-.68c7.38.28,7.08-.66,7.59-7.91s1.2-14.8,1.26-22.23c0-2.81-.11-5.7,2-8a1.16,1.16,0,0,1,1.46.2c1.74,3.39,1.1,7,.71,10.49-.76,6.94-.89,13.92-1.38,20.87-.5,7.21-.14,6.9,6.95,7.35,20.81,1.34,41.63.58,62.45.86,5.14.08,5.2,0,5.24-5.19,0-3.86-.11-7.73,0-11.59.17-4.41-.09-8.62-3.34-12.08a5.16,5.16,0,0,1-.84-1.57c-2.53-6.14-2.53-6.29-9.19-6.16-16.48.33-32.92-1.5-49.41-1-1.89.06-4,.24-5.36-1.59.17-1.76,1.76-1.78,2.92-2.35a10.29,10.29,0,0,1,4-.42c14,1.71,28.19-.06,42.22,1.56.75.09,1.5.12,2.25.15,6.81.26,6.47.34,4.9-6.06-1.24-5-2.15-10.16-3.4-15.2a31.16,31.16,0,0,0-3.35-8.25c-2-3.43-5.17-5.48-9.29-5.21a16.19,16.19,0,0,1-9.53-1.83,8,8,0,0,0-3.91-.95c-15.14-.2-30.23-1.29-45.32-2.35-2.32-.17-3.41.71-3.45,2.94-.07,3.87-1,7.66-1,11.55,0,1.8.33,4-2.32,4.68a2.48,2.48,0,0,1-1.7-2.83c.69-8.27,1-16.59,2.21-24.82.19-1.28.53-2.67,2-3.23a2.88,2.88,0,0,1,1.5,3c-.25,4.11,2.1,4.6,5.59,5,14.32,1.49,28.75,1.11,43.05,2.62,5.61.6,11.08,2.23,16.72,3,3.08.39,4.46-.05,4.58-3.38.24-6.68.76-13.35.62-20.05-.07-3.57.06-7.09-1.94-10.36-1-1.58-1.3-3.49,1.55-3.85a14.37,14.37,0,0,1,4.83,12.28c-.22,2.64.2,5.33-.1,8-.53,4.73.27,8.42,5.84,9.29,1.78.54,3.82-.49,5.48.87-2.25,2.15-5.09,1.27-7.68,1.32s-3.83.76-4.31,3.69c-.78,4.69.33,8.84,2.22,12.9A39.14,39.14,0,0,1,393.63,408c.16,3.57,1.85,4.38,5.08,4.52,10.63.44,21.18-1.17,31.79-1,1.85,0,4.41-1,4.84,2.24,1,1,2.15,1.83,1.81,3.47a1.52,1.52,0,0,1-1.43.17c-3.08-2.28-6.44-2.55-10.21-2-8,1.12-16.16.25-24.24.52-1.41,0-3.44-.74-4.09.83s1,3.06,2.18,4.05c2.33,1.93,3.9,4,3.4,7.21a2.4,2.4,0,0,0,.69,2.07c4.09,3.7,3.53,8.57,3.44,13.29-.18,8.6.48,17.21-.37,25.8l.9,1.69c-.61,1.1-1.07,2.44-2.81,1.74a2.27,2.27,0,0,1-.53-.72c-2.28-6.74-2.31-6.31-9.84-6.88-17.22-1.31-34.46-.27-51.66-1-6.86-.27-13.78-.4-20.62-1.27a8.57,8.57,0,0,0-1.34-.13c-1.45.05-3.46-.3-3.47,1.77,0,1.78,2,1.57,3.2,1.54,6.91-.21,13.72,1.2,20.64,1s7.53.61,7.41,7.26c-.11,5.79.27,11.59-.35,17.37-.2,1.81.28,3.53,2,4.07,4.12,1.28,7.63,4.22,12.19,4.3a10.09,10.09,0,0,1,8.3,4.6c.13,2.25-1.25,2.77-2.81,1.78-5.52-3.48-12.26-3.39-18-6.42-3.64-1.92-5.61-4-5.78-8-.22-5.37.58-10.66.84-16,.23-4.76-.54-5.61-5.31-5.46-6.91.23-13.73-.79-20.6-1A6.1,6.1,0,0,1,314.67,468.27Z"/><path class="cls-103" d="M313.74,460.12c0,.32,0,.64,0,1-18.85-1.59-37.68-3.22-56.41-5.91-2.2-.32-4.46-.23-6.69-.33l-1.94-.77c-12.59-1.26-24.94-4-37.44-5.84-4.55-.67-9.08-1.45-13.62-2.17a2.2,2.2,0,0,1-1.11-2l.68-.31a14.09,14.09,0,0,1,2.25,0c16.78,2.49,33.41,5.89,50.24,8,.79,0,1.57.06,2.36.15,18.82,2.51,37.66,4.84,56.62,6.08C310.59,458.12,312.65,458,313.74,460.12Z"/><path class="cls-1" d="M398.54,223.44q-87,0-173.9.11c-4.63,0-5.7-1.22-5.69-5.7q.24-89.55,0-179.1c0-4.46,1-5.72,5.68-5.71q173.9.21,347.79,0c4.37,0,5.47,1.2,5.46,5.46q-.21,89.78,0,179.55c0,4.25-1.06,5.48-5.45,5.47Q485.49,223.32,398.54,223.44Z"/><path class="cls-3" d="M111,352.81c.46-6.72,1.49-13,6.28-18.55,3.74-4.33,4.84-10.37,7-15.67,2.36-5.67,4.32-11.51,6.45-17.27,4.64-1,7.59.84,8.36,5.21.8,4.56,2.22,5.67,6.89,5.28,1.67-.14,3.35-.27,4.84.57,4.65,2.62,9.58,2.53,14.72,2.1,8.8-.74,17.17,1.87,25.58,3.94a3.91,3.91,0,0,1,2.67,2.81c1.21,2,3,3.83.92,6.27a34.06,34.06,0,0,1-6.32,9.05c-1.58,1.63-3.55,3.55-.91,6a1.83,1.83,0,0,1,.39,2.07c-3.7,8-4.3,16.86-6.7,25.23a2.88,2.88,0,0,1-1,1.45c-4.16,1.56-8-.54-11.78-1.4-18.07-4-35.81-9.33-53.57-14.5C113.33,355,111.65,354.64,111,352.81Z"/><path class="cls-3" d="M133.56,299.27c-1.26-.89-1.61-1.32-1.59-3.52.07-6.25,1.87-12.59.05-18.83-.45-1.54-.58-3.22.6-4.17,1.56-1.27,2,1,3.07,1.51,2.17.93,4.29,2,6.51,2.83,4.6,1.68,5.87,3.76,5.08,8.58a10.53,10.53,0,0,0-.05,3.07,1.17,1.17,0,0,0,2.34,0c.19-4.55,4.31-7.86,3.8-12.75-.26-2.54.65-5.2-2.27-8.29l38.37,9.79a69.35,69.35,0,0,0,7.79,2c2.65.36,3.11,1.78,2.84,4l-5.37,24.48c-.38,2.31-1.17,4.56-1.31,6.91-.26,4.12-.62,4.63-4.78,3.52-8.83-2.37-17.63-3.84-26.9-3.16-3.53.26-7.74.08-11.13-2.51-1.57-1.2-3.72-.45-5.66-.2-3.32.44-5.9-1.33-5.94-4.43s-.73-5.17-3.75-6.32A2.79,2.79,0,0,1,133.56,299.27Z"/><path class="cls-104" d="M180.34,370.84c2.43-8.56,3.12-17.57,6.73-25.83.21-.49.41-1.37.16-1.63-3.73-3.86-.15-5.94,1.94-8.48,2-2.39,3.73-4.93,5.59-7.4-.42,3.62-2.82,6.1-5.09,8.65-1.7,1.9-4.48,3.63-.87,6.34.73.55.4,1.61-.07,2.47-4,7.33-4,15.73-6.49,23.47-.84,2.62,1,3.48,3,3.89,12.56,2.51,25.13,5,37.71,7.42,5.26,1,10.57,1.78,15.86,2.66l1,.05c2.19,2.77.62,5.75.23,8.54-.48,3.32.73,4.54,3.87,5,19.81,2.82,39.65,5.4,59.59,7.17,2.47.22,3.67-1.74,5.67-2.1,3.51,3.58,8.14,3,12.54,3.38,2.38.21,5.2-.86,6.8,2a1.76,1.76,0,0,1-.56,1.41c-3.37,1.62-6.8.18-10.14,0-19.66-1.21-39.27-3.08-58.73-6.15-1-.11-2.07-.1-3.09-.21-4.88-.81-9.8-1.37-14.66-2.32s-5.72-2-5.31-6.92c.64-7.57.62-7.49-7.1-8.82-5.91-1-11.79-2.21-17.7-3.25-1.21-.21-2.36-.64-3.57-.85-9.3-2-18.75-3.33-27.88-6.14C178.64,372.07,179.51,371.46,180.34,370.84Z"/><path class="cls-105" d="M133.56,299.27c3.28,2.55,7.47,4.35,6.42,9.91-.28,1.49,1.93,2.95,3.59,2.58,5.89-1.3,10.84,2.46,16.41,2.68a16.74,16.74,0,0,0,2.22.18c9.06-1,17.83.46,26.47,3,2.67.8,4.67,1,4.34-3a12.45,12.45,0,0,1,1.72-6.79q-.45,6.65-.89,13.3c-6.09-3.34-12.91-4.22-19.59-5.24-6.52-1-13.2.48-19.79-.48-3-.43-5.11-4-8.58-2.47-2.54,1.14-4.24-.17-6.15-1.39a3.63,3.63,0,0,1-1.68-3.34c-.26-5.12-1.53-6.28-7.27-7C131.28,300.07,132.6,299.91,133.56,299.27Z"/><path class="cls-4" d="M314.67,468.27c9.4.34,18.8.72,28.2,1,2.55.08,3.38,1.24,3.26,3.63-.35,6.51-.57,13-.9,19.53-.19,3.82,1.69,5.9,5.41,6.11,3.1.19,4.63,3.19,7.73,3.58,3.61.45,7.7.06,10.3,3.76.62.88,1.55-.18,2.08-.91,3.49-.34,11,.71,13,1.8,1.06,1,2.15,2.5,3.76,1.2,2.33-1.9,5.14-.95,7.64-1.64,6.11-1.71,10.08,4.14,15.7,4.23,1.28,0,1,1.64,1,2.61a75.86,75.86,0,0,1,0,9.77c-.71,6.33,1.79,11.72,4.68,17,1.66,3,2.15,5.77.64,8.84-2.06,4.19.11,9.47-3.45,13.28-2.88.09-5.78,3.71-8.78-.32-.47-.63-4.14-.33-3.46,2.67a13.4,13.4,0,0,1,.42,4.74c-5.37,5-11,9.31-19.9,6.14,2,3.21,1.32,4.12-1.66,5.27-2.15.82-3.28,4.31-4.84,6.63-4.52,6.69-6.71,13.61-2.55,21.38.51,1,1.3,2.63.15,3.72-1.44,1.38-2.37-.47-3.46-1-2.75-1.25-5.78-1-8.65-2-5.73-1.92-9.34-5.73-12.05-10.76,2-7.23-4.25-11.07-7.3-16-1.92-3.12-4.46-6.23-5.23-9.54-1.38-6-5.83-9.21-9.78-12.72-5.6-5-14.85-2.57-18.74,4-1.53,2.6-3.19,5.8-7,1.85-1.69-1.76-4.35-2.48-6.49-3.86-5.2-3.34-5.32-9-6.69-13.92-.89-3.23-2.22-5.38-5.52-6.17-3.67-5.85-9.47-10.05-13-16.63,4.5.3,8.73.47,12.94.88,7.87.76,15.73,1.68,23.59,2.49,2.36.25,4.21.37,4.46-3.12,1.29-17.56,2.89-35.09,4.36-52.64C314.68,471.55,314.63,469.91,314.67,468.27Z"/><path class="cls-106" d="M383.73,506.76c-4.34-.52-9,.93-13-1.8-4-3.06-8.77-3.69-13.52-4.65-2.89-.59-5.18-2.87-8.34-3.39-1.68-.28-3.08-2.29-2.55-4.63,1.63-7.18.08-14.51,1-21.73.33-2.75-1.75-2.4-3.27-2.3-8.4.53-16.7-1.26-25.09-1-1.88.07-4.3.36-4-2.68.21-2.59,1.59-3.86,4.48-3.53,21.61,2.46,43.33,1.48,65,2,5.49.12,11,.76,16.54.69,2.82,0,3.54,1.59,3.82,3.89.2,1.71-.65,3.61.89,5.08,2.39,2.58,4.07,5.3,1.85,8.83-.4,7.8.64,15.64-.87,23.41-.39,2-1.14,3.67-2.9,1.78-3.23-3.47-6.81-1.91-10.34-1.51C390.14,505.57,386.94,506.23,383.73,506.76Z"/><path class="cls-2" d="M406.52,469.16c-1.36-1.17-.85-2.75-.86-4.18q-.07-13.59,0-27.19c0-2.12-.15-3.84-2.13-5.42s-3.83-3.5-1.84-6.43c.72-1.05.23-1.91-1-2.41a4.77,4.77,0,0,1-2.21-1.39c-1.42-2.2-4.5-4.4-3.71-6.64.69-2,4.29-.66,6.6-.77,8.95-.39,17.95.56,26.89-.91,3.43-.56,6.62,0,8.17,3.76a3.39,3.39,0,0,1,.94,2.27,9.67,9.67,0,0,0,5.23,8.28,10.23,10.23,0,0,1,1,.73c2.6,2.14,2.81,6.53,7.15,7.19,1.07.16,1,2,.87,3.2-.19,2.2-2.27,4.31.16,6.61a19.1,19.1,0,0,0,5.66,3.52,5.41,5.41,0,0,1,1,.71c2,2.75,2.14,5.94,2.2,9.15,2.61,2.5,4.42,5-.09,7.42-1.28.7-.73,2-1,3.09-.72,2.69-1.47,5.77-5.6,4.3,2-5.83,1-6.89-5.26-6a18.47,18.47,0,0,1-2.24.11Z"/><path class="cls-3" d="M436.31,419.74l.06-2.16a2.24,2.24,0,0,0,.78-.33c1.2-1.56,1.75-3.43,3.08-5,1.51-1.84,3.63-4.55,1.14-7.58-1.35-1.64.06-2.07,1.53-2.6,4.81-1.77,6.93-4.92,6.83-8.7-.07-2.8-3.61-3.14-3.55-6.07L470.52,386c3.1,2.6,4.11,6.1,4.4,9.93.86,9.43,2.27,18.86,2.34,28.3,0,4.3,2.26,8.63.39,12.83-2.14,4.82-4.41,9.54-4.11,15a1.48,1.48,0,0,1-1.37,1.5c-2.69.54-2.34,2.53-1.83,5.33-3.63-3.48-6-.55-8.62.27-1.59-.9-1-2.56-1.44-3.86-.59-1.72-.2-4-2.34-5h0c-1.22-.86-2.66-1.31-3.9-2.11-2.89-1.87-5.19-3.81-3.06-7.85,1.27-2.42,1.31-5-2.67-5.27a2.53,2.53,0,0,1-2.46-2.2c-.31-2-1.88-2.9-3.24-4h0C438.79,427,437.75,423.23,436.31,419.74Z"/><path class="cls-2" d="M407.47,481.52c.75-3.22-1.54-5.82-1.85-8.83a1.7,1.7,0,0,1,1.8-1.84q20.82-.84,41.64-1.7c3-.13,5.34-.15,2.56,3.79-1.8,2.55.52,2.63,2.19,2.47,3.12-.31,3.58,1.41,2.1,3.3-3.21,4.11-3,9.35-5.05,13.89-1.57,3.54-4.29,6.34-5.48,10.23-1,3.27-2.47,5.92-1.11,9.44.73,1.89-.17,3.35-2.74,3.33-8.07-.07-16.1,1.34-24.19.82-1.41-.09-3.06.48-3.7-1.58-.81-2.58-.38-6-4.74-6.2-.93,0-.57-2.12-.57-3.27,0-6.39,0-12.78,0-19.17C408.28,484.62,408.78,482.9,407.47,481.52Z"/><path class="cls-2" d="M503.78,485.29q3.66,12.56,7.31,25.11a22.47,22.47,0,0,0,2.66,6.56c.73,1.07,1.76,2.73,1.39,3.61-2,4.93.43,9.58.57,14.34,0,1.61-.26,2.05-1.74,2.22-4.59.49-9.15,1.12-13.74,1.62-3.55.38-7.14.53-10.68,1-3,.36-3.54,1.91-1.64,4.22.66.81,1.5,1.51,1.47,2.66s.43,2.62-1,3.12c-1.19.41-1.87-.75-2.34-1.63-.68-1.24-1.59-2.66-2.95-2.3-1.52.4-1.33,2.37-1.81,3.69-2.76-2.3-1.47-5.57-2-8.38-2.21-12.34-2.07-24.74-.89-37.18a63.11,63.11,0,0,0,.12-11.58c-.36-4.13,1.76-5.08,5.22-5.33C490.43,486.53,497.1,485.87,503.78,485.29Z"/><path class="cls-4" d="M603.05,465.57c-.56,2.44,3.61,3.18,2.23,5.73-1.18,2.19-4,1.48-5.88,2.6-3.6,2.1-6.71,4.91-7.75,8.71a5.58,5.58,0,0,1-4,4.3,4.15,4.15,0,0,1-4.52-.83c-1.85-1.49-4.09-2.57-5.75-4.23-4.46-4.46-9.68-5.18-15.51-3.72-.94.23-1.85,1-2.92,0-7.32-6.21-14.95-2.27-22.09.05-4.7,1.53-9.2,3.32-14.19,3.41-1.23,0-2.53.13-2.42-1.71,2.89-4.89,8.84-5.92,12.53-9.79.77-3.54,3.94-4.61,6.56-6.19,1.13-.68,2.74-.76,3.27-2.14,1.87-4.84,5.9-5.47,10.43-5.95,16.37-1.71,32.29-5.92,48.45-8.81,1.8-.32,3.54-.73,5.09.65.81,1.94.78,3.29-1.69,4.24-2.11.82-3.9,2.46-6.27,4,2.65,1.36,4.64.06,6.68-.16,1.26-.14,2.84-.57,3.71.72s-.42,2.4-.72,3.61C607.53,463.05,603.77,462.85,603.05,465.57Z"/><path class="cls-2" d="M469.75,551.34c-4.26.51-6.36-.83-6.34-5.09,0-3.72-1.64-4.13-4.64-4-4,.22-8.06.05-12.07.86-3.37.68-5.13-.43-4.19-4.37a18.4,18.4,0,0,1,3.54-7.46c2.29-2.85,2.95-6,.92-9-1.29-1.94-.27-3.74-.57-5.58-1.17-7.25.8-13.36,4.16-20.22,3.61-7.36,8.17-7.8,14.47-7.73a43,43,0,0,0,6.65-.8c3.66-.53,5.37.39,5.28,4.66-.12,5.65-.81,11.24-1,16.87A196.28,196.28,0,0,0,478,547.15c.42,2.65-.09,3.37-2.73,2.61-2.13-.61-4.15-.33-5.62,1.6Z"/><path class="cls-2" d="M532.66,469.08c-5.7,3.27-11.69,6-14.92,12.48-1,1.93-4.88,1.51-7.48,1.76q-24.27,2.32-48.55,4.4c-2,.17-4.94,1.17-5.81-.62s-.52-4.18,1.17-6.45a28.1,28.1,0,0,0,4.14-9.76c.6-2.36,1.74-2.6,3.72-2.73,3.12-.22,6.74.13,9.26-1,10.72-4.87,22.31-2.66,33.32-4.87,4.79-1,9.8-.83,14.71-1.17,1.19-.08,2.43.12,3.36-.88s2-1.09,3.21-1.26a13.89,13.89,0,0,0,1.41-.25c3-.88,6.18-.59,9.24-1.27,1.8-.39,4.56-.8,5,1.4s-1.52,4.34-3.77,5.24C537.7,465.29,534.82,466.57,532.66,469.08Z"/><path class="cls-4" d="M517.3,391.34c8,3.87,15.21,3.06,21.41-3.67a37.57,37.57,0,0,1,4-3.37c2.8,1.35,2.09,4.14,2.55,6.38.69,3.43,1.07,6.92,1.58,10.39,1.7,4.18.48,8.41.13,12.6a5.7,5.7,0,0,1-2.7,4.42c-4.89,2.91-6.83,8.08-9.94,12.36-1.36,2.67-3.23,3.44-5.33.93-2.84-3.4-5.43,1-8.37,0-2.54-.8-5.1-1.54-7.62-2.33-7.54-2.38-6.22-8.35-6.92-13.61-.83-6.29-1.47-12.6-2.31-18.89-.35-2.64.76-4,3.29-4.16C510.52,392.18,513.83,391,517.3,391.34Z"/><path class="cls-4" d="M515.74,359.38c2.88-.36,3.82,1.45,4.57,3.77,1,3.19,1.38,6.63,3.3,9.52,0,.74.25,1.87-.12,2.16-4.39,3.36-4.8,8.7-6.9,13.19a8.89,8.89,0,0,1-1.05,1.43c-2.16,1.7-5,1.56-7.31,1.62-7.79.22-15.45,1.75-23.22,2-.82-1.67,0-3.19.51-4.71a25.61,25.61,0,0,0,.31-14.79c-3.29-6.1-1.5-12.43-.52-18.6.17-1.07.19-6.27,4.92-2.92,2,1.44,2.84-2.12,2.5-3.24-1.13-3.76,4.16-5.59,2.52-9.36-.15-.35,1.2-.85,1.91-.62,3.94,1.26,7.94,2.37,11.72,4,2.1.9,4,9.86,2.67,12.3-.92,1.63-1.22,3.59-2.84,4.92-2,1.63-1.87,3.71,0,5.33,2.36,2.05,3.43-.37,4.54-1.74A33.29,33.29,0,0,0,515.74,359.38Z"/><path class="cls-3" d="M529.68,460.12l-.2,0c-1.89-.35-3.26-1-1.41-3a56.28,56.28,0,0,0,5.57-6.77c1.16-1.1,2-2.51,3.62-3.13l2.56-.17c6.39,2.26,11.43-.9,15.78-4.67,2.34-2,2-6.05,3.43-9,1.31-2.66,2-5.06,5.54-6.64,3.13-1.37,5.69-5.5,7.12-9.27,1-2.61,2.18-4.23,5.2-3.13,1.57.57,2.81-.95,4.33-.54.52.89.85,2.33,1.59,2.58,4.18,1.41,4.73,3.75,2.66,7.39-.75,1.3.47,2.13,1.78,2.42,1.73.39,3.47.7,5.19,1.14a8.26,8.26,0,0,1,4.49,13.17c-.38.48-1,.85-.55,1.37a3.8,3.8,0,0,0,3.16,1.4c2.46-.17,4.86-.35,6,2.52-2.48,2.89-6.23,2.39-9.36,3-15,2.93-29.89,6.38-45.08,8.11-5.91.67-11.82,1.51-17.77,1.92A5,5,0,0,0,529.68,460.12Z"/><path class="cls-2" d="M537.26,447.17c0,1.64-1.5,2.22-2.41,3.22-2.79,1.72-4.16,4.81-6.67,6.81-1.33,1.05-2.36,2.73-4.5,2.05-7.87,1.84-16,2-24,2.49-7.46.48-14.86,1.34-22.26,2.12-3,.31-5.36,2.83-9,2.71-5.21-.17-3.29-3.85-3.51-6-.33-3.22,2-1.75,3.65-1.41s2.47.1,3.21-2.19c.94-2.9,3.62-5.25,4.69-8.4.32-.94,1.83-1,2.87-.85,4.66.56,9-2.69,12.61-2.72,6.08,0,6.39-4.19,8.58-7.05,1.54-2,2.79-4,5.41-4.76,1.26-.36,2.58-1,1.73-2.9-.39-.87-.25-1.79.95-2.05a2.36,2.36,0,0,1,2.48.63c3.51,4.34,8.24,4.55,13.13,3.62,3.81-.72,5.7.67,6,4.35s3.82,5.08,5.48,7.8C536.33,445.45,537.32,446,537.26,447.17Z"/><path class="cls-2" d="M505.88,426.69c-.28,3.1.33,6-4.55,6.74-1.76.25-3.16,4.3-4.36,6.78-.91,1.89-1.06,3.53-4,2-2-1.07-3.05,2.12-5,2.91-3.5,1.4-7,.57-10.48,1.1-2.61.4-1.69-2.41-1-3.48a43.23,43.23,0,0,0,3-5.43c.79-1.76,1.26-3.44,0-5-1.75-2.22-.21-4.59-.49-6.89-1-8.21-1.41-16.49-2.15-24.73-.23-2.45.66-3.56,3-4.57,6.38-2.79,13.18-2.08,19.79-2.89a1.94,1.94,0,0,1,2.49,1.85C503.3,405.6,504.6,416.15,505.88,426.69Z"/><path class="cls-107" d="M581.22,413.76c-1.52,1.86-3,3.38-5.55,1.23-1-.86-2-.49-2.15,1-.47,5-6.1,7.13-6.9,12a.91.91,0,0,1-.63.59c-7.69-.06-4.74,7.71-8.09,10.9-1,1,.71,3.72-1.31,4.32-3.2,1-5.16,4.16-8.69,4.33-2.77.13-5.92,3.13-8.08-1.1.34-2.36-1.92-2.65-3.08-3.83a32.62,32.62,0,0,1-4.06-4.6c-1.09-1.68-2.88-3.74.83-4.95,1.2-.39,1-2,.86-3.17-.44-2.79-.39-5.31,3.28-5.82-.45-5.87,7.2-5.66,8-10.28.75-4.24.63-8.63.91-13,0-.11.19-.22.3-.32l2.08,2c.94,6,3.77,9.37,10.47,7.29.36-.11.8.33,1.11.65.17,1.26-.3,2.68,1,3.65,3.59-.41,5.88-4.33,9.9-3.59,2.44-1.83,4.9-1.16,7.37-.05,1.47-.12,2,.87,2.38,2A1.91,1.91,0,0,0,581.22,413.76Z"/><path class="cls-1" d="M474.14,342.33c5.3-2.44,10.54-5,15.92-7.25,2.12-.89,4,.57,5.68,1.84-2.9,3.58-4.09,7.81-4.88,12.25-.94-.14-.2-2.77-1.49-1.75-1.54,1.22-3.8,2.11-4.35,4.17-2.14,8-5.11,16.08.77,23.83,3.11,6.5,1.43,12.24-2.81,17.58-2.2,1.19-4,3.71-7.06,1.92a34.62,34.62,0,0,1-5.58-24.67c.34-2.52-.69-5.48,1.87-7.48,1-4.62,1.64-9.32,4.06-13.6,1-1.75-.46-2.25-2.11-1.52-1.61,0-1.51-.82-1-1.9Z"/><path class="cls-108" d="M529.68,460.12c.52-2,2.2-1.63,3.64-1.79a619.39,619.39,0,0,0,68.87-11.47,31.11,31.11,0,0,0,3.34-1.11l.88.55c.05.46.09.92.14,1.39-10.52,1.13-20.75,3.83-31.12,5.76-8.92,1.67-17.82,3.4-26.88,4.11-.73.06-2,.12-2.09.44-2,6.9-9.68,7.51-13.71,12.13l-.09-1.05c.3-3.76,4.21-3.26,6.18-5.06.48-.44,1.68-.16,2.08-.62,1.13-1.29,3.35-2.53,2.84-4.14-.55-1.77-2.9-.84-4.41-.68C536.11,458.92,532.9,459.58,529.68,460.12Z"/><path class="cls-109" d="M472.21,362.77c-2.08,11.09-1.14,21.84,3.71,32.15l-1,1-4.4-9.93a1.83,1.83,0,0,0,.81-2c-3.44-4-3.5-8.75-2.59-13.43.52-2.64-.85-6.1,2.59-7.84A6.43,6.43,0,0,1,472.21,362.77Z"/><path class="cls-24" d="M483,393c2.9-5.55,4.83-11.25,2.81-17.58,0-.63,0-1.26,0-1.89,3.31,4.32,2.33,9,1.19,13.71-.49,2-1.33,3.87-2,5.8Z"/><path class="cls-108" d="M523.68,459.25c3.33-1.32,5.64-3.86,7.71-6.59.94-1.23,1.62-2.51,3.45-2.27-1.91,2.42-3.57,5.12-5.83,7.18-1.74,1.59.2,1.72.46,2.51l-3.89.15C524.82,460.15,524.06,460.06,523.68,459.25Z"/><path class="cls-10" d="M457.94,450.3c2.79.22,2.34,2.56,2.8,4.27.41,1.51.66,3.06,1,4.59l-1.13.08C458.58,456.59,459.48,453.09,457.94,450.3Z"/><path class="cls-106" d="M309.2,401.22c-.94,3.33-3,3.71-6.31,3.24-9.57-1.36-19.24-2.08-28.84-3.26-11.23-1.37-22.42-3-33.64-4.41-2.45-.31-2.39-1.5-2.07-3.37.61-3.64,1-7.31,1.47-11,2.22-8.89,3.22-18,4.45-27,.32-2.34.79-4.62,1.22-6.91.9-4.87,3.7-4.89,7.5-4.18,10.53,2,21.2,3,31.82,4.27,8.28,1,16.54,2,24.86,2.59,3.93.25,1,4.28,3.23,5.4,2,4.33,2,8.5-1,12.45-2.76,6.66-2.09,13.8-2.51,20.71-.19,3.17-2.62,6.5-.13,9.72A1.25,1.25,0,0,1,309.2,401.22Z"/><path class="cls-3" d="M393.8,374.33c-7.35-.13-7.35-.13-7.35-7.27,0-3.11,0-6.21,0-9.32,0-3.75.88-7.74-2.92-10.55-.46-.35-.22-1.63-.3-2.48-.08-.43.1-.6.53-.53,3.54-2.37,1.51-5.63.87-8.24a47.62,47.62,0,0,1-1.38-7.76c-.37-5-.28-9.91-2.33-14.72-1.62-3.82-.22-8.15-.52-12.25,4.35,0,8.72-.19,13,.09,3.27.22,5.54-.29,5.32-4.21.61.24,1.08.35,1.08.43-.34,7.68,6.59,9.52,10.94,9.24,5.2-.32,9.06-.52,12.28,3.76,3-1.87,4.52.7,6.59,1.91a3.65,3.65,0,0,0,3,.28c4.12-2.35,8.39-.19,12.55-.67.25.66.71,1.44-.35,1.77-8.43,2.65-12.66,10.22-18.72,15.64-2.41,5.12-2.59,11.23-7,15.46,2.5,3.44.65,7.29,1,10.92.15,1.48.72,2.87,1.92,3.33,4.59,1.73,7.22,6,11.36,8.26a3.49,3.49,0,0,1,2,4.05c-.38,2.07-2.13,1.79-3.57,1.81-11.08.15-22.17.25-33.25.4C397,373.71,395.29,373.33,393.8,374.33Z"/><path class="cls-2" d="M383.77,344.18a6.62,6.62,0,0,0-.53.53c-2.36,1.09-1.6,2.74-.34,3.88,2.06,1.85,2.09,4.09,2,6.51-.16,8.4-.12,16.81-.49,25.2-.11,2.63-.28,6-5.05,3.6a12.25,12.25,0,0,0-8.25-.9,3.11,3.11,0,0,1-1.74.12c-9.88-4.58-20.45-2.85-30.77-3.42-8.05-.45-16.07-1.22-24.12-1.72-1.91-.12-2.71-.82-2.65-2.69.08-2.08.05-4.17.06-6.25,1-4.1.89-8.28,1-12.45,1.42-4.85.84-9.91,1.62-14.84.28-1.81.47-2.42,2.58-2.33,18.2.78,36.42,1.3,54.62,2.1,3.26.15,6.5.87,9.8.77C382.8,342.25,384,342.42,383.77,344.18Z"/><path class="cls-2" d="M373.43,340.55q-28-1.4-56-2.78c-1.43-.07-2.88-.12-2.69-2.07,1.13-11.63,2.35-23.24,3.42-34.87.22-2.44,1.72-2.43,3.43-2.35q27.33,1.33,54.66,2.69c2.91.15,3.43,2,2.8,4.37-.55,2.07-1,4.38-.18,6.15,3.08,6.86,2.36,14.23,3.36,21.36,1.09,7.79,1,8,.18,7.84C379.43,340.15,376.42,340.67,373.43,340.55Z"/><path class="cls-110" d="M182.92,467.7c1.5,4,3,8,4.49,12.07a2.53,2.53,0,0,1,.16,1.22c-4.52,1.57-3.69,6.76-6.44,9.35-2.07,1.94-2.35,4.41-1.4,6,2.57,4.31-.09,4-2.92,4-6.52-1.71-13.24-2.07-19.9-2.69-4-.37-6.23-1.44-5.44-5.87a7.76,7.76,0,0,0-1.48-5.92c-3.65-5.15-7.31-10.31-13.17-13.32a2.6,2.6,0,0,1-1.08-.78c-3.13-5.4-8.22-7.77-14-9.13a1.56,1.56,0,0,1-1.17-2.41c2.79-4.2.33-8.11-1.07-11.69-1.5-3.83-3.09-7.7-4.89-11.43-1.13-2.35-1.4-4.34.34-6.59,1.6-2.07,1.26-3.91-1.27-5.44s-3.29-8.27-.84-10.07c1.75-1.29,1.66-2.63,1.7-4.17.06-2.11-.62-3-2.52-1.18-2.42,2.3-2.84.05-2.76-1.47a11.45,11.45,0,0,0-2-7.15c-2.68-4.05-2.49-8.45-1.35-12.77a13.08,13.08,0,0,0-1.24-10.67c-1.24-2-1.39-3.93.35-5.66,4.75-4.73,6.16-10.6,6.12-17l-.12-.15c1.66-1.17,3.18-.06,4.69.33,10.83,2.82,21.41,6.53,32.33,9,3.69.83,3.34,3.1,2.71,5.74-2.33,9.68-4.93,19.29-7.64,28.86-1.21,4.3-.45,7.56,2,11.15,11.82,17.17,23.24,34.61,35,51.84A15.18,15.18,0,0,1,182.92,467.7Z"/><path class="cls-111" d="M182.92,467.7c-12.08-17.88-23.84-36-36.42-53.53-4.82-6.71-6.1-12.64-3.31-20.4,2.91-8.08,4.51-16.61,6.64-25,.38-1.49,1.17-3.16-1.33-3.83Q129.74,359.93,111,354.8c0-.66,0-1.33,0-2,20.69,6.45,41.54,12.31,62.71,17,2.18.48,4.33,1.24,6.63,1l-.89,1.71c-1.72,1.38-3.47.36-5.14,0-5.69-1.32-11.46-2.34-17.06-4-3.08-.92-4.65-.26-5.46,3.06-2.33,9.53-4.38,19.14-7.37,28.5-1.13,3.54.17,6.31,2.09,9.14q17.44,25.73,34.68,51.58c1.08,1.62,3.05,3.09,1.93,5.53Z"/><path class="cls-112" d="M147.87,277.92a2,2,0,0,0,2.41.09c1.18-.76,1,.36,1.06,1,0,1,.46,2.17-.83,2.64a1.62,1.62,0,0,1-1.48-.47,22.79,22.79,0,0,1-1.12-3.26Z"/><path class="cls-4" d="M435.34,413.78c-1-1.51-2.43-1.14-4-1.11-11.39.18-22.74,1.47-34.15,1.09-3.28-.11-4.81-.21-4.79-4.55.05-7.65-3.49-14.7-6.48-21.65-1.68-3.89,1.47-7.38,0-11.17-.39-1,1.51-1,2.51-1,3.6-.08,7.2-.11,10.8-.15,10.91.53,21.76-1.24,32.68-.8,3.44.13,5.27.66,5,4.62a6,6,0,0,0,3.95,6.3c3.08,1.33,4.47,4.64,6.68,7,1.62,1.74-1,6.84-4,7.83-3.3,1.11-5.65,1.64-3.38,6.35C441.43,408.93,438.88,412.55,435.34,413.78Z"/><path class="cls-4" d="M471.33,362.75a34.9,34.9,0,0,0,0,21.28c-7.05,1.72-14.35.53-21.45,1.85a10.61,10.61,0,0,1-8.78-2.23c-1.5-1.15-2.38-2.27-2.12-4,.29-1.94-.55-3.67-.75-5.44-.83-7.56-6.85-11-12.12-14.2-3.71-2.28-4.64-4.49-4.18-8.13.16-1.31,1.13-3.08.59-3.83-2.81-3.88-.77-5.82,2.46-7.67a2.49,2.49,0,0,0,1-3.16c-1.54-4.12,0-5.75,4.3-6.39,3.23-.47,6.25-3.07,9.49-.12,5.63,5.75,13.42,6.14,20.56,8,3.74,1,6.79,1.23,7,6.56.14,2.88,2.56,5.5-.21,8.5-.58.64-1.81,2.56-.14,3.49s2.8-.31,3.54-1.75c.27-.54.43-1.12,1.16-1.33C471.4,357.22,471.4,360,471.33,362.75Z"/><path class="cls-3" d="M613.72,369.12a5.59,5.59,0,0,0,.12.82c-.74,3.77,1.57,7.23.71,11.27-.54,2.53,3.44,2.69,5.31,1.89,2.8-1.18,6.09-1.51,8.48-3.72a24.33,24.33,0,0,1-11.1,7.45c-3,.92-3.58-1-3.43-3.47-1.23-1.74-3.37-1.69-5.07-2.5-3.37-1.6-7.33-2-9.22-6.21-1-2.15-3.91-2.53-6.43-2q-19.74,3.88-39.47,7.81c-1.33-4.24,3.07-5.37,4.61-8,1.34-2.33,3-4,.15-6.34-1.34-1.12-1.11-2.48.79-3.45a15.3,15.3,0,0,1,9.51-1.85C575,361.87,579.45,359,583,354.6c1.47-1.83.61-4.83-.74-6.9-.85-1.3-1-2.33.15-3,2.05-1.14,2.86-3.12,3.56-5,3.08-8.13,10.9-7.76,17.38-9.77.91-.29,2.09.3,2,1.24-.12,3.2,2.68,5.63,2.1,9-.75,4.27,2.62,7.32,3.75,11.08C613,357.12,612.13,363.28,613.72,369.12Z"/><path class="cls-4" d="M560.54,411a18.46,18.46,0,0,0-2.24.12c-9.39,1.7-9.47,1.63-9.34-8.06-.87-5.39-1.7-10.78-2.61-16.17-.78-4.64,1.67-6.47,6.31-5.55,2.48.5,5.3-.37,7.91-.87,10.69-2.05,21.39-4.08,32-6.4,2.64-.58,4.88,0,5.85,1.93,1.25,2.48,5.52,3.69,3.08,8.07-1.6,2.87-2.1,6.52,1.47,9.33,3.36,2.65,2.41,5.79-1.4,7.86-7.24,3.92-15.34,4.29-23.09,6.09C572.55,408.73,566.53,409.8,560.54,411Z"/><path class="cls-113" d="M611.9,383.42c.15,1.49.21,2.92-.86,4.2a2.2,2.2,0,0,0,.32,3.46c4,3.5,3.18,14.79-1.35,17.45-1.8,1.05-3.69-.26-5.46-.81-2.32-.72-2.76-2.47-2.34-4.59,1-1.05,2.11-2.05,3.08-3.15,2.39-2.69,3-4.94-.65-7.49-2.82-2-2.73-7.26-.74-10.26a1.78,1.78,0,0,1,2.57-.77C608.26,382.17,610.09,382.77,611.9,383.42Z"/><path class="cls-114" d="M581.16,413c-1.26-.12-1.74-1.16-2.38-2-.43-1.35-1.15-2.4,1.39-2.75,5.78-.81,11.49-2.15,17.23-3.27-6,5.56-6.78,11.81-2.62,18.77.27.44.08,1.16.1,1.74a40.35,40.35,0,0,1-4.63-1.26c-2.42-1-2.3-2.11-1.49-3.84,1.25-2.63,1-4.33-2.46-4.32C584,416.08,583.64,412.77,581.16,413Z"/><path class="cls-115" d="M571.41,411.06c-2.75,1.13-5.63,2-7.59,4.51-1.59,2-2,.55-2.31-.92C562.27,411.09,566.84,409.44,571.41,411.06Z"/><path class="cls-3" d="M615.76,368.31c3.32-.69,6.65-1.35,10-2.07,1.49-.33,3.49-1.73,4.17.42s3.49,4.64.17,7c-3.2,2.08-7.62,1.31-10.38,4.68-1.11,1.36-2.85.13-2.93-1.28C616.59,374.12,615,371.34,615.76,368.31Z"/><path class="cls-116" d="M608.1,420.24c1.35,4.23-1.46,5.47-4.74,6.47-.9-2.17-.79-5.4-4.7-4.37-.7.19-1.06-.52-1-1.13.66-4.5-3.82-9.27.7-13.57.79,2.68,1.61,5.34,2.35,8C602.37,421.57,602.36,421.57,608.1,420.24Z"/><path class="cls-117" d="M600.58,408.44c2.38,2.42,3.44,5.71,6.55,7.53.64.38,2,2.07.28,2.77-1.17.48-3.26,1.79-4.07-.69C602.31,414.88,601.49,411.64,600.58,408.44Z"/><path class="cls-118" d="M622.63,325.54c.28,1.19-1.64,2.36,0,3.59a1.45,1.45,0,0,1,.38,2c-4.79,6.75-3.37,14.29-3,21.74,0,1.17.6,2.7-.76,3.69-3.4,1.14-5.08.73-5.92-3.56-1.24-6.36-4.22-12.32-5.52-18.77-.71-3.53-1.09-5.89,3.53-6.32C615.16,327.54,618.69,325.53,622.63,325.54Z"/><path class="cls-114" d="M635.38,352.08c2.66.36,1.9,2.08,1.4,3.61-.63,1.94-.68,3.21,1.91,3.83,3.15.75,3.12,5.65,7.14,5.48-1.33,2.8-5.14-.4-6,2.93-4.14-6.6-9.82-4.47-15.54-2.8-3.09.9-6.32,1.37-9.49,2-.08-.86-.12-1.73-.24-2.59-.52-3.7.41-6.43,4.66-7C624.75,356.06,631.16,357.24,635.38,352.08Z"/><path class="cls-119" d="M645.33,577c.83.46.72.88-.06,1.26l-13.54-.17,1-.93A15,15,0,0,1,645.33,577Z"/><path class="cls-4" d="M149.52,595.19l-1.78,2.43c-2.18,0-3.59,1.38-4.69,2.92a6.7,6.7,0,0,1-4.62,2.93c-.53-1.57,1.14-2,1.44-3,1.47-1.92,1.55-4.31,2.57-6.7a26.19,26.19,0,0,1-7.2-.95c-2.41-.54-4.46-1-4.18-4.22.08-.91-.36-2.79-2.05-2.2-2.19.76-4,.11-4.15-1.83-.22-2.62-2.38-5.08-.33-8s5.44-3.34,8.38-4.54c2.61-1.06,4.47-4.75,2.89-6.8-1.76-2.31-3.73.62-5.67.27-4.11-.16-5.38-3-5.92-6.51,2.24-.65,4.51-3.14,7.17.21.64.81,3.48.87,4.27-1a3,3,0,0,0-1.51-4.09c-3-1.06-2.7-4.45-4.82-6.05-.25-.19,0-1.53.06-1.53,4.44-.1,5.34-4.69,8.51-6.55,5.28-3.1,10.23-2.88,15.43-.31,5.13,0,10.14,1.93,15.33.92,3.89,3.78,3.13,9.07,4.27,13.67,2.17,8.74,3.67,17.65,5.46,26.49.82,4-1.86,6.34-5.94,4.94-1.8-.62-3.46-1.69-5.28-2.23-2.33-.69-5.51-3.19-5.07,2.58.2,2.57-3.21,2.83-5.28,3.7l-.78-2.68a3.62,3.62,0,0,0,0-.87c-.24-1,1.31-1.82.53-2.63-.3-.31-1.46.78-2.39.76a84,84,0,0,1-5.26,6.57C147.1,592.79,149.42,593.76,149.52,595.19Z"/><path class="cls-120" d="M595.49,420.85c-1.56-2.48-1.56-2.48-1.2-6.44C596.61,416.36,595.61,418.71,595.49,420.85Z"/><path class="cls-121" d="M473.16,345.75c.11.75.11,1.56,1,1.9-1,1.43-.65,3.84-3.37,4.41C471,349.61,471.28,347.42,473.16,345.75Z"/><path class="cls-15" d="M646.08,520.06v29.41a7.83,7.83,0,0,0-.83.1,13.54,13.54,0,0,1-12.46,0c-.93-.61-1-1.24-.06-1.9,2.23-1.74,4.87-1.24,7.36-1.21,3.72.06,3.95-2.19,3.95-5s-.25-5-4-5c-2.49,0-5.14.53-7.35-1.23-1.77-4.4-.48-9-.72-13.45-.1-1.92,1.58-1.81,2.92-1.81C638.65,520,642.36,520,646.08,520.06Z"/><path class="cls-122" d="M645.33,577l-12.58.16a6.47,6.47,0,0,1-.11-.87c.34-15-3.22-12.2,12.6-12.17Z"/><path class="cls-123" d="M632.79,549.56h12.46c0,1.33.09,2.65.1,4,0,9.38-.44,9.72-10.14,8.55-1.93-.24-2.56-1-2.52-2.81C632.75,556.05,632.76,552.8,632.79,549.56Z"/><path class="cls-124" d="M632.73,535.28c1.34,0,2.68-.06,4-.06,9.38,0,9.83.57,8.65,10-.24,1.94-1.07,2.53-2.84,2.5-3.28-.06-6.55,0-9.83-.07Z"/><path class="cls-4" d="M183.12,466.32c-7.53-12.68-16.29-24.57-24.37-36.89-4.74-7.23-9.59-14.39-14.48-21.52a7.77,7.77,0,0,1-1.24-7.08q4.35-15.65,8.17-31.42c.66-2.74,1.61-3.22,4.3-2.52,7.93,2.06,16,3.8,23.95,5.66l28.66,5.58a4.7,4.7,0,0,1,1.11,4.57c-3.82,19.82-7.64,39.65-11.6,59.45a3.58,3.58,0,0,1-1.1,1.9v0c-1.27,2.86-1.33,5.95-1.83,9-.36,2.15-.62,4.22-3.88,2.25-2.39-1.44-4.38-.23-4.71,2.62a51.1,51.1,0,0,0-.32,7.52C185.89,469,184.41,467.23,183.12,466.32Z"/><path class="cls-125" d="M717.46,505.6c.08,2.46-1.67,1.84-2.58,2.2-1.3.5-1.36-.75-1.36-1.56s0-2.09,1.25-1.65C715.7,504.9,717.4,504.27,717.46,505.6Z"/><path class="cls-114" d="M278.14,601.29c3.93,1.1,7.12,2.8,9.44,6.45,1.36,2.16,1.52,2.92-.77,3.73-2.5.88-5,1.6-6.77,3.87-1.16,1.45-2.35.36-2.32-1,.11-3.67-3.32-7.44.25-11.07C278.33,602.9,278.1,602,278.14,601.29Z"/><path class="cls-126" d="M629.49,507.94c-1.45.42-1.53-.74-1.55-1.73,0-.8.07-2.09,1.21-1.73.9.28,2.47-.26,2.72,1.45S630.49,507.36,629.49,507.94Z"/><path class="cls-127" d="M657,508a1.35,1.35,0,0,1-1.33-1.42c-.1-.9,0-1.9,1.06-2.11.82-.17,1.23.59,1.3,1.38S658,507.6,657,508Z"/><path class="cls-128" d="M271.4,591.52c1.08.24,2.25.39,2.27,1.65,0,1-1,.84-1.68.93-1.1.14-1.58-.56-1.8-1.47C269.92,591.5,270.83,591.65,271.4,591.52Z"/><path class="cls-17" d="M154.18,584.31a21.24,21.24,0,0,1,1.73-1.93,1.93,1.93,0,0,1,3.07.26c1,1.42-.49,1.44-1.23,2a10.35,10.35,0,0,0-1.72,2.39Z"/><path class="cls-129" d="M230.45,573.93c.94,0,1.29.46,1.26,1.13-.07,1.19-.9,1.42-1.89,1.24-.56-.1-1.38-.21-1.23-1C228.8,574.35,229.83,574.21,230.45,573.93Z"/><path class="cls-3" d="M258.82,400.42c20.31,2.75,40.67,5.11,61.15,6.23,2.68.15,5.33.76,8,1.16a2,2,0,0,1,.51,1.38c-.55,3.89,1.22,8-1.36,11.7-.79,11.72-1.74,23.44-2.25,35.18-.16,3.66-1.41,4.67-4.83,4.19a50.64,50.64,0,0,0-6.29-.14c-5.22-1.61-10.67-1-16-1.65-14.5-1.85-29.06-3.21-43.6-4.8a17.51,17.51,0,0,1-2.61-.66c-2.58-3.39-.42-6.94-.07-10.29,1.33-12.6,3.34-25.13,5.13-37.68C256.85,403.2,257.22,401.55,258.82,400.42Z"/><path class="cls-2" d="M334.33,420.93c1,1,2.21.79,3.39.81l54.36,1c1.92,0,3.8-.18,5.57,1.15,1.27.95,2.84.88,1.5,3.39s1.5,4.59,3,6.34a5.8,5.8,0,0,1,1.68,4.29c0,7.13-.09,14.27,0,21.41,0,2.74-.6,3.32-3.63,3-5.95-.6-12-.32-18-.36-17.52-.1-35,.19-52.55-.91-2-.12-3.58-.22-3.44-2.82.45-8.44.53-16.9,1.38-25.29.4-4,.05-8,.6-12A4.31,4.31,0,0,1,334.33,420.93Z"/><path class="cls-2" d="M309.2,401.22l.09-1.75a86.3,86.3,0,0,0,1.61-16.66c.08-3.17,1.15-4.59,4.21-3.76,5.57,1.51,11.3.82,16.94,1.42,9.64,1,19.42.88,29.14,1.11a9.8,9.8,0,0,1,5.46,1.59,8,8,0,0,0,6.26,1.29c6.28-1.17,10.67,2.1,13.29,8.31a66.38,66.38,0,0,1,5.07,19.81c.28,3.1,2.63,5.54,4.3,9.15l-58.47-1.68c-2.42.74-4.9.21-7.35.35-1.86.1-2.14-1.08-2-2.53a57.9,57.9,0,0,0,.43-11.32c-5.05-1.86-10.43-.46-15.62-1.58C309.91,404.41,308.84,403.77,309.2,401.22Z"/><path class="cls-104" d="M328.16,417.27c-.09,1.69.44,2.75,2.42,2.69,2.17-.06,4.35.05,6.52.09-.68,1-1.79.75-2.76.88l-6.07,0-1.16-.06c.24-4.24-.08-8.52.93-12.7A18.37,18.37,0,0,1,328.16,417.27Z"/><path class="cls-4" d="M211.05,379c8.34,1.45,16.66,3,25,4.28,2.3.35,2.4,1.12,2.21,3.13-.33,3.49-2.82,7.63-.68,10.27s6.63,1.61,10.09,2.25c2.77.51,5.55,1,8.33,1.47,2.3,3.59.4,7.25-.08,10.77-1.83,13.57-3.54,27.15-5.61,40.68-.07.46-.47.74-.78,1.05-13.89-1.5-27.57-4.26-41.33-6.51-3.22-.52-6.46-1-9.69-1.46-1.35-1.32-1.25-3-.91-4.6,4.19-19.3,7.52-38.77,11.5-58.12C209.41,380.8,209.55,379.53,211.05,379Z"/><path class="cls-26" d="M211.05,379c-2.88,9.78-4,19.92-6.21,29.83-2.36,10.5-4.24,21.11-6.24,31.69a25,25,0,0,0-.06,4.42l-2-.85c.67-9.43,3.35-18.5,5-27.75,2.09-11.42,4.44-22.79,6.6-34.2a19.56,19.56,0,0,0,0-4Z"/><path class="cls-130" d="M249.56,452.86c1.72-12.82,3.52-25.62,5.13-38.46.59-4.66,1.71-9.29,1.34-14l2.79.06c-1.55,9.91-3.2,19.81-4.6,29.74-1.07,7.59-1.8,15.23-2.69,22.85Z"/><ellipse class="cls-131" cx="397.97" cy="89.43" rx="235.54" ry="0.63"/><path class="cls-131" d="M231.94,44.94H564.12v.45H231.82Z"/><path class="cls-131" d="M231.89,133.37H564.06v.44H231.87Z"/><path class="cls-132" d="M231.91,177.15H564.1v.45H231.84Z"/><path class="cls-133" d="M290.19,157.66c1.13-2.71,1.84-4.48,2.59-6.23.46-1.07.76-2.5,2.37-2.12s1,1.91,1.09,3a55.72,55.72,0,0,1,0,5.78c-.06,1,.56,2.75-1.3,2.62-1.41-.09-.84-1.63-.95-2.57a21,21,0,0,1,0-2.25c-.37,0-.7-.12-.78,0-1.28,1.51-.74,4.75-3.19,4.77-1.94,0-1.57-3.2-3-4.46-1.47,1.31.39,4.61-1.71,4.4-2.47-.24-1.15-3.19-1.1-4.85.07-2.15-1.52-5.68,1.19-6.18s2.25,3.52,3.53,5.33A21.84,21.84,0,0,1,290.19,157.66Z"/><path class="cls-134" d="M333.41,204.5c-1.41,1.26,1.06,4.6-1.84,4.35-2.08-.18-1.18-3-1-4.55.28-2.26-1.82-5.9,1.3-6.57,3.42-.75,2.48,3.58,3.84,5.42l.84,1.13c1.39-1.36,1.51-3.19,2.14-4.76.47-1.18.91-2.13,2.46-2.05,1.81.09,1.63,1.35,1.64,2.52,0,2.08.07,4.16,0,6.23,0,1.05.6,2.69-1.17,2.84s-1.32-1.52-1.48-2.58c-.09-.58-.15-1.16-.23-1.86-2.17.84-.92,4.55-3.52,4.3C334.25,208.72,335.26,205.47,333.41,204.5Z"/><path class="cls-134" d="M279.17,68c.87-2.37,1.52-4.17,2.19-6,.45-1.25,1.47-1.32,2.56-1.17s1.19,1.14,1.2,2c0,2.23.07,4.45,0,6.67,0,1,.6,2.7-1.18,2.85s-1.31-1.53-1.48-2.59c-.09-.58-.14-1.16-.22-1.86-2.18.84-.92,4.56-3.52,4.31-2.13-.21-1.12-3.46-3-4.43-1.4,1.27,1.06,4.61-1.84,4.35-2.08-.18-1.17-3-1-4.55.28-2.26-1.83-5.89,1.3-6.57,3.42-.74,2.48,3.58,3.84,5.42Z"/><path class="cls-135" d="M486.78,115.81c.9-1.73,1.56-3,2.34-4.49a12.33,12.33,0,0,1-2.56-.57,2.6,2.6,0,0,1-1.22-4.08c.91-1.5,2.9-2,3.79-.68,1.31,1.94,2.66,1.35,4.19.69.39,2-1.37,2.87-1.55,4.51.25.89,1.16.33,1.76.47a2.85,2.85,0,0,1,.72,5.34c-1.19.5-2.69.42-3.21-.75C490,113.87,488.68,115.94,486.78,115.81Z"/><path class="cls-136" d="M458.27,198.49c.41,2.23-1.38,3.06-1.5,4.85a9.22,9.22,0,0,1,2.63.65,2.7,2.7,0,0,1,.83,4.22,2.4,2.4,0,0,1-3.9.34c-1.16-1.19-2-2.42-3.6-.45-.88-2.16,1.06-3,1.09-4.68a10.24,10.24,0,0,1-3-1.09,2.51,2.51,0,0,1-.36-3.92c1.14-1.34,3.21-1.67,3.84-.25C455.47,200.76,456.84,199.5,458.27,198.49Z"/><path class="cls-137" d="M492.87,151l-2.16,4c1.78.51,4,.13,4.21,2.55.13,1.25,0,2.42-1.23,3.1s-2.73.68-3.2-.47c-1.07-2.58-2.41-1.74-4.64.92.86-3.61,3.84-6.13-.8-7.11-1.45-.31-1.43-2.54-.4-3.86s3.14-1.76,3.81-.31C489.68,152.54,491,151,492.87,151Z"/><path class="cls-138" d="M499.74,63.7c1.58-.13,3.19.68,5.06-.09,1.39-.58,2.63.56,2.92,2,.43,2.17.84,4.44-.22,6.51-.29.55-1.44.45-1.84-.36-.24-.5-.05-1.19-.23-1.73-.48-1.49,1.21-4.28-1.39-4.27-2,0-.86,2.69-1.14,4.17-.17,1,.32,2.39-1.21,2.41S500.54,71,500.47,70s0-1.79-.05-2.68c-.06-.69,0-1.6-1-1.7-1.25-.13-1.26.85-1.52,1.71-.5,1.66,1.22,4.9-1.22,4.74s-.7-3.47-1.11-5.34C494.76,63.08,497.33,63.47,499.74,63.7Z"/><path class="cls-139" d="M361.6,203.38c-1.05,1.7,2.44,6-3.38,5.81-2.91-.07-4.24-1.33-4.71-3.67a4.35,4.35,0,0,1,3-5.29c.66-.25,1.55-.13,2-.53,1-.76-.36-3.7,2.15-2.85,1.86.64.6,2.89.9,4.39A13.21,13.21,0,0,1,361.6,203.38Z"/><path class="cls-140" d="M314.18,74.37c.8-1.36,1.86,0,2.78-.23.61-.16,1.2-.28,1.23-1,0-1-.78-.59-1.28-.66-3.69-.53-4-3.16-3.5-6,.57-3.09,3-3,5.59-2.93,1.59.06,2.15.47,2.11,2-.06,2.22.17,4.46-.08,6.66C320.59,76.09,317.67,77,314.18,74.37Z"/><path class="cls-141" d="M426.52,203.39c0-2.84.28-5.75,3.89-5.85s4.12,2.7,4.12,5.56-.15,6.07-4.09,6C426.86,209.07,426.52,206.16,426.52,203.39Z"/><path class="cls-142" d="M509.56,69.31c.67-2-2.06-6.32,3.77-5.84,2.38.19,3.67,1.14,4,3.26s.2,4.52-2.38,5.59c-.77.32-1.81.1-2.5.5-1.12.65.44,3.77-2,2.94-1.83-.63-.59-3.14-.89-4.78A12.59,12.59,0,0,1,509.56,69.31Z"/><path class="cls-143" d="M300,60c.86-.06,2.18-.45,2.27.64.17,2.2,1.12,2.78,3.26,3.07,1.88.26,3,6.87,1.65,8.28a1.61,1.61,0,0,1-1.16.39c-.94-.08-1-.84-1.17-1.59-.39-1.72,1.05-4.88-1.16-4.87s-.88,3.17-1.11,4.92-1.28,1.7-2.54,1.56C297.55,68.3,300.08,64.15,300,60Z"/><path class="cls-144" d="M456.55,105.5c.73,0,1.69-.1,1.82.83.37,2.65,1,5.37.75,8s-1.27,2.85-3.48.85a3.53,3.53,0,0,0-.7-.52c-1.17-.65-3.87.95-3.44-1.92s2.64-4.79,4.2-7C455.81,105.51,456.25,105.55,456.55,105.5Z"/><path class="cls-145" d="M387.63,202.92c-.68,2.13-4.3-.57-4.3,2.46,0,3.76,4.05.5,5.16,3.08-2.46,1.16-6.06,1.75-7.1,0-1.67-2.79-1.44-7-.21-9.91,1.05-2.47,4.63-.93,7.21-.69-.14.54-.12.87-.29,1-1.28,1.36-4.22-.74-4.59,1.51C383,203.39,387,200.73,387.63,202.92Z"/><path class="cls-146" d="M315.15,155.23c-.75,1.73,2.2,5.85-3.3,5.81-2.11,0-3.48-.73-4.19-2.57-.79-2.08-.68-4.21,1.15-5.68,1.61-1.3,4.53-.87,4.77-4.08.05-.66,1.5.1,1.55,1.11C315.21,151.45,315.15,153.07,315.15,155.23Z"/><path class="cls-147" d="M292.76,116.11c-.21.3-.36.78-.64.88a1.48,1.48,0,0,1-1.86-.74c-1.79-2.77-3.58-2.57-5.3.08a1.42,1.42,0,0,1-1.9.63c-1-.48-.27-1.27-.07-1.86.93-2.65,1.92-5.27,2.89-7.91.55-1.48,1.92-2.61,2.8-1C290.4,109.23,291.4,112.68,292.76,116.11Z"/><path class="cls-148" d="M482.69,106.45c-.8,1.88-3.1.11-4.18,1.6.18,1.77,1.88.74,2.74,1.33a4.07,4.07,0,0,1,1.59,5.43,3.62,3.62,0,0,1-4.8,2.1c-1.29-.4-3-1.36-2.48-2.68s1.89-.57,2.85.25,1.69.38,2-.64.3-2.66-.85-2.58c-3.45.21-4.9-1.18-3.48-4.22s4.21-1.46,6.53-1.11C482.63,105.93,482.64,106.19,482.69,106.45Z"/><path class="cls-149" d="M468.89,153.42a2.84,2.84,0,0,0,.19,3.46c.88,1.36.06,2.56-1.12,3.38a4.11,4.11,0,0,1-5,.05c-1.22-.81-1.94-2-1.19-3.38.64-1.19,1.08-2.05.26-3.47s0-2.86,1.38-3.76a3.56,3.56,0,0,1,3.79-.13A3.25,3.25,0,0,1,468.89,153.42Z"/><path class="cls-150" d="M321.9,111.08c-1.67-2-3.13.87-4.55-.85,1.3-2.17,3.28-2.86,5.42-1.45,2.78,1.83,2,5.14,1.29,7.34-.56,1.84-3.7,1.27-5.43.6-2-.78-2.38-2.69-.46-4.16C319.12,111.83,320.47,111.62,321.9,111.08Z"/><path class="cls-151" d="M327.61,66.41c-1.62-2-3.05.68-4.57-.74.87-2,2.53-2.54,4.52-2s2.74,2.31,2.34,4.19c-.32,1.54,1.57,4.17-1.54,4.46-2,.19-5,1.16-5.52-2S325.57,67.52,327.61,66.41Z"/><path class="cls-152" d="M447,198.71l-3.87,2.13c3.43.1,5.41,1.09,5.5,3.87s-1.43,4.73-4.34,4.37c-3.5-.44-3.91-3.26-3.57-6.12C441.12,199.43,443.08,197.59,447,198.71Z"/><path class="cls-153" d="M308.36,108.26c4.07-.32,1.78,2.78,2.33,4.33.32.87-.31,2.38,1.2,2.38s1.12-1.44,1.21-2.39c.07-.73,0-1.48,0-2.21,0-1-.08-2.25,1.51-2.1,1.25.12,1.07,1.18,1.11,2,0,.59,0,1.18,0,1.78.06,5.73-1.46,6.57-7.22,4C306.28,113.51,306.56,110.9,308.36,108.26Z"/><path class="cls-154" d="M335.37,65.17c-1.71,2-.95,3.9-1.15,5.61-.12,1-.39,1.75-1.57,1.65-.95-.08-1.18-.78-1.19-1.56,0-1.93,0-3.87,0-5.8,0-.79.29-1.65,1.21-1.49,1.86.34,4.13-1.09,5.54.71,1.78,2.28,1.16,5,.67,7.66-.05.23-.73.5-1.11.49-.9,0-1.17-.69-1.29-1.49C336.22,69.17,337.09,67.17,335.37,65.17Z"/><path class="cls-155" d="M365.81,206.17c1.1,2.12,2.87.19,4.11,1-1.91,2.23-3,2.54-4.85,1.38-2.31-1.43-2.52-3.6-1.67-5.84a3.56,3.56,0,0,1,4.25-2.44,3.34,3.34,0,0,1,3,3.39C370.6,207.25,367.14,204.44,365.81,206.17Z"/><path class="cls-156" d="M344.35,205.05c.09-2.94,1.24-4.75,3.93-4.85,2.93-.11,4.35,1.74,4.35,4.48s-1.44,4.6-4.36,4.47C345.59,209,344.46,207.21,344.35,205.05Z"/><path class="cls-157" d="M459.66,68.15c-.12,2.53-1.36,4.29-4.07,4.3s-4-1.71-4.06-4.33c0-2.79,1.27-4.7,4.25-4.58C458.49,63.64,459.62,65.5,459.66,68.15Z"/><path class="cls-158" d="M401.08,201.91c4.36-2.4,7.06-2.06,8,1.1a4.7,4.7,0,0,1-1,5,3.75,3.75,0,0,1-4.1,1,4,4,0,0,1-2.82-4.08c0-1,0-2.06,0-3.09Z"/><path class="cls-159" d="M486.72,63.7c3.52.13,1.35,2.81,1.88,4.26.33.91-.19,2.41,1.26,2.43S491.08,69,491.14,68c0-.74,0-1.49,0-2.23,0-1-.13-2.3,1.46-2.19,1.2.09,1.15,1.16,1.17,2a14.87,14.87,0,0,1,0,2.67c-.2,1.37.82,3.74-.89,3.88-2,.16-4.9,1.79-6.29-1.44C486.27,68.37,485.82,66,486.72,63.7Z"/><path class="cls-160" d="M479.78,61.41c-5.09,1.14-3.45,4.83-3.69,7.75-.1,1.15.8,3.16-1.25,3.15s-1.08-2-1.25-3.18c-.4-2.71,1.55-6.39-4.24-7.15C473.31,60.06,476.4,61.1,479.78,61.41Z"/><path class="cls-161" d="M323.55,159.6c-2.28,2.26-4.63,2.08-6.32-.37s-1.09-5.14,1.52-6.93a3.27,3.27,0,0,1,4.14.38c1,.81,1.72,2,1.22,3.11-.86,1.84-1.95-.25-3-.17a2.07,2.07,0,0,0-2.14,1.84c-.23,1.42.88,1.71,2,1.78C321.77,159.3,322.67,158.65,323.55,159.6Z"/><path class="cls-162" d="M461.88,117l3.81-9.12c-1.72-.94-3.6.23-5.21-1.4,2.41-1.86,5-.79,7.49-.86a.91.91,0,0,1,.81,1.28c-1.28,3.46-2.27,7.06-4.56,10C464,117.26,462.86,117,461.88,117Z"/><path class="cls-163" d="M293.76,112.56c.05-3.14,2.69-5.28,5.32-4.19,1.07.44,2.52,1.15,1.95,2.53-.65,1.58-1.62.44-2.39-.22s-1.37-.69-1.87.11a4,4,0,0,0-.19,3.45c.4,1.13,1.29,1,2.15.45s1.7-1.27,2.21-.13-.75,1.83-1.63,2.27C296.59,118.17,293.71,115.92,293.76,112.56Z"/><path class="cls-164" d="M452,157.75a14.29,14.29,0,0,1,1.68-2.8c1.67-1.71,2.18-6.26,4.43-5.08s-.08,5.79,1.59,8.59c-1-.16-.47,4.8-2.78.81C455.93,157.6,453.71,159.16,452,157.75Z"/><path class="cls-165" d="M449.58,59.93c.8.08,1.6.32,1.12,1.31a20.92,20.92,0,0,0-1.76,9.26c0,.71.09,1.52-.83,1.83-.64.21-1.46,0-1.39-.63.42-3.32-2.1-6.62,0-9.94A3.29,3.29,0,0,1,449.58,59.93Z"/><path class="cls-166" d="M300,60q0,6.21,0,12.4l-2.22-1.73c-1.5,0-3.23,1.43-4.39-.59a4.1,4.1,0,0,1,0-4.22c1.16-2,2.89-.61,4.38-.59C300.07,64.17,298.51,61.48,300,60Z"/><path class="cls-167" d="M298.06,156c.26-2.5,1.51-4.27,4.24-4.11,2.91.17,4.21,2.31,4,4.91-.18,2.37-1.56,4.32-4.33,4.18C299,160.84,298.06,158.74,298.06,156Z"/><path class="cls-168" d="M486.72,63.7q-.08,3.51-.13,7c-.2-.84-.4-1.69-.61-2.53s.52-2.41-1-2.46-2.2,1.22-2.09,2.78c.05.73,0,1.48,0,2.22s-.12,1.55-1.08,1.66c-1.27.13-1.41-.78-1.44-1.72,0-.15,0-.3,0-.44C479.62,63.58,479.7,63.5,486.72,63.7Z"/><path class="cls-169" d="M425.54,196.22c-2.94,7.7-3,8.48-.45,16.11-3.47-1.14-4-3.88-4.21-6.62C420.59,202.23,421.22,199,425.54,196.22Z"/><path class="cls-170" d="M462.22,197.4c3.54,1,4.15,3.84,4.31,6.73.19,3.32-.68,6.33-4.1,8.11C464.33,207.24,465.2,202.37,462.22,197.4Z"/><path class="cls-171" d="M374.83,202.8c-1,1.95,1.38,5.59-1.46,5.84-1.78.16-.79-3.78-.8-5.82s-1.08-5.76,1-5.73C375.83,197.13,374.11,200.77,374.83,202.8Z"/><path class="cls-172" d="M326.05,110.55c.77-1.94-1.11-5.6,1.44-5.61s1.33,3.67,1.21,5.58c-.14,2.17,1.8,6.08-1.41,6.19C325,116.79,326.87,112.68,326.05,110.55Z"/><path class="cls-173" d="M326.79,148.61a22.6,22.6,0,0,1,0,12.18A20.57,20.57,0,0,1,326.79,148.61Z"/><path class="cls-174" d="M297.77,65.29c-.54,2.57-3.57-1.41-4.26,1.74-.94,4.31,2.77,2.56,4.27,3.66-1.59,2.7-3.7,2.38-5.49.51a4.39,4.39,0,0,1,0-6.43C294.08,62.92,296.2,62.54,297.77,65.29Z"/><path class="cls-175" d="M306.57,117.09c-2.26.34-3.33-.65-3.5-2.89-.12-1.54.4-3.1-.89-4.62-.93-1.08.7-2.25,1.39-2.83,1.62-1.39,1.85,1.26,3.06,1.45A21.14,21.14,0,0,1,306.57,117.09Z"/><path class="cls-176" d="M395.69,200.69c-3,1.94-3.93,4-3.48,6.69.12.72,0,1.55-1,1.69-.39.05-1.12-.1-1.18-.31a12,12,0,0,1,0-7.8C390.67,199.39,393,200.31,395.69,200.69Z"/><path class="cls-177" d="M401.16,201.81c-2.91.67-2.92,2.85-2.79,5.16,0,.83.19,2-1,2.08-1.62.15-1.37-1.18-1.41-2.15-.06-1.32-.07-2.65,0-4,0-1-.4-2.58.95-2.49s3.77-1.47,4.25,1.49Z"/><path class="cls-178" d="M410.72,204.73c0-1,0-2.07,0-3.1s.72-1.53,1.76-1.43,2.36-.1,3,.46c.78.71-.13,1.56-.94,2-1.49.88-.9,2.34-1.07,3.6-.14,1.07.44,2.75-1.29,2.79-2.18,0-1.23-1.88-1.46-3a7.37,7.37,0,0,1,0-1.33Z"/><path class="cls-179" d="M434.62,62.56c3.68-.47,3.68-.47,1.61,4.7a2.69,2.69,0,0,1-1,3.44c-1.26-1.28-2,1-3.22.45-1-2.11,1.83-3.15,1.57-5.05A2.74,2.74,0,0,1,434.62,62.56Z"/><path class="cls-180" d="M476,151.42c1.15-1.38,2.55-2.25,3.95-1.55,1.1.55.58,2.17.54,3.3-.08,2.51.43,5.11-.58,8.08C476.69,158.13,481.23,153,476,151.42Z"/><path class="cls-181" d="M311.83,68.06c0,.74,0,1.48,0,2.21,0,1,.07,2.27-1.49,2.14-1.21-.11-1.11-1.18-1.14-2a8.59,8.59,0,0,1,0-2.21c.37-1.56-1.15-3.75,1.27-4.59C311.55,63.18,311.86,64.14,311.83,68.06Z"/><path class="cls-182" d="M466.13,64.09a7.12,7.12,0,0,0-2.5,6.76c.08.75-.14,1.49-1.13,1.51s-1.19-.7-1.2-1.48a28.19,28.19,0,0,1,.05-5.74C462,62.08,464.36,64.34,466.13,64.09Z"/><path class="cls-183" d="M435.23,70.7l1-3.44c1.78-.51,3.3-.28,4,1.68a2.46,2.46,0,0,1-1,3.1C437.4,73.07,436.05,72.54,435.23,70.7Z"/><path class="cls-184" d="M434.62,62.56c-.34,1.18-.69,2.36-1,3.54-1.72.34-3.27.25-3.84-1.77a2.52,2.52,0,0,1,1-3.08C432.44,60.26,433.8,60.75,434.62,62.56Z"/><path class="cls-185" d="M306.57,117.09c-1.43-3-1.68-5.94.06-8.89l1.73.06c.06,2.6.12,5.19.19,7.79Z"/><path class="cls-186" d="M289.6,67.81c0,1.22,0,2.1,0,3s-.12,1.49-1.11,1.55-1.18-.67-1.21-1.44a12.17,12.17,0,0,1,0-2.63c.31-1.55-1-4.37,1.1-4.4C290.71,63.84,289.05,66.69,289.6,67.81Z"/><path class="cls-187" d="M471.83,114.47c.82,0,1.52.31,1.64,1.16s-.46,1.35-1.28,1.45a1.32,1.32,0,0,1-1.63-1.11C470.44,115.12,471,114.67,471.83,114.47Z"/><path class="cls-7" d="M328.16,417.27l-.12-9.08-.08-.38.18-1.26A14.54,14.54,0,0,1,328.16,417.27Z"/><path class="cls-10" d="M442.61,428.86a3.77,3.77,0,0,1,3.49,3,2.88,2.88,0,0,0,3.1,2.5c3,.06,4.15,2.21,2.94,4.53-3,5.7.42,8,4.76,10.1.46.22.7.89,1,1.35a11.15,11.15,0,0,1-6.59-3.27c-1.93-1.86-2.84-3.44-1.42-6.13,1.26-2.39,1.86-5.08-2.57-4.85-1.24.07-2.1-.59-2-1.82C445.58,431.81,443.41,430.7,442.61,428.86Z"/><path class="cls-10" d="M436.31,419.74l6.31,9.12C438.1,427.46,436.46,424.11,436.31,419.74Z"/><path class="cls-188" d="M359.13,204.46c-.11,1.1.22,2.59-1.46,2.64-1.29,0-1.56-1.15-1.56-2.2s0-2.56,1.57-2.65C359.07,202.17,359.05,203.45,359.13,204.46Z"/><path class="cls-189" d="M319,68c-.09,1.18,0,2.59-1.74,2.54-1.57-.05-1.86-1.34-1.84-2.57s.3-2.51,1.87-2.54C319,65.41,318.93,66.82,319,68Z"/><path class="cls-190" d="M428.9,203.36c.34-1.34-.62-3.73,1.75-3.69,2,0,1.46,2.26,1.41,3.57s.75,3.82-1.64,3.78C428.49,207,429.12,204.79,428.9,203.36Z"/><path class="cls-191" d="M513.62,65.44c1.53.38,1.59,1.64,1.53,2.82s-.44,2.58-2.08,2.22-1.15-1.86-1.17-3S512.11,65.38,513.62,65.44Z"/><path class="cls-192" d="M313,156.37c-.06,1.41.17,2.92-1.53,2.93s-2.1-1.39-2.09-2.84.33-2.9,2-2.89C313.44,153.6,312.72,155.44,313,156.37Z"/><path class="cls-193" d="M287.63,112.72c-.83-.07-1.61-.2-1.28-1.24.24-.76.16-2,1.32-1.93s1.06,1.27,1.25,2C289.18,112.67,288.28,112.64,287.63,112.72Z"/><path class="cls-194" d="M467.33,157.88a1.81,1.81,0,0,1-2.18,1.55c-.89-.15-1.71-.64-1.58-1.71a1.89,1.89,0,0,1,3.76.16Z"/><path class="cls-195" d="M465.76,154.38a1.51,1.51,0,0,1-1.77-1.55c-.11-1,.24-1.81,1.28-2s1.59.54,1.7,1.54A1.6,1.6,0,0,1,465.76,154.38Z"/><path class="cls-196" d="M444.77,207.22c-1.41-.08-1.69-1.09-1.74-2.16s.35-2.11,1.75-2c1.12.07,1.46.94,1.5,1.87C446.33,206,446.13,207,444.77,207.22Z"/><path class="cls-197" d="M350.26,204.7c-.17,1.23-.26,2.58-1.93,2.47-1.36-.09-1.55-1.24-1.52-2.32s-.05-2.6,1.63-2.66S350.09,203.56,350.26,204.7Z"/><path class="cls-198" d="M455.65,70.55c-1.62-.1-1.86-1.26-1.85-2.47s.06-2.52,1.67-2.6,1.8,1.25,1.82,2.42S457.23,70.3,455.65,70.55Z"/><path class="cls-197" d="M407.07,204.7c-.17,1.16-.18,2.52-1.83,2.49s-1.74-1.34-1.71-2.53.11-2.52,1.77-2.5S406.91,203.55,407.07,204.7Z"/><path class="cls-1" d="M456.77,153.31c.3,1.51,1.11,2.84-.53,3.79a2.38,2.38,0,0,1-1.61-.11C454.51,155.45,455.39,154.41,456.77,153.31Z"/><path class="cls-199" d="M302,153.44c1.7.07,2.21,1.37,2.28,2.71.09,1.53-.28,3.16-2.24,3.23-1.41.05-2-1.06-2-2.44S300,153.89,302,153.44Z"/></g></g></svg>