<svg xmlns="http://www.w3.org/2000/svg" viewBox="0 0 757 117.84"><defs><style>.cls-1{fill:#d9b29c;}.cls-2{fill:#2d3340;}</style></defs><g id="Layer_2" data-name="Layer 2"><g id="Layer_1-2" data-name="Layer 1"><rect class="cls-1" y="56.84" width="757" height="61"/><path class="cls-2" d="M136.64,93.4c6-.21,5.67-4.05,5.66-8q-.09-38.19,0-76.37c0-3,.42-6.28-4.15-6.35a1.23,1.23,0,0,1-1.33-1.21c.05-1,.93-1.36,1.76-1.36,8.32,0,16.65-.15,25,.1,3.1.09,2.59,3,2.6,5,0,10,0,20,0,29.95,0,1.78-.41,3.65.52,5.26.84.62,1.34.07,1.8-.38C180.39,28.52,199.17,33,204,48.83a52.66,52.66,0,0,1-.29,32.42c-3,9.09-9.81,13.72-19.06,14.42-5.87.44-12.11,1.31-17-3.59-.6-.6-1.7-1-2.14-.06-1.94,4.22-5.7,2.62-8.77,2.71-6.5.2-13,.06-19.53.06Zm45.2-29.22a91.47,91.47,0,0,0-1-19.35c-.4-2.42-1.42-4.48-3.87-5.37s-4.47.52-6.2,2.16c-3.68,3.46-4.54,8-4.61,12.74-.12,7.79-.05,15.59,0,23.39,0,2.65-.12,5.32.83,7.87,1.41,3.81,3.47,7.16,8.13,6.61,4.25-.51,5.24-4.14,5.75-7.71A102.55,102.55,0,0,0,181.84,64.18Z"/><path class="cls-2" d="M463.47,94.79c-9.16,0-18.32,0-27.47,0-4.93,0-5.36-.71-3.3-5.26q16.53-36.6,33.16-73.17c2.8-6.14,2.52-6.55-4.29-6.55-9.22,0-15.88,4.2-20.48,12-2,3.43-3.92,7-5.88,10.43-.49.85-1,2-2.17,1.64s-1.13-1.55-1.08-2.51q.56-10.71,1.21-21.4c.14-2.33,1.65-3,3.75-3q27.72,0,55.44,0c4.05,0,3.72,2.4,2.52,5.07q-6.11,13.68-12.23,27.33c-7,15.46-14,30.9-20.91,46.4-2.5,5.61-1.64,6.8,4.56,6,12.08-1.58,20.32-8.45,25.51-19.25.51-1.05.91-2.15,1.5-3.16.95-1.63.8-5,3-4.56,2.65.54,1.26,3.57,1.18,5.57-.23,6.31-.59,12.62-.83,18.93-.15,4.05-1.83,5.82-6.2,5.67C481.46,94.58,472.46,94.79,463.47,94.79Z"/><path class="cls-2" d="M317.27,34.91c8.12,0,16.24,0,24.36,0,3.84,0,3.38,3,3.38,5.4,0,14.63,0,29.27,0,43.9,0,4.26-1.72,9.68,6.55,9.26-4.92,2-9.19,1.06-13.37,1.29-2.33.13-4.67,0-7,0-4.6.17-9.43.83-9.37-7.53-5.65,7.93-12.44,8.94-19.9,8.59-9.39-.44-15.09-5.14-16.94-14.48-1.5-7.59-.63-15.26-.82-22.89-.11-4.49-.13-9,0-13.47s.71-9-6.14-8.58c1-2.13,2.49-1.54,3.66-1.55,6.82-.08,13.66.21,20.47-.13,4.76-.24,6,1.7,5.92,6.11-.21,12.13-.12,24.28,0,36.42a45.71,45.71,0,0,0,.77,8.42c.87,4.39,4.68,5.58,8.19,2.67a11.61,11.61,0,0,0,4-9.32c.1-12.63,0-25.28.17-37.91.05-3.16-1.85-4.19-4.42-5Z"/><path class="cls-2" d="M66.39,94.48a114,114,0,0,1-17.13.09,1.37,1.37,0,0,1-1-.89c-.13-1.05.73-1.5,1.56-1.48,4.18.08,5-3,6.09-6.06,9.21-25,18.51-49.9,27.67-74.88,1.36-3.71,3.13-5.55,7.51-5.55s6,1.9,7.36,5.64c9.06,25,18.3,50,27.52,74.93.83,2.23,1,5,4.16,5.68,1.12.22,3.25-.13,2.73,1.88-.38,1.51-2.29.92-3.54.93-7.65,0-15.31,0-23,0-3.5,0-7,0-10.49,0-1,0-2.68.36-2.64-1.37,0-1.19,1.42-1.3,2.38-1.29,4.48.09,4.94-2.12,3.63-5.76q-3-8.22-5.55-16.56c-.94-3-2.73-4.26-5.86-4.18-5.32.13-10.66.16-16,0-3.42-.11-5.12,1.41-6.12,4.55-1.73,5.38-3.63,10.72-5.66,16-1.5,3.89-1,6.13,3.77,6C64.79,92.1,65.85,92.31,66.39,94.48Zm14.7-62.82-1.66.19c-2.4,6.68-4.71,13.4-7.2,20-4.35,11.6-4.93,10.82,7.86,10.81,11.39,0,11.39,0,7.72-11Q84.47,41.68,81.09,31.66Z"/><path class="cls-2" d="M537,88.77c-2.86,8-11.08,7.8-19.9,6.65-7.62-1-11.76-5.93-12.1-13-.4-8.55,2.85-13.17,11.06-15.35A64.42,64.42,0,0,1,532.33,65c3.31,0,5-1.15,4.84-4.65-.24-6.14,0-12.32-.58-18.43-.47-5-3.5-7-7.38-5.85-3.38,1-4.77,5.28-2,7.4,4.17,3.19,3.39,7.12,1.84,10.72-1.94,4.5-6.39,5.71-10.91,5.43-4.09-.25-7.85-1.61-9.38-6.15-2.07-6.12.15-13.11,6-15.82,12.22-5.64,25-5.56,37.35-.87,6.42,2.43,8.47,8.74,8.69,15.18.32,9.3.16,18.62.24,27.94a26.5,26.5,0,0,0,.28,5c.87,4.27,2.86,4.79,6.48,1.8L569.3,88c-4.93,8.74-20.32,10.78-28.5,3.78-1.24-1.05-2-2.69-3.86-3,.34-5.8,1.33-11.57.87-17.4-.12-1.46.17-3.26-1.66-3.79a4.68,4.68,0,0,0-4.54,1.5A8.65,8.65,0,0,0,529.16,75c-.19,2.81-.2,5.65-.17,8.48C529.06,91.12,529.91,91.66,537,88.77Z"/><path class="cls-2" d="M241.78,95.84a36.13,36.13,0,0,1-12.41-1.53,25.06,25.06,0,0,1-13.75-10.2c-8.36-12.49-5.86-33.66,5.13-43.52,11.25-10.08,36.7-9.27,47.1,1.45a22.31,22.31,0,0,1,5.55,9.89,46.32,46.32,0,0,1-.85,27C268.82,90.2,258.64,95.84,241.78,95.84ZM250,65.45c0-5.82.1-11.65-.05-17.47a30.28,30.28,0,0,0-1.09-6.87c-.78-3-2.66-5.12-6-5s-5.2,2-6.24,4.93A16.93,16.93,0,0,0,236,44.4c-1.68,12.93-.87,25.92-.58,38.88a17.78,17.78,0,0,0,1.47,5.78c1,2.63,2.78,4.62,5.89,4.6s5.27-2,6.22-4.88a20.08,20.08,0,0,0,1-5.85C250.11,77.11,250,71.28,250,65.45Z"/><path class="cls-2" d="M668.92,40.94c-4.53,5.38-5.89,11.8-5.94,18.6-.07,8.8.1,17.62-.08,26.42-.08,3.77.28,6.91,4.71,8.32H633.35c8-1.27,5.68-7.41,5.7-12.2q.12-35.89,0-71.8c0-3.52,1-7.81-4.9-7.57A1.08,1.08,0,0,1,633,1.4c.3-1.19,1.42-1.31,2.41-1.32Q642.19,0,648.93,0c14,0,14,0,14,13.81V42.08c3.28-.6,3.95-3.37,5.93-4.35Z"/><path class="cls-2" d="M354.41,36.14c7-.4,6.6-4.65,6.54-9-.12-8.53,0-8.53,8.05-10.54,3.72-.93,7.45-1.79,11.14-2.79,2.82-.77,4.06.15,4,3.1-.07,4.49.08,9,0,13.48-.06,3.14,1.18,4.58,4.43,4.45a50.1,50.1,0,0,1,11.12.64c-3.52,2.07-7.29,1.2-10.92,1.35-2.74.11-4.6.87-4.56,3.94.21,14.29-.76,28.6.57,42.88.28,3,.68,6.19,4.46,6.9s6.54-1.27,8.29-4.31a81.4,81.4,0,0,0,3.85-8.8c2.21,4.8-1.33,13.42-7.3,16-9.12,4-18.55,4-27.22-1.52-4.63-2.91-5.84-7.91-5.87-13.12q-.09-17.46-.06-34.93C360.92,39.93,361.59,35.54,354.41,36.14Z"/><path class="cls-2" d="M629.77,75.92c.14,9.4-7.28,17.53-17.8,19.44a44.23,44.23,0,0,1-16.89-.13c-14.64-3.08-22.73-15-21.56-31.3C575,44.13,585.92,34,605.87,33.79c8.18-.08,16.06.41,21.86,7.32,3.73,4.44,3.9,12.29.34,16.73-3,3.71-9.32,4.76-14.2,2.36-5.9-2.89-6.83-10.5-1.68-14.34,2.38-1.78,2.11-4.06,1.35-6.27a5.11,5.11,0,0,0-5.9-3.56,8,8,0,0,0-7,6.24C597,56,596.55,70,600.12,83.7c2.2,8.51,13,10.79,20.42,4.9a19.69,19.69,0,0,0,6.15-8.35C627.28,78.78,627.51,77,629.77,75.92Z"/><path class="cls-2" d="M668.92,40.94l0-3.21C675.73,31.81,683.51,33,691,35.5c7.27,2.43,9.73,8.79,9.9,15.86.27,11.47.12,23,.15,34.43,0,6.17,0,6.17,5.63,7.67-2.92,1.71-27.71,2-32.7.36.6-1.48,1.93-.85,3-1,2.42-1.29,1.93-3.62,1.94-5.7q0-18.31,0-36.63c0-1.93.41-4-1.41-5.52C676.53,39.56,673.23,39.18,668.92,40.94Z"/><path class="cls-2" d="M677.49,45c1.82,1.49,1.41,3.59,1.41,5.52q0,18.31,0,36.63c0,2.08.48,4.41-1.94,5.7q.09-20.94.21-41.89C677.18,48.92,677.38,46.94,677.49,45Z"/><path class="cls-2" d="M569.3,88l-1.48-1.37c.37-2.28.73-4.56,1.13-6.83.17-1,.3-2.3,1.49-2.23,1.53.09,1.4,1.61,1.4,2.72C571.82,83.12,571.66,85.94,569.3,88Z"/></g></g></svg>