<svg xmlns="http://www.w3.org/2000/svg" viewBox="0 0 577 93.8"><defs><style>.cls-1{fill:#fff;}.cls-2{fill:#90bac5;}</style></defs><g id="Layer_2" data-name="Layer 2"><g id="Layer_1-2" data-name="Layer 1"><rect class="cls-1" y="40.8" width="577" height="53"/><path class="cls-2" d="M381.75,66.58c.44,11.12.44,11.13-10.85,11.12-11.77,0-23.54-.17-35.31,0-4.63.07-5.25-1.28-3.39-5.34,9.16-20,18.15-40.11,27.2-60.19.32-.54,1-1.15.89-1.6-.23-1.09-1.14-1.09-2-.68-14.27.32-17.8,3.15-25.46,20.32l-1.6.09c0-6.93-.07-13.86.05-20.78,0-1.91,1.84-1.69,3.12-1.69,14.69,0,29.39-.07,44.08,0,5.06,0,2.61,3.08,1.72,5.06Q366.65,43.12,353,73.26a1.32,1.32,0,0,0-.87,1.66c.37,1,1.22,1.07,2.12.65,14.82-.57,23-8.95,26.2-23.21,1.89,1.21,1.35,2.56,1.33,3.76A12,12,0,0,0,381.75,66.58Z"/><path class="cls-2" d="M207.32,51.92c.07,21.79-16.88,33.18-37.09,24.7-11.69-4.89-13-15.25-12.89-26.15.18-12.35,4.67-20,13.69-23.29a32.51,32.51,0,0,1,22.71.1C202.78,30.58,207.27,38.88,207.32,51.92Zm-18.25.7c0-6.77.14-13.56-2.11-20.08-.82-2.38-1.75-5-4.88-4.95-2.82.06-3.88,2.52-4.44,4.72a77.8,77.8,0,0,0,0,39.51c.57,2.19,1.64,4.64,4.47,4.68,3.14,0,4.06-2.59,4.89-5C189.13,65.4,189.1,59,189.07,52.62Z"/><path class="cls-2" d="M49.83,25.75c1.48-4,3.05-7.9,4.41-11.9,1.23-3.63,2.36-6.33,7.4-6.32s6.07,2.6,7.43,6.22c6.6,17.57,13.36,35.08,20.05,52.62,1.44,3.79,2.68,7.7,6.41,10.68h-34c8.26-3.58,8.26-3.58,5.53-11.34-4.91-14-4.91-14-19.84-13.86-1.89,0-3.9-.47-5.59.9l-2.11-.23.9-3.33,3.16.07c4.38.13,8.77.15,13.14.42,3.62.22,4.32-1.13,3.07-4.38C57.45,39.23,55.34,33.07,53.14,27,52.49,25.3,51.07,25.78,49.83,25.75Z"/><path class="cls-2" d="M117.61,76.82c-5.22-1.23-10.31-1-14.83,1.48-1.84-1-1.12-2.26-1.12-3.33q0-31.92.12-63.83c0-4.05-1.23-7.38-5.2-9.64C103.48.44,110.2,1.07,116.82,0c2.65-.41,2.2,2.11,2.21,3.73,0,6.77-.24,13.56.08,20.31.81,17.26-1.1,34.53.44,51.77Z"/><path class="cls-2" d="M515,77.38H489.7c6-3.16,4.48-8.66,4.5-13.56.06-16.84,0-33.68,0-50.52,0-4.4.38-9-4.88-11.66,7-1.12,13.69-.83,20.3-1.53,3.17-.34,1.93,3.2,1.94,5,.1,20.59.05,41.19.07,61.78C511.66,70.51,511,74.41,515,77.38Z"/><path class="cls-2" d="M278.39,67.75q-.22-15.31-.44-30.63c-.1-7.64-.1-7.64-7.32-9.95,10.73.53,6.32-7.25,7.64-11.89,1.3-.06,2.69.17,3.64-1.08a41.88,41.88,0,0,0,11.16-2.88l2.15.85c.06,1.16.16,2.31.17,3.47.09,9.55.08,9.55,8.42,11.59-.07.31-.1.86-.22.88-8.19,1.39-8.19,1.38-8.19,10q0,13.92,0,27.85c0,4.24-.67,9,7.34,7.44-4.59,5.37-9.38,5.89-14.41,5.15s-8.71-3.1-9.66-8.52C279.64,69.15,279.4,68.4,278.39,67.75Z"/><path class="cls-2" d="M471,27.72c-5-.1-7.91,2.76-9.49,7.12a41.73,41.73,0,0,0-1.66,23.48c2.18,9.9,12.45,13.19,20.34,6.8,1-.83,1.93-1.81,3.07-2.89.15,6.38-5.4,13.19-12.34,15.53a22,22,0,0,1-29-16.33,45.44,45.44,0,0,1-.93-9.81c.12-18.59,11.7-28.41,30.26-25.79Z"/><path class="cls-2" d="M240.88,27.31c7.23-1.3,13.79-.59,20.26-1.74,3.24-.57,2.44,2.24,2.45,4,.05,11.81,0,23.61,0,35.41,0,4.62-.16,9.33,5.49,11.6l-.52,1.64c-6.85,0-13.73.38-20.54-.16-3.47-.27-2.19-4.16-2.21-6.24-.14-11.21.17-22.42.29-33.63C246.18,33.85,246.46,29.4,240.88,27.31Z"/><path class="cls-2" d="M211.8,27.31c7-1.29,13.53-.64,20-1.73,3.68-.62,2.53,2.63,2.54,4.42.09,12.74,0,25.49.08,38.24,0,3.5-.42,7.44,5,8.13-11,6.46-22,1-22.4-10.78-.3-9.27-.05-18.54-.1-27.81C216.91,33.66,216.89,29.47,211.8,27.31Z"/><path class="cls-2" d="M123.94,76.82c4.71-.59,6.33-4.16,7.21-8a78.94,78.94,0,0,0,.4-32.29c-.92-4.87-3.4-8-9.31-5.62,3.68-6.21,13.71-7.43,20.22-2.87,12.76,8.93,11.2,40.36-2.47,47.87a23.38,23.38,0,0,1-15.72,2.62Z"/><path class="cls-2" d="M520.14,77.19c3.83-2.67,3.43-6.44,3.44-10.06,0-9.68,0-19.36,0-29,0-6.83-.54-7.39-7.16-8.65,2.73-3.66,9.15-5.16,15.32-3.73,5.15,1.19,8,4.37,8.74,9.56,1.07,8.1.33,16.24.53,24.36,0,2.33,0,4.65,0,7,0,4-.76,8.37,4.41,10.59Z"/><path class="cls-2" d="M434.14,76c-6.53,1.62-13.2,4.17-18.41-2.83.34-2-1.3-3.1-1.93-4.65,1.16-6.37.6-12.76.31-19.14.81-5.5,2.65-11,.15-16.53-.81-3-2.51-5.08-5.76-5.54.11-.58.21-1.17.32-1.75a30,30,0,0,1,12.09.61c6.12,1.33,10,4.77,10.53,11.37-1.32,11.32-.5,22.66-.41,34a2.26,2.26,0,0,0,1.66,2.14l1.35.24C434.08,74.61,434.11,75.3,434.14,76Z"/><path class="cls-2" d="M412.94,72a14.35,14.35,0,0,1-11.47,5.71c-6.41.23-10.81-2.67-12.43-8.13-1.75-5.87.26-11,5.68-14.35,4.91-3,10.7-3.92,15.86-6.35l2.41.56c-4.47,3.19-7.29,7.28-7.26,13,0,5,1.79,7.9,7.38,6.6C413.05,70,413,71,412.94,72Z"/><path class="cls-2" d="M473.52,26.34c7.56,2.35,10.89,5.85,11,11.63,0,4.54-1.87,8-6.32,9.3-4,1.16-7.9.67-10.24-3.22-2.45-4-1.92-8,1.18-11.78,1.15-1.39,3.72-1.59,3.54-4.12Z"/><path class="cls-2" d="M403.41,28.13c-.35,1.78,1.34,2.1,2.19,3,3.51,3.8,3.7,8.64.44,11.82s-9.63,3.34-12.56.23a8.9,8.9,0,0,1,.61-12.44,16.26,16.26,0,0,1,8.64-4.28C403,27,403.19,27.58,403.41,28.13Z"/><path class="cls-2" d="M39,59.73c-.26.93-.56,1.85-.78,2.78-2.12,8.87-1.44,10.15,8.65,14.63H24.56c7.85-4.44,9.59-11.28,12.26-17.54Z"/><path class="cls-2" d="M432.69,73.67A2.26,2.26,0,0,1,431,71.53c-.09-11.33-.91-22.67.41-34,2.12,6.38.62,12.94,1,19.41C432.68,62.51,432.61,68.1,432.69,73.67Z"/><path class="cls-2" d="M43.57,49.26l-3.16-.07c2.9-7.91,5.3-16,9.42-23.44,1.24,0,2.66-.45,3.31,1.2C48,33.54,46.79,41.83,43.57,49.26Z"/><path class="cls-2" d="M413,49.41l-2.41-.56c3.36-2.51,3.36-6.09,3.25-9.79a61.9,61.9,0,0,1,.43-6.21c2.5,5.53.66,11-.15,16.53Z"/><path class="cls-2" d="M39,59.73l-2.15-.13a11,11,0,0,1,2.69-7.08l2.11.23C41.34,55.31,40.78,57.76,39,59.73Z"/><path class="cls-2" d="M381.75,66.58a12,12,0,0,1,0-10.46A20.82,20.82,0,0,1,381.75,66.58Z"/><path class="cls-2" d="M403.41,28.13c-.22-.55-.45-1.1-.68-1.65,1.92-1.08,3.87-1.84,6.09-.92-.11.58-.21,1.17-.32,1.75C406.93,28.36,405.13,28,403.41,28.13Z"/><path class="cls-2" d="M123.94,76.82l.33,1.67a7,7,0,0,1-6.66-1.67c.64-.33,1.29-.65,1.94-1C121.06,76,122.64,75.74,123.94,76.82Z"/><path class="cls-2" d="M434.14,76c0-.7-.06-1.39-.1-2.09.93-1,2.27-2.24,2.93-.26S435.76,76,434.14,76Z"/><path class="cls-2" d="M281.91,14.2c-1,1.25-2.34,1-3.64,1.08C278.84,12.77,280.39,13.54,281.91,14.2Z"/><path class="cls-2" d="M412.94,72c.05-1,.11-2,.17-2.94q.06-.65.69-.51c.63,1.55,2.27,2.69,1.93,4.65Z"/><path class="cls-2" d="M295.22,12.17l-2.15-.85a1.36,1.36,0,0,1,1.76-.85C295.66,10.77,295.76,11.45,295.22,12.17Z"/><path class="cls-2" d="M358.25,9.92c.9-.41,1.81-.41,2,.68.1.45-.57,1.06-.89,1.6Z"/><path class="cls-2" d="M473.52,26.34l-.88,1.81L471,27.72l.24-1.89A1.82,1.82,0,0,1,473.52,26.34Z"/><path class="cls-2" d="M278.39,67.75c1,.65,1.25,1.4.28,2.3C277.74,69.38,277.58,68.63,278.39,67.75Z"/><path class="cls-2" d="M354.22,75.57c-.9.42-1.75.4-2.12-.65a1.32,1.32,0,0,1,.87-1.66C353.39,74,353.81,74.8,354.22,75.57Z"/><path class="cls-2" d="M515.23,29.8l-.44.73c-.11-.12-.35-.28-.33-.37a3.39,3.39,0,0,1,.36-.71Z"/></g></g></svg>