<svg xmlns="http://www.w3.org/2000/svg" xmlns:xlink="http://www.w3.org/1999/xlink" viewBox="0 0 1920 1029.71"><defs><style>.cls-1{fill:url(#linear-gradient);}.cls-2{fill:url(#linear-gradient-2);}.cls-3{fill:url(#linear-gradient-3);}.cls-4{fill:#c6cdc7;}.cls-5{fill:#b0a690;}.cls-6{fill:url(#linear-gradient-4);}.cls-7{fill:#dad7c5;}.cls-8{fill:url(#linear-gradient-5);}</style><linearGradient id="linear-gradient" x1="287.23" y1="517.71" x2="2207.23" y2="517.71" gradientUnits="userSpaceOnUse"><stop offset="0.25" stop-color="#fff"/><stop offset="0.67" stop-color="#fdfdfd"/><stop offset="0.82" stop-color="#f6f6f6"/><stop offset="0.93" stop-color="#ebebeb"/><stop offset="1" stop-color="#ddd"/></linearGradient><linearGradient id="linear-gradient-2" x1="720.24" y1="766.71" x2="1497.24" y2="766.71" xlink:href="#linear-gradient"/><linearGradient id="linear-gradient-3" x1="720.24" y1="500.71" x2="1497.24" y2="500.71" xlink:href="#linear-gradient"/><linearGradient id="linear-gradient-4" x1="720.24" y1="969.21" x2="1497.24" y2="969.21" xlink:href="#linear-gradient"/><linearGradient id="linear-gradient-5" x1="647" y1="213.35" x2="1315" y2="213.35" gradientUnits="userSpaceOnUse"><stop offset="0" stop-color="#414345"/><stop offset="0.9" stop-color="#282829"/><stop offset="1" stop-color="#252526"/></linearGradient></defs><g id="Layer_2" data-name="Layer 2"><g id="Layer_1-2" data-name="Layer 1"><rect class="cls-1" y="5.71" width="1920" height="1024"/><rect class="cls-2" x="604" y="633.71" width="777" height="266"/><rect class="cls-3" x="604" y="367.71" width="777" height="266"/><path class="cls-4" d="M1132.86,398.23c84.16,85.75-89.58,86.52-1.8,306.58-85.15,83.57-222.4,81.79-306.56-4,137.2-150-83.35-223,1.8-306.59S1048.7,312.47,1132.86,398.23Z"/><path class="cls-5" d="M1233.41,657.16c7.72,138.77-61.52,125.08-111.21,125.08-49.27,0-111.2-11.59-111.2-125.08s49.79-125.08,111.2-125.08S1225.68,518.39,1233.41,657.16Z"/><rect class="cls-6" x="604" y="908.71" width="777" height="121"/><path class="cls-7" d="M945.83,800.26c7.73,138.77-61.52,125.08-111.2,125.08-49.28,0-111.21-11.59-111.21-125.08s49.79-125.08,111.21-125.08S938.1,661.49,945.83,800.26Z"/><path class="cls-8" d="M1313.22,213.35c23.15,236-184.27,212.72-333.11,212.72C832.52,426.07,647,406.37,647,213.35S796.14.63,980.11.63,1290.07-22.65,1313.22,213.35Z"/></g></g></svg>