<?xml version="1.0" encoding="utf-8"?>
<!-- Generator: Adobe Illustrator 24.1.1, SVG Export Plug-In . SVG Version: 6.00 Build 0)  -->
<svg version="1.1" id="Layer_1" xmlns="http://www.w3.org/2000/svg" xmlns:xlink="http://www.w3.org/1999/xlink" x="0px" y="0px"
	 viewBox="0 0 711 504.8" style="enable-background:new 0 0 711 504.8;" xml:space="preserve">
<style type="text/css">
	.st0{fill:#DDDDDD;}
	.st1{opacity:0.3;fill:none;stroke:#333333;stroke-width:6;stroke-miterlimit:10;}
	.st2{opacity:0.3;fill:none;stroke:#333333;stroke-width:7;stroke-miterlimit:10;}
</style>
<g id="Layer_2_1_">
	<g id="Layer_1-2">
		<rect y="90.8" class="st0" width="711" height="414"/>
		<polyline class="st1" points="701.3,99.6 701.3,495.6 8.3,495.6 8.3,99.6 		"/>
		<line class="st2" x1="546" y1="102.6" x2="704.3" y2="102.6"/>
		<path d="M232.1,167.5H124.4c-4.3,0-4.3,0-4.3-4.1c0-3,0.1-5.9,0-8.9c0-1.8,0.7-2.5,2.5-2.4c0.8,0,1.5,0,2.3,0h214.7
			c4.9,0,4.9,0,4.9,4.6c0,2.5-0.1,5.1,0,7.6s-0.9,3.3-3.5,3.2c-15.5-0.1-31,0-46.6,0L232.1,167.5z"/>
		<path d="M273.6,27.2c-22.1,0-44.3-0.1-66.4,0.1c-3.2,0-4.3-0.9-4-3.9c0.2-3.1,0.2-6.1,0-9.2c-0.1-1.8,0.7-2.5,2.5-2.4
			c1.6,0.1,3.3,0,5,0h129.5c4.4,0,4.4,0,4.4,4.2c0,2.7-0.2,5.5,0,8.2s-1.3,3-3.6,3c-17.8,0-35.7,0-53.5,0L273.6,27.2z"/>
		<path d="M284.5,105.2c18.7,0,37.4,0.1,56.2,0c3,0,4.3,0.6,4,3.7c-0.2,3.1-0.2,6.1,0,9.2c0.1,2.1-0.9,2.9-3,2.7
			c-0.5-0.1-1.1,0-1.6,0c-37.1,0-74.2,0-111.3,0c-4.4,0-4.4,0-4.4-4.1c0.1-2.5,0.1-5.1-0.1-7.6c-0.4-3.2,1.1-3.9,4.2-3.9
			C247.1,105.3,265.8,105.2,284.5,105.2z"/>
		<path d="M316.3,73.9c-8.1,0-16.3-0.1-24.4,0c-2.4,0-3.4-0.7-3.2-3.1c0.2-3.1,0.2-6.1,0-9.2c-0.1-2.5,0.8-3.3,3.4-3.3
			c13.3,0.1,26.6,0,39.9,0c3.3,0,6.6,0.1,9.9,0c2,0,2.8,0.7,2.7,2.6c-0.1,3.3-0.1,6.5,0,9.8c0.1,2.4-0.8,3.1-3.2,3.1
			C333,73.8,324.6,73.9,316.3,73.9z"/>
		<path d="M367.8,109.2c0.1-12.2,11.9-19.5,22.9-14c2.7,1.2,4.8,3.4,5.8,6.2c0.4,1,1.7,2.7-0.1,3.2s-4,1.2-5.4-0.9
			c-3-4.5-5.7-5.7-10.2-4.7c-3.6,0.8-6,3.9-6.5,8.6c-0.4,3.3,0.1,6.6,2.2,9.3c2.8,3.6,8.1,4.3,11.7,1.4c1-0.8,1.8-1.7,2.3-2.8
			c1.2-2,3.6-2.8,5.7-2.1c1.4,0.6,0.8,1.5,0.5,2.4c-1.3,4.7-5.2,8.2-10,9c-5.9,1.2-11.2,0-15.3-4.5
			C368.6,117.2,367.8,113.3,367.8,109.2z"/>
		<path d="M367.8,15.7c0.1-6,2.3-11,8-13.9c5.1-2.6,11.2-2.4,16,0.6c2.1,1.1,3.7,3,4.5,5.2c0.4,1.1,2,2.8-0.1,3.5
			c-1.8,0.6-4.1,1.1-5.5-1.4c-2.1-3.7-4.8-5-8.8-4.5c-3.6,0.5-6.6,3.2-7.3,6.8c-0.9,3.4-0.6,7,1.1,10.1c1.5,2.9,4.6,4.6,7.8,4.3
			c3.4-0.1,5.9-1.5,7.1-4.7c0.7-1.8,4.2-2.8,5.8-1.8c1.2,0.7,0.5,1.7,0.2,2.5c-1.6,5.1-5.4,8.1-10.8,9c-6.1,0.9-11.4-0.7-15.1-5.7
			C368.6,22.9,367.6,19.3,367.8,15.7z"/>
		<path d="M412.9,31.8c-4.8,0.1-9.2-2.6-11.2-7c-2.2-5-1-11.2,2.8-14.7c3.6-3.2,8.8-4,13.2-2.2c4.4,2,7.1,6.6,6.7,11.4
			c-0.2,1.8-1.4,1.8-2.8,1.8c-4.1,0-8.1,0.1-12.2,0c-2.7-0.1-2.7,1.2-1.7,2.9c1.9,3,5.9,4,8.9,2.1c0.1,0,0.2-0.1,0.2-0.2
			c0.5-0.4,0.9-1,1.5-1.3c1.6-0.9,3.8-1.1,5-0.1s-0.5,2.7-1.5,3.7C419.5,31,416.3,31.8,412.9,31.8z M412.8,16.7c1.1,0,2.2,0,3.3,0
			c0.7,0,1.6,0.2,2.1-0.6s-0.2-1.6-0.7-2.3c-1.8-2.5-6-2.9-8.4-0.7c-0.9,0.8-2,1.8-1.5,2.9s1.9,0.6,3,0.7
			C411.3,16.8,412,16.8,412.8,16.7z"/>
		<path d="M485.4,31.8c-4.8,0.1-9.2-2.6-11.2-7c-2.2-4.8-1-11.3,2.8-14.7c3.6-3.2,8.7-4.1,13.2-2.2c4.4,2,7.2,6.5,6.8,11.3
			c-0.2,1.8-1.3,1.9-2.7,1.9c-4.1,0-8.1,0.1-12.2,0c-2.6,0-2.8,1.1-1.8,2.9c1.9,3.1,5.9,4,8.9,2.1c0.1,0,0.1-0.1,0.2-0.1
			c0.4-0.3,0.8-0.7,1.2-1.1c1.7-1.2,4-1.4,5.2-0.3c1.3,1.3-0.6,2.8-1.6,3.9C492.1,30.8,489,31.8,485.4,31.8z M484.8,16.8
			c0.7,0.1,1.3,0.1,2,0c1.3-0.3,3.6,1,3.8-1.1s-1.6-3.4-3.7-3.7c-1.7-0.5-3.6-0.1-5,1c-1,0.8-2.3,1.8-1.9,3.1s2.1,0.6,3.2,0.8
			C483.7,16.8,484.2,16.8,484.8,16.8z"/>
		<path d="M509.1,162.6c0,2,0,4,0,6c0,0.9,0.3,2.1-0.9,2.5s-2.7,0.8-3.6-0.5s-1.6-0.8-2.6-0.1c-2.9,2-6.6,2.2-9.7,0.7
			c-2.8-1.1-4.5-3.9-4.4-6.8c0-2.9,1.8-5.4,4.5-6.4c2.5-0.9,5.1-1.3,7.8-1.1c1,0,2.4,0.6,2.8-0.8c0.5-1.4-0.1-2.9-1.3-3.6
			c-2-1.4-4.7-1.1-6.3,0.7c-0.5,0.5-0.7,1.2-1.2,1.5c-1.3,0.5-3,0.8-4.1-0.1s-0.3-2.1,0.3-3.1c1.9-3.2,6.3-4.6,11.5-3.7
			c4,0.7,6.5,3,7,6.9c0.3,2.7,0.3,5.5,0.4,8.2L509.1,162.6z M498.8,160.9c-2.5,0.2-4.9,0.6-5,3.5c0,2.3,1.8,3.1,4,3.2
			c2.8,0,5.1-2,5-4.3C502.8,160.4,500.4,161.3,498.8,160.9L498.8,160.9z"/>
		<path d="M425.8,113.1c0,7.3-5.4,12.5-12.8,12.4s-12.4-5.3-12.3-12.5s5.2-12.3,12.5-12.3S425.8,105.7,425.8,113.1z M419.7,112.8
			c-0.1-4.6-2.6-7.5-6.6-7.5s-6.5,3.1-6.5,7.6s2.6,7.6,6.5,7.7C417.2,120.7,419.8,117.6,419.7,112.8z"/>
		<path d="M435.9,159.8c0-7.4,4.9-12.4,12.3-12.4s12.7,5.1,12.6,12.6c-0.1,7.2-5.3,12.3-12.6,12.2S435.9,167.2,435.9,159.8z
			 M454.8,159.9c0.1-4.5-2.3-7.4-6-7.7c-4.4-0.3-7,2.5-7,7.6c0,4.7,2.5,7.6,6.4,7.6S454.8,164.4,454.8,159.9L454.8,159.9z"/>
		<path d="M386.4,66.2c0-7.3,5.1-12.4,12.3-12.4s12.6,5.2,12.6,12.5s-5.2,12.4-12.8,12.3S386.4,73.7,386.4,66.2z M392.3,66.3
			c0,4.7,2.4,7.5,6.5,7.5s6.5-2.9,6.5-7.5s-2.6-7.8-6.7-7.7S392.3,61.6,392.3,66.3L392.3,66.3z"/>
		<path d="M567.4,159.8c0,7.4-5.2,12.4-12.7,12.4c-7.3-0.1-12.3-5.1-12.3-12.4s5-12.3,12.4-12.4
			C562.3,147.4,567.4,152.4,567.4,159.8z M561.4,159.4c0-0.4-0.1-1.1-0.2-1.7c-0.5-3.4-2.7-5.5-6-5.6s-5.6,1.6-6.5,5
			c-0.6,2.2-0.4,4.4,0.5,6.5c1.3,3.1,5,4.6,8.1,3.3c0.1-0.1,0.2-0.1,0.4-0.2C560.7,165.3,561.3,162.6,561.4,159.4L561.4,159.4z"/>
		<path d="M382,159.7c0-2.9,0-5.9,0-8.9c0-1-0.3-2.3,1.1-2.6c1.2-0.3,2.8-0.7,3.5,0.8c1,1.7,1.7,0.9,2.8,0.1c2.8-2,6.6-2.3,9.7-0.7
			c3.3,1.5,4.5,4.2,4.6,7.5c0,4.3-0.1,8.6,0.1,13c0.1,2.1-0.9,2.7-3,2.7s-3-0.5-3-2.7c0.1-3.8,0.1-7.6,0-11.4
			c-0.1-3.5-1.7-5.1-4.9-5.1s-4.9,1.6-5,5c-0.2,3.8-0.1,7.6,0,11.4c0,2-0.6,2.8-2.8,2.8s-3.2-0.6-3.1-2.9
			C382.1,165.6,382,162.7,382,159.7z"/>
		<path d="M572.1,159.6c0-2.9,0-5.9,0-8.8c0-1-0.3-2.3,1.2-2.6c1.2-0.2,2.8-0.6,3.5,0.8s1.4,1.1,2.5,0.3c2.9-2.3,7-2.6,10.2-0.8
			c3.5,1.7,4.4,4.7,4.3,8.2c0,3.9-0.1,7.8,0,11.7c0,2-0.3,3.1-2.8,3.1s-3.2-1-3.1-3.2c0.1-3.6,0.1-7.2,0-10.7s-1.7-5.2-4.7-5.3
			c-3.3-0.1-5.1,1.7-5.2,5.2c-0.1,3.8-0.1,7.6,0,11.4c0.1,2.2-0.9,2.6-3,2.6s-3.1-0.4-3-2.6C572.3,165.8,572.1,162.7,572.1,159.6z"
			/>
		<path d="M409.5,159.6c0-2.9,0-5.9,0-8.9c0-1-0.3-2.3,1.2-2.6c1.2-0.2,2.8-0.6,3.5,0.9c0.8,1.7,1.5,0.9,2.5,0.2
			c2.9-2.2,6.7-2.5,9.9-0.8c3.5,1.6,4.6,4.6,4.6,8.1c0,4.1-0.1,8.2,0,12.3c0.1,2.2-0.9,2.6-3,2.6s-3.1-0.4-3-2.6
			c0.1-3.8,0.1-7.6,0-11.4c-0.1-3.5-1.7-5.1-4.8-5.2c-3.3,0-5,1.7-5.1,5.3s-0.1,7.4,0,11.1c0,1.9-0.4,2.9-2.7,2.8
			c-2.1-0.1-3.4-0.3-3.2-2.7C409.6,165.7,409.5,162.6,409.5,159.6z"/>
		<path d="M429.4,19.3c0-2.8,0-5.7,0-8.5c0-1-0.5-2.4,1-2.7s2.9-0.8,3.8,0.8c0.7,1.3,1.3,1,2.3,0.3c3-2.4,7.2-2.8,10.5-0.8
			c3.4,1.8,4.3,4.8,4.2,8.3c-0.1,4-0.1,8,0,12c0,2-0.9,2.5-2.8,2.5s-3.3-0.1-3.2-2.5c0.1-3.8,0.1-7.6,0-11.4
			c-0.1-3.5-1.6-5.2-4.7-5.3c-3.2-0.1-5.1,1.7-5.2,5.2c-0.1,3.8-0.1,7.6,0,11.4c0.1,2.2-1,2.6-3,2.6s-3.1-0.5-3-2.7
			C429.5,25.4,429.4,22.3,429.4,19.3z"/>
		<path d="M430.1,109.8c0-1.8,0.1-3.6,0-5.4c-0.1-2.1,0.2-3.3,2.9-3.3s3.1,1.2,3,3.3c-0.1,3.5-0.1,7,0,10.4c0.1,3.8,1.6,5.6,4.7,5.6
			s4.5-1.7,4.6-5.7c0.1-3.7,0.1-7.4,0-11c-0.1-2.2,1.1-2.6,3.1-2.6s2.9,0.5,2.8,2.5c-0.1,4.2,0.1,8.4-0.1,12.6
			c-0.3,5.5-4.6,9.1-10.6,9.1s-10.2-3.7-10.4-9.2C430.1,114.1,430.2,112,430.1,109.8L430.1,109.8z"/>
		<path d="M370.8,68.2c0-1.9,0-3.8,0-5.7c0-1.7,0.4-3.4-2.4-4c-1.8-0.3-1.3-2.2,0.1-2.8c1.8-0.8,2.2-1.9,2.4-3.7
			c0.5-5.7,5-8.7,10.9-7.6c1.7,0.3,2.4,1.2,2.3,2.8c-0.1,1.9-1.3,1.8-2.8,1.7c-0.9-0.1-1.7-0.1-2.6,0.1c-1.8,0.6-2,2-2,3.6
			c0,1.8,1.4,1.6,2.6,1.7c0.7,0,1.3,0,2,0c1.4,0,2.6,0.1,2.6,2s-0.8,2.3-2.6,2.4c-4.6,0.2-4.6,0.3-4.6,4.8c0,3.9-0.1,7.8,0,11.7
			c0.1,2.3-1.2,2.6-3.1,2.6s-3.1-0.5-3-2.7S370.8,70.6,370.8,68.2z"/>
		<path d="M465.5,148c2-0.3,2.9,0.8,3.6,2.6c1.4,4,3,7.9,4.6,11.9c0.2,0.6,0.1,1.4,1,1.4s0.9-0.8,1.1-1.4c1.4-3.9,3-7.7,4.1-11.7
			c0.9-2.9,2.9-3,5.3-2.8c1.4,0.1,1.7,0.8,1.2,1.9c-2.9,6.7-5.8,13.4-8.7,20.1c-0.8,1.7-2.4,1.1-3.7,1.3c-1.4,0.2-2.8-0.6-3.2-2
			c-2.5-6.1-5.2-12.1-7.8-18.1C461.6,148.2,461.8,148,465.5,148z"/>
		<path d="M477.2,112.7c0-1.6,0-3.2,0-4.7c0.2-1-0.5-2-1.5-2.2c-0.1,0-0.1,0-0.2,0c-2.5-0.6-2-2-0.4-3c2.1-1.3,3.8-3.2,5-5.4
			c0.4-0.9,1.3-1.3,2.2-1c0.8,0.3,1.2,1.1,0.9,1.8c-0.4,2.9,1.2,3.4,3.7,3.2c1.7-0.2,2.7,0.4,2.6,2.3s-1,2.3-2.5,2.1
			c-3.2-0.4-4,1.1-3.8,3.8c0.2,2.5,0.1,5.1,0,7.6c0,2.7,1.4,3.5,4,3.1c1-0.2,2.5-1.5,2.8,0.7c0.2,1.4,0.4,2.9-1.6,3.7
			c-5.1,2.1-10.4-0.6-11-5.9c-0.1-2-0.1-4,0-6L477.2,112.7z"/>
		<path d="M523.8,171.8c-5.1,0-7.9-2.4-8.2-6.8c-0.2-3.3-0.1-6.5-0.1-9.8c0-1.4,0.1-2.6-2-2.9c-1.7-0.2-1.6-1.9-0.5-2.6
			c2.3-1.5,4.3-3.6,5.6-6.1c0.4-0.7,1.2-1,2-0.7c1,0.2,1,1.1,0.9,1.8c-0.4,2.8,1,3.6,3.6,3.3c1.7-0.2,2.6,0.4,2.6,2.3
			c0,2.1-1.3,2.2-2.8,2c-2.6-0.3-3.6,0.7-3.4,3.2c0.2,2.7,0.1,5.5,0,8.2s1.4,3.6,4,3.1c1-0.2,2.5-1.4,2.8,0.6
			c0.3,1.6,0.5,3.5-2.1,3.9C525.3,171.5,524.3,171.7,523.8,171.8z"/>
		<path d="M466,31.6c-5.1,0-7.9-2.4-8.1-6.7c-0.2-2.6,0-5.3-0.1-7.9c-0.1-2,1-4.5-2.5-5.2c-1.3-0.3-0.8-1.9,0.2-2.5
			c2.2-1.4,4-3.3,5.2-5.6c0.3-0.8,1.3-1.3,2.1-1c0.8,0.2,1.2,1,0.9,1.8c0,0,0,0,0,0c-0.4,2.9,0.9,3.8,3.7,3.5
			c1.6-0.2,2.5,0.3,2.5,2.1s-0.9,2.3-2.5,2.1c-3.3-0.5-3.9,1.1-3.7,3.8s0,5.3,0,7.9s1.4,3.3,3.9,2.9c1-0.2,2.4-1.5,2.9,0.4
			c0.4,1.5,0.7,3.5-1.9,4C467.6,31.2,466.5,31.5,466,31.6z"/>
		<path d="M375.7,156.1c0,4.2-0.1,8.4,0,12.6c0.1,2.4-1,2.8-3.1,2.7c-1.9,0-3.1-0.3-3-2.5c0.1-8.5,0.1-17,0-25.5
			c0-2.4,1.3-2.4,3.1-2.4s3.1,0.3,3,2.5C375.6,147.7,375.7,151.9,375.7,156.1z"/>
		<path d="M462.3,104.8c2-2.1,3.9-3.6,6.6-3.7c1.9-0.1,2.3,0.9,2.2,2.3s0.7,3-1.8,3.4c-5.9,0.9-6.4,1.6-6.5,7.4c0,2.5-0.1,5.1,0,7.6
			c0.1,2.1-0.6,3-3,3s-3.1-0.7-3-2.9c0.1-5.9,0-11.8,0.1-17.7c0-1.2-0.5-2.7,1.6-2.9c1.9-0.2,3,0.5,3.3,2.2
			C461.9,104,462.1,104.4,462.3,104.8z"/>
		<path d="M507.4,11.1c1.6-1.6,2.9-3.1,5-3.3c1.6-0.2,3.5-0.9,3.7,1.7c0.1,1.9,0.4,3.7-2.7,3.9c-4.2,0.3-5.5,1.8-5.6,5.9
			c-0.1,3-0.1,6.1,0,9.1c0.1,2.1-0.8,2.7-2.9,2.7s-3.2-0.5-3.1-2.8c0.1-5.8,0-11.6,0.1-17.3c0-1.3-0.5-2.9,1.7-3.1
			c1.8-0.2,3,0.4,3.2,2.2C506.8,10.3,507,10.6,507.4,11.1z"/>
		<path d="M421.7,58c1.7-2.1,3.5-3.5,6.2-3.6c1.6-0.1,2.6,0.4,2.4,2.1c-0.2,1.4,0.9,3.2-1.9,3.6c-5.8,0.8-6.3,1.5-6.3,7.1
			c0,2.7-0.1,5.5,0,8.2c0.1,2.3-1.3,2.5-3.2,2.5s-2.9-0.4-2.9-2.5c0.1-5.9,0-11.8,0-17.7c0-1.2-0.8-2.9,1.5-3.2
			c1.4-0.4,2.8,0.4,3.2,1.7c0,0.2,0.1,0.3,0.1,0.5C421.2,57.2,421.4,57.6,421.7,58z"/>
		<path d="M538,159.8c0,3.1-0.1,6.1,0,9.2c0.1,2.4-1.4,2.4-3.2,2.4S532,171,532,169c0.1-6.2,0.1-12.4,0-18.6c0-2.1,1.3-2.4,3-2.3
			s3.1,0.2,3,2.3C537.9,153.5,538,156.7,538,159.8z"/>
		<path d="M534.9,138c2.3,0.1,4,1.1,3.9,3.4s-1.8,3.3-4,3.2c-2.1-0.1-3.6-0.9-3.7-3.2C531.1,139,532.7,138.2,534.9,138z"/>
		<line class="st2" x1="4.7" y1="101.7" x2="162.9" y2="101.7"/>
	</g>
</g>
</svg>
