<?xml version="1.0" encoding="utf-8"?>
<!-- Generator: Adobe Illustrator 24.1.1, SVG Export Plug-In . SVG Version: 6.00 Build 0)  -->
<svg version="1.1" id="Layer_1" xmlns="http://www.w3.org/2000/svg" xmlns:xlink="http://www.w3.org/1999/xlink" x="0px" y="0px"
	 viewBox="0 0 1033.2 1214.1" style="enable-background:new 0 0 1033.2 1214.1;" xml:space="preserve">
<style type="text/css">
	.st0{fill:#D9B29C;}
</style>
<path class="st0" d="M7.5,50.1c16-29.6,59.7-35.3,121.4-43.2c24-3.1,60.7-5.6,176.9,10.3c81.5,11.1,78.1,14.3,117.3,18.5
	c57.5,6.1,83.5,1.1,242.7-14.4C816,6.6,842,6.3,879.8,15.1c44.9,10.5,115.2,26.8,141.9,82.3c30.8,64-14.4,142.8-41.1,189.3
	c-58.5,101.8-102.8,85.9-131.7,152.2c-19,43.8-20.3,97.8,96.7,395c42.9,109,84.7,132.6,74.1,181c-18.3,83.1-133.7,144.7-234.5,150.2
	c-93.8,5.1-99.7-42.6-234.5-55.5c-89.3-8.6-171.4,4.2-236.6,14.4c-125.7,19.6-140.5,40.1-179,24.7
	C54.6,1116.3,33.9,992.3,15.8,883.2C4.5,815.3-16.6,680.1,26.1,515c34.7-134.2,75.4-148.2,65.8-230.4
	C77.8,163.3-21.2,103.4,7.5,50.1z"/>
</svg>
