<?xml version="1.0" encoding="utf-8"?>
<!-- Generator: Adobe Illustrator 24.1.1, SVG Export Plug-In . SVG Version: 6.00 Build 0)  -->
<svg version="1.1" id="Layer_1" xmlns="http://www.w3.org/2000/svg" xmlns:xlink="http://www.w3.org/1999/xlink" x="0px" y="0px"
	 viewBox="0 0 1333.5 1501" style="enable-background:new 0 0 1333.5 1501;" xml:space="preserve">
<style type="text/css">
	.st0{fill:#D9B29C;}
</style>
<path class="st0" d="M150.2,86.3c52-47.3,111.3-59.8,158.6-69.7c86.5-18.2,157.5-2.8,233.5,14.5c110.7,25.2,97,43,174,55.2
	c50.2,7.9,65.8,1.9,268.7-14.5c115.9-9.4,136.6-9.5,165.2,8.7c60.2,38.4,89,115.4,114.5,185.9c37.2,102.9,47.1,194.1,52.9,264.4
	c11.2,136.6,10.7,228.7,2.2,514.2c-9.3,312.3-11.9,351.3-41.9,386.4c-44.4,51.9-86.5,22.5-304,17.4c-162.1-3.7-302.7,8.8-332.6,11.6
	c-81.5,7.6-163.1,12.2-244.5,20.3c-80.1,8-134.4,14.9-200.5-17.4c-22.3-10.9-68.2-34-105.7-87.2c-52.8-74.8-59.8-167.7-66.1-287.6
	C9.9,808,2.5,667.7,11.4,574.4C32.8,349.6,49.1,178.2,150.2,86.3z"/>
</svg>
