<?xml version="1.0" encoding="utf-8"?>
<!-- Generator: Adobe Illustrator 24.1.1, SVG Export Plug-In . SVG Version: 6.00 Build 0)  -->
<svg version="1.1" id="Layer_1" xmlns="http://www.w3.org/2000/svg" xmlns:xlink="http://www.w3.org/1999/xlink" x="0px" y="0px"
	 viewBox="0 0 1033.2 1501" style="enable-background:new 0 0 1033.2 1501;" xml:space="preserve">
<style type="text/css">
	.st0{fill:#D9B29C;}
</style>
<path class="st0" d="M7.5,61.3C23.5,23.4,67.2,16.2,128.9,6c24-4,60.7-7.1,176.9,13.2c81.5,14.2,78.1,18.4,117.3,23.7
	c57.5,7.8,83.5,1.4,242.7-18.4C816,5.7,842,5.3,879.8,16.6C924.7,30,995,50.9,1021.7,121.9c30.8,82-14.4,182.9-41.1,242.3
	c-58.5,130.3-102.8,109.9-131.7,194.9c-19,56.1-20.3,125.2,96.7,505.8c42.9,139.6,84.7,169.8,74.1,231.8
	c-18.3,106.4-133.7,185.3-234.5,192.3c-93.8,6.5-99.7-54.6-234.5-71.1c-89.3-11-171.4,5.4-236.6,18.4
	c-125.7,25.1-140.5,51.4-179,31.6c-80.5-41.3-101.2-200.2-119.3-339.8c-11.3-87-32.4-260.2,10.3-471.5
	c34.7-171.8,75.4-189.8,65.8-295C77.8,206.4-21.2,129.6,7.5,61.3z"/>
</svg>
