<svg xmlns="http://www.w3.org/2000/svg" viewBox="0 0 1089 114.98"><defs><style>.cls-1{fill:#2d3340;}.cls-2{fill:#d9b29c;}</style></defs><g id="Layer_2" data-name="Layer 2"><g id="Layer_1-2" data-name="Layer 1"><path class="cls-1" d="M227.23,90.8l-.95-1.08,2-2.88,1,.88Z"/><path class="cls-1" d="M447.22,86.84l1,.88-2,3.08-.95-1.08Z"/><rect class="cls-2" y="53.98" width="1089" height="61"/><path class="cls-1" d="M334.84,93.22c-3.38,2.08-6.73,1.25-9.95,1.4-3,.14-6,0-9,0-4.94.15-10.11.75-9.66-8-5.16,6.71-10.81,9.13-17.76,9-9.33-.16-16.67-5-19.93-13.8a50,50,0,0,1-.16-34.18C272.72,35,289.12,28.82,301,35.41c3.8,2.1,4.35,1.23,4.28-2.54-.15-8.13-.1-16.27,0-24.41,0-3.12-.25-5.71-4.37-5.59-1.06,0-2.67,0-2.51-1.63C298.54,0,299.93.13,300.88.13c8.16,0,16.33,0,24.49,0,3.58,0,3.91,2.23,3.9,5,0,14,0,27.89,0,41.84,0,12.45.1,24.9-.05,37.35C329.16,88.46,329,92.36,334.84,93.22ZM305.43,62c-.45-5.2,1-12.07-.89-18.73-1-3.36-3.05-6.17-7-6.05-4.1.12-5.63,3.34-6.11,6.77a150.31,150.31,0,0,0-.17,39.64c.37,2.92,1.51,5.65,4.91,6.08s5.73-1.4,7.45-4.07a13,13,0,0,0,1.77-7.15C305.43,73.55,305.43,68.58,305.43,62Z"/><path class="cls-1" d="M890.35,92.66c-3.11,2.65-5.83,1.86-8.38,2-3.5.12-7,.14-10.5,0-9.24-.35-7.23,1.54-10.74-7.07A18.77,18.77,0,0,1,845,95.71c-10.52.11-17.68-4.21-21.17-14.08a49.91,49.91,0,0,1,0-34.19c4.53-12.51,20.54-18.3,32.48-12.21,1,.51,2,1.14,3.32,1.93,1.26-2.55.69-5,.73-7.4.09-5.81,0-11.63,0-17.44,0-7.25,0-7.25-6.49-10.82.32-.37.61-1,.95-1A224.2,224.2,0,0,1,881.75.33c2.79.1,2.57,2.62,2.57,4.59,0,9.46,0,18.92,0,28.39q0,25.89,0,51.8C884.33,88.87,883.7,92.94,890.35,92.66Zm-29.18-29c0-4.14,0-8.27,0-12.41A23.83,23.83,0,0,0,860,43.47c-1.18-3.58-3.13-6.44-7.3-6.24-4.44.21-5.45,3.82-6.13,7.31a62.89,62.89,0,0,0-.77,7.4,153.89,153.89,0,0,0,.61,31.68c.39,2.92,1.51,5.62,4.86,6.14s6.2-1.05,7.88-4.05a18.59,18.59,0,0,0,2-9.11C861.18,72.29,861.16,68,861.17,63.69Z"/><path class="cls-1" d="M111.51,56c4.67,0,9.33,0,14,0,1.12,0,2.56-.21,3,1.13s-.87,1.55-1.68,2c-2.22,1.24-1.74,3.41-1.75,5.33-.06,8.47,0,16.93,0,25.4,0,3.22-.42,5.48-4.52,2.82-3.32-2.16-7.13-1.08-10.67-.12-9.91,2.66-19.83,4.08-30.11,2.25-17-3-28.21-14.13-31.13-31.32a65.28,65.28,0,0,1,1.77-31A38.91,38.91,0,0,1,86.09,5.2c7.69-.36,15.32-.15,22.77,2.12,1.89.58,4.13,1.35,5.86.85,5.61-1.62,6,1.68,6.15,5.66.14,5.48.32,11,.43,16.42,0,1.1.27,2.59-1.28,2.84-1.38.22-2-1.1-2.49-2.1-3.37-6.31-7-12.46-12.17-17.53C95.66,4,82.63,6.62,77.48,19.09,74.23,26.94,74,35.3,73.54,43.55A134,134,0,0,0,75.32,73.8a35.68,35.68,0,0,0,4.47,12.08,13.87,13.87,0,0,0,10.95,7c7,.78,10.39-2.17,10.52-9.19.11-6.47-.07-13,.07-19.42.07-3.32-.63-5.57-4.6-5.35-1.08.06-2.74.05-2.59-1.53.14-1.42,1.76-1.29,2.88-1.3C101.85,56,106.68,56,111.51,56Z"/><path class="cls-1" d="M375.84,35.92c1.28-2.11,2.92-1.66,4.33-1.67,6.5-.06,13,.12,19.49-.08,4.11-.13,5.59,1.5,5.55,5.56-.15,14.61,0,29.21-.06,43.82,0,4.24-1,9,5.58,9.23C410,95,408.5,94.6,407.3,94.61c-6.66.07-13.32,0-20,0-2.54,0-4.6-.45-5-3.58-.43-3.7-1.79-2.58-3.59-.69-6.88,7.18-15.46,6.59-23.68,3.84-7.89-2.64-10.6-9.6-10.71-17.48-.13-9.79-.05-19.58-.1-29.37,0-5,2-11.08-6.61-11.31,1.5-2.34,3.33-1.79,4.89-1.81,6.49-.07,13,.21,19.48-.1,4.93-.24,6.29,1.82,6.22,6.44-.21,13.44-.12,26.88,0,40.33,0,3.36-.65,7.4,4,8.54,3.19.78,6.69-2.62,8.09-7.41a29.21,29.21,0,0,0,1-8.37c0-9.13.05-18.26,0-27.39C381.3,41.92,383,36.65,375.84,35.92Z"/><path class="cls-1" d="M817,92.88c-1.73,2.37-3.72,1.71-5.44,1.74-5.33.09-10.68-.25-16,.11-4.91.34-8.22-.75-8.24-6.1a1.22,1.22,0,0,0-1.91.36c-6,7.83-14.34,7.65-22.73,5.92-7.38-1.52-11.2-6.83-12.34-14-1.81-11.39-.51-22.87-.88-34.3-.15-4.53,1.7-10-5.87-10.64,1.57-2.21,3.38-1.69,5-1.7,5.83-.07,11.66,0,17.49,0,7.3,0,7.31,0,7.31,7.53,0,12,0,23.9,0,35.85A59.63,59.63,0,0,0,774,85c.28,2.1,1.23,3.8,3.5,4.37s4.25-.47,5.73-2.19A12.63,12.63,0,0,0,786.29,79c.14-12.61,0-25.23.23-37.84.06-3.41-2.32-4.28-4.88-5,1.23-2.3,2.89-1.85,4.29-1.86,6.49-.06,13,.09,19.49-.07,3.67-.09,5,1.38,4.93,5-.14,14.11-.08,28.22,0,42.33C810.33,86.5,808.33,92.61,817,92.88Z"/><path class="cls-1" d="M682.37,19.66c0,2.49.08,5,0,7.47-.06,1.38.69,3.39-1.22,3.86-1.53.37-1.91-1.53-2.64-2.57-2.68-3.8-5.11-7.8-8.08-11.36C664.16,9.58,656.4,6,646.49,9c-5.13,1.55-8.24,4.95-8.94,10.24s1.94,8.82,6.39,11.36c4.69,2.67,9.84,4,14.95,5.51A122.39,122.39,0,0,1,670.74,40c13.52,5.56,19.61,16.82,17.08,31.2S674.6,95,660.46,95.68c-8.59.44-16.9-1.11-25.23-2.83-1.89-.39-4.19-1.57-5.78-.08-4.89,4.61-4,.11-4.41-2.58-1-6.93-.57-13.91-.79-20.87,0-1.21-.54-3,1.29-3.28,1.37-.22,1.72,1.36,2.28,2.32,5,8.58,10.77,16.46,19.68,21.35,5.4,3,11.23,4.06,17.32,2,4.89-1.7,8.48-4.64,9.37-10,1-5.91-1.41-10.39-6.4-13.49s-11-4.75-16.72-6.42c-6.91-2-13.67-4.28-19-9.43-8.61-8.28-9.55-18.45-6.15-28.95s11.28-16.68,22.38-18a51.1,51.1,0,0,1,20.31,1.42c2.54.72,5.48,1.92,7.77,1.27,5.88-1.66,6.08,1.45,5.86,5.61-.11,2,0,4,0,6Z"/><path class="cls-1" d="M227.23,90.8c-5,5.77-17.4,6.73-24.79,1.94-5.7-3.69-7.65-12.37-4.22-19.2,3.32-6.6,9.8-7.46,16.08-8.32a76.28,76.28,0,0,1,10.48-.37c3.13,0,4.5-1.37,4.51-4.53,0-6.48.09-13-1.07-19.36-.88-4.82-4.42-6.77-8.3-4.72-2.93,1.55-3.37,4.56-1,6.88,5,4.94,3.55,12.56-3,15.25-5.4,2.22-11.86.75-14.45-3.29-2.91-4.54-2-11.53,2-15.64s9.24-5.28,14.55-5.86a61.35,61.35,0,0,1,19.4.5c9.16,1.91,13.36,6.34,14.85,15.67,1.53,9.58.45,19.23.93,28.83.16,3.36-1.91,8.77,2.79,9.38s3.89-5.13,5.07-8.32c.31-.87.12-2,1.15-2.59,2.7,8.17-2.55,17.4-10.74,18.39-8.56,1-16.75.3-22.27-7.72l-1-.88a49.77,49.77,0,0,0,1-14.3c-.1-1.93,1-4.86-2.18-5.21-2.82-.31-4.55,1.76-5.37,4.31a29.4,29.4,0,0,0-.54,15.68c.66,3,2.38,3.77,5.11,2.4Z"/><path class="cls-1" d="M446.21,90.8c-5,5.77-17.41,6.73-24.79,1.94-5.7-3.69-7.65-12.37-4.22-19.2,3.32-6.6,9.8-7.46,16.08-8.32a76.28,76.28,0,0,1,10.48-.37c3.13,0,4.5-1.37,4.51-4.53,0-6.48.09-13-1.07-19.36-.88-4.82-4.42-6.77-8.3-4.72-2.93,1.55-3.37,4.56-1,6.88,5,4.94,3.55,12.56-3,15.25-5.4,2.22-11.86.75-14.45-3.29-2.91-4.54-2-11.53,2-15.64s9.24-5.28,14.55-5.86a61.35,61.35,0,0,1,19.4.5c9.16,1.91,13.36,6.34,14.85,15.67,1.53,9.58.45,19.23.93,28.83.16,3.36-1.91,8.77,2.79,9.38s3.87-5.13,5.08-8.32c.32-.85-.09-2,1.18-2.46,2.66,8-2.6,17.27-10.78,18.26-8.56,1-16.75.3-22.27-7.72l-1-.88a49.42,49.42,0,0,0,1-14.3c-.09-1.93,1-4.86-2.17-5.21-2.82-.31-4.55,1.76-5.37,4.31a29.4,29.4,0,0,0-.54,15.68c.66,3,2.38,3.77,5.11,2.4Z"/><path class="cls-1" d="M481.4,35.62c7.09-.8,6.05-5.59,6.05-9.84,0-7.58,0-7.58,7.21-9.38,3.71-.92,7.48-1.68,11.13-2.82,4-1.24,6-.51,5.58,4.15a64.61,64.61,0,0,0,0,7c0,10.22-.84,9.46,9.33,9.58,2,0,4.33-.85,6.17,1.51-3.54,2-7.24,1-10.74,1.06-3.33.06-4.82,1.2-4.79,4.67.11,13.28,0,26.55.13,39.82,0,3.42.12,7.39,4.53,8.45,4.77,1.15,7.32-1.83,9.41-5.6,1.22-2.2,1.16-5.07,3.44-7.06,1.54,8.4-4.82,16.84-13.68,18.25a38.24,38.24,0,0,1-12.94-.07c-9.55-1.74-14.4-7.71-14.66-18.42s-.2-21.57,0-32.35C487.57,40.26,487.58,36.48,481.4,35.62Z"/><path class="cls-1" d="M740.06,35.69c-3.83,2-7.52,1.11-11,1.16s-4.78,1.26-4.75,4.7c.11,13.28,0,26.55.13,39.82.05,3.42.14,7.38,4.57,8.42,4.78,1.13,7.48-1.78,9.32-5.68,1.05-2.2,1.9-4.5,2.94-7,2.07,4.45-1.3,12.51-6.2,15.67-7,4.51-21.47,4-28.14-.92-5.26-3.9-6.3-9.61-6.4-15.51q-.3-15.91,0-31.85c.08-4.3,0-8-6.24-8.71,8-1.59,6.24-7.28,6.11-12-.11-4,1.3-6.15,5.37-6.92,4.73-.9,9.41-2.17,14-3.47,3.21-.89,4.72-.17,4.56,3.41s.23,7.32-.1,10.94c-.44,4.95,1.29,7,6.45,6.62C733.6,34.12,736.88,33.28,740.06,35.69Z"/><path class="cls-1" d="M173.74,94H136.05c7.17-1.67,5.46-7.16,5.48-11.71.05-12.44-.06-24.89.06-37.34,0-4.28.34-8.43-5.92-8.8,1.25-2.36,3.05-1.9,4.54-1.91,6.66-.06,13.33.06,20-.06,3.34-.06,5.57.7,5.29,4.65a2.69,2.69,0,0,0,.82,2.15c1.16.68,1.68-.59,2.28-1.3A17.28,17.28,0,0,1,183,33.19c5.06.16,9.2,2,11.39,6.67A14.6,14.6,0,0,1,193.32,55c-2.49,3.64-8,5-12.69,3.29a8.75,8.75,0,0,1-6.23-8.69c-.06-2.66.21-5,3.56-5.55a2.45,2.45,0,0,0,2.15-3.29c-.45-1.87-2.09-1.9-3.61-1.9-3.24,0-5.18,2-6.76,4.47-3.2,4.89-4.23,10.43-4.29,16.14-.09,8.63.12,17.27-.09,25.89-.11,4.28.54,7.29,5.83,6.68C172.13,92,173.23,92.11,173.74,94Z"/><path class="cls-1" d="M590.54,77.06c-.22,6.16-3.15,10.83-8.1,14.25-11,7.63-33.07,5.63-42.28-4.16-10.06-10.7-10.08-23.61-5.7-36.36,4-11.64,14.12-16.14,25.73-17.48a50.81,50.81,0,0,1,9,0c13.9.89,23,10.72,23,24.57,0,3.56-1.91,4.09-4.75,4.08-8.5,0-17,.18-25.48-.09-4.47-.13-6.1,1.59-5.6,5.85.46,3.78.56,7.62,1.28,11.35,1,5.2,2.9,10.09,8.73,11.68a17.31,17.31,0,0,0,16.75-3.88C586.25,84.11,587.81,80.25,590.54,77.06ZM569.33,50.42c-.11-3.14,0-6.29-.8-9.4-.67-2.59-1.7-4.76-4.74-5S558.86,37.7,558,40.5a44.83,44.83,0,0,0-1.56,15.76,3.23,3.23,0,0,0,2.43,3.31c6.93,2.22,10.48-.17,10.47-7.16C569.34,51.75,569.34,51.08,569.33,50.42Z"/><path class="cls-1" d="M992.43,77.8c-.86,7.22-5.2,12-11.34,15.25-13.25,7.07-34.59,1.83-42.09-10.23-7.41-11.9-6-30.83,3-40,10-10.29,29.28-13,41.69-5.94,6.76,3.87,11.59,14,10.66,21.75-.36,3-2.26,3.28-4.55,3.29-8.33,0-16.66.19-25,0-4.4-.12-6,1.53-5.72,5.83.27,4.47.16,8.94,1.39,13.32,3,10.69,15.81,14.23,24.3,6.8C988,84.94,989.61,80.94,992.43,77.8ZM959.16,50.52c0,1.49.12,3,0,4.48-.41,4.3,2.14,5,5.6,4.78,3.29-.23,7.39,1.1,7.41-4.62a90.57,90.57,0,0,0-1.26-14.35c-.38-2.38-1.42-4.52-4.3-4.76s-4.72,1.29-5.9,3.73C959,43.19,959.21,46.88,959.16,50.52Z"/><path class="cls-1" d="M1001.86,73.88c1.27,2.65,2.41,5.36,3.81,7.93,6,11,16.23,11.7,26.86,9.31a5.89,5.89,0,0,0,4.62-5.86c.09-2.79-1.39-4.65-3.76-6a34.76,34.76,0,0,0-9.37-3.36,62.23,62.23,0,0,1-11.82-4c-9.66-4.35-13.48-11.49-11.63-21.7a20.8,20.8,0,0,1,19-17,31.3,31.3,0,0,1,15.13,2.47c2.51,1.11,5,1.82,7.26-.76,2.09-2.35,2.89-.49,3,1.38.16,4.31.07,8.62,0,12.94,0,.83-.2,1.79-1.1,2s-1.44-.61-1.88-1.32c-1.29-2.13-2.42-4.37-3.9-6.36-4.79-6.44-13.83-9.17-21-6.48-2.63,1-4.78,2.43-4.93,5.59-.16,3.34,1.75,5.36,4.62,6.34,5.51,1.89,11.19,3.3,16.65,5.31,11.54,4.26,15.21,9.66,14.9,21.23-.29,10.75-6.68,18.25-17.43,19.78-6.3.89-12.68.76-18.61-2.13-3.22-1.57-6.18-2.37-9,.75-1.47,1.59-2.81,1.14-2.84-1.1-.1-6.24,0-12.47,0-18.71Z"/><path class="cls-1" d="M893.8,35.74c1.27-1.9,2.9-1.48,4.32-1.49,7-.06,14,.11,21-.08,3.88-.1,5.27,1.34,5.23,5.24-.16,14.44-.06,28.89-.06,43.34,0,7.71,0,7.71,6.15,11-11.77,1.19-23.56.77-35.9.09,8.32-2.19,5.73-8.42,5.8-13.35.17-11.62.06-23.25.06-34.87C900.39,38.26,900.39,38.26,893.8,35.74Z"/><path class="cls-1" d="M912.71,26c-8.42.05-12.53-3.84-12.53-11.84,0-7.48,4.39-11.73,12.24-11.81,8.26-.1,12.87,4.08,12.87,11.67S920.88,26,912.71,26Z"/></g></g></svg>