<?xml version="1.0" encoding="utf-8"?>
<!-- Generator: Adobe Illustrator 24.1.1, SVG Export Plug-In . SVG Version: 6.00 Build 0)  -->
<svg version="1.1" id="Layer_1" xmlns="http://www.w3.org/2000/svg" xmlns:xlink="http://www.w3.org/1999/xlink" x="0px" y="0px"
	 viewBox="0 0 1333.5 1501" style="enable-background:new 0 0 1333.5 1501;" xml:space="preserve">
<style type="text/css">
	.st0{fill:#D9B29C;}
</style>
<path class="st0" d="M26.1,84.5C46.3,51.9,88.8,46,281.1,39.3c133.4-4.7,200.1-7.1,275.7-6.2c169.2,2,255.2,3.3,325,22.6
	c88.5,24.5,97.6,45,174.9,53.5c95,10.5,136.8-14.4,191.3,18.5c35.4,21.4,71.4,64.2,78.2,115.2c13.4,100.6-99.1,142.7-88.5,246.9
	c5.2,51.5,33.5,48.9,61.7,121.4c31.2,80.1,13.4,126.3,8.2,269.5c-4.3,117.4,7.2,98,6.2,290.1c-1,178.6-11.1,221.8-43.2,257.1
	c-42.8,47.2-102.8,56.3-152.2,63.8c-133.8,20.3-178-40-347.7-43.2c-68.8-1.3-43.1,9-179,16.5c-153.2,8.5-165.5-5.7-310.6,2.1
	c-125.4,6.7-140.3,18.6-172.8,0c-81.8-46.9-103.3-188.6-86.4-292.1c19.9-122.2,84.4-136.6,84.3-246.9c0-63.4-21.3-61.4-51.4-191.3
	C41,676.9,22,594.9,24,493.9c2.3-118.3,30.7-122.7,24.7-222.2C41.7,156,1,125,26.1,84.5z"/>
</svg>
