<?xml version="1.0" encoding="utf-8"?>
<!-- Generator: Adobe Illustrator 24.1.1, SVG Export Plug-In . SVG Version: 6.00 Build 0)  -->
<svg version="1.1" id="Layer_1" xmlns="http://www.w3.org/2000/svg" xmlns:xlink="http://www.w3.org/1999/xlink" x="0px" y="0px"
	 viewBox="0 0 1333.5 1501" style="enable-background:new 0 0 1333.5 1501;" xml:space="preserve">
<style type="text/css">
	.st0{fill:#D9B29C;}
</style>
<path class="st0" d="M150.2,272.5c52-32.9,111.3-41.6,158.6-48.5c86.5-12.7,157.5-1.9,233.5,10.1c110.7,17.6,97,29.9,174,38.4
	c50.2,5.5,65.8,1.3,268.7-10.1c115.9-6.5,136.6-6.6,165.2,6.1c60.2,26.7,89,80.3,114.5,129.4c37.2,71.6,47.1,135.1,52.9,184
	c11.2,95,10.7,159.1,2.2,357.8c-9.3,217.3-11.9,244.4-41.9,268.9c-44.4,36.1-86.5,15.6-304,12.1c-162.1-2.6-302.7,6.1-332.6,8.1
	c-81.5,5.3-163.1,8.5-244.5,14.2c-80.1,5.6-134.4,10.3-200.5-12.1c-22.3-7.6-68.2-23.7-105.7-60.6c-52.8-52-59.8-116.7-66.1-200.1
	C9.9,774.6,2.5,677,11.4,612.1C32.8,455.6,49.1,336.4,150.2,272.5z"/>
</svg>
