<?xml version="1.0" encoding="utf-8"?>
<!-- Generator: Adobe Illustrator 24.1.1, SVG Export Plug-In . SVG Version: 6.00 Build 0)  -->
<svg version="1.1" id="Layer_1" xmlns="http://www.w3.org/2000/svg" xmlns:xlink="http://www.w3.org/1999/xlink" x="0px" y="0px"
	 viewBox="0 0 1033.2 1214.1" style="enable-background:new 0 0 1033.2 1214.1;" xml:space="preserve">
<style type="text/css">
	.st0{fill:#D9B29C;}
</style>
<g id="Layer_2_1_">
	<g id="Layer_1-2">
		<path class="st0" d="M513.7,10.1C699.1-5.7,763,7.2,805.4,20c45.8,13.8,116.9,36.2,149.3,93.2c24.9,43.9,15.1,87.7,8.6,114.4
			c-22.1,91.2-86.2,99-106.4,168c-14.5,49.7,10.9,72.3,84.1,228.7c55.7,119.2,83.5,178.7,87.5,216c9.9,92.8-26.7,223-142.4,303.6
			c-218.9,152.4-553.1,10.1-569.6,2.8c-36.9-16.3-165.6-77.3-243.6-201.9C27,871.7,21.1,791.1,9.3,629.9
			c-11.4-155.8-17.1-233.7,12-316.3c21.9-62,68.7-194.9,211-261.2C280.5,30,358.2,23.3,513.7,10.1z"/>
	</g>
</g>
</svg>
