<?xml version="1.0" encoding="utf-8"?>
<!-- Generator: Adobe Illustrator 24.1.1, SVG Export Plug-In . SVG Version: 6.00 Build 0)  -->
<svg version="1.1" id="Layer_1" xmlns="http://www.w3.org/2000/svg" xmlns:xlink="http://www.w3.org/1999/xlink" x="0px" y="0px"
	 viewBox="0 0 1333.5 1501" style="enable-background:new 0 0 1333.5 1501;" xml:space="preserve">
<style type="text/css">
	.st0{fill:#D9B29C;}
</style>
<path class="st0" d="M26.1,247.2c20.2-23.6,62.8-27.8,255.1-32.7c133.4-3.4,200.1-5.1,275.7-4.5c169.2,1.4,255.2,2.4,325,16.3
	c88.5,17.6,97.6,32.4,174.9,38.6c95,7.6,136.8-10.4,191.3,13.4c35.4,15.4,71.4,46.3,78.2,83.1c13.4,72.6-99.1,102.9-88.5,178.1
	c5.2,37.1,33.5,35.3,61.7,87.6c31.2,57.8,13.4,91.1,8.2,194.4c-4.3,84.7,7.2,70.7,6.2,209.3c-1,128.9-11.1,160-43.2,185.5
	c-42.8,34-102.8,40.6-152.2,46c-133.8,14.7-178-28.8-347.7-31.2c-68.8-0.9-43.1,6.5-179,11.9c-153.2,6.1-165.5-4.1-310.6,1.5
	c-125.4,4.9-140.3,13.4-172.8,0c-81.8-33.8-103.3-136-86.4-210.8c19.9-88.2,84.4-98.5,84.3-178.1c0-45.8-21.3-44.3-51.4-138
	C41,674.7,22,615.5,24,542.6c2.3-85.4,30.7-88.5,24.7-160.3C41.7,298.8,1,276.5,26.1,247.2z"/>
</svg>
