<svg xmlns="http://www.w3.org/2000/svg" viewBox="0 0 878.9 996"><defs><style>.cls-1{fill:#d9b29c;}</style></defs><g id="Layer_2" data-name="Layer 2"><g id="Layer_1-2" data-name="Layer 1"><path class="cls-1" d="M438.36,6C596.57-7,651.07,3.62,687.25,14.14,726.32,25.49,787,43.94,814.63,90.76c21.28,36.11,12.85,72.08,7.32,94.05-18.88,75-73.58,81.4-90.77,138.16-12.38,40.85,9.33,59.42,71.74,188.08,47.51,98,71.27,146.94,74.67,177.64C886,765,854.81,872.07,756.07,938.31c-186.83,125.32-472,8.32-486.08,2.32-31.47-13.37-141.29-63.55-207.91-166C23,714.47,18,648.21,7.91,515.7-1.81,387.58-6.67,323.52,18.16,255.63c18.65-51,58.6-160.22,180.09-214.79C239.39,22.36,305.71,16.91,438.36,6Z"/></g></g></svg>