<?xml version="1.0" encoding="utf-8"?>
<!-- Generator: Adobe Illustrator 24.1.1, SVG Export Plug-In . SVG Version: 6.00 Build 0)  -->
<svg version="1.1" id="Layer_1" xmlns="http://www.w3.org/2000/svg" xmlns:xlink="http://www.w3.org/1999/xlink" x="0px" y="0px"
	 viewBox="0 0 1368 1080.7" style="enable-background:new 0 0 1368 1080.7;" xml:space="preserve">
<style type="text/css">
	.st0{fill:url(#SVGID_1_);}
	.st1{fill:#F3F4F2;}
	.st2{fill:#DDDDDD;}
	.st3{fill:#FDFDFD;}
	.st4{opacity:0.9;fill:#BF8C6F;}
	.st5{fill:url(#SVGID_2_);}
	.st6{fill:url(#SVGID_3_);}
	.st7{fill:url(#SVGID_4_);}
	.st8{fill:url(#SVGID_5_);}
	.st9{fill:#8C959D;}
	.st10{opacity:0.17;fill:#F2F2F2;}
	.st11{fill:url(#SVGID_6_);}
</style>
<linearGradient id="SVGID_1_" gradientUnits="userSpaceOnUse" x1="2.0709" y1="543.5392" x2="1369.5852" y2="543.5392">
	<stop  offset="0" style="stop-color:#2D3340"/>
	<stop  offset="0.391" style="stop-color:#2A303E;stop-opacity:0.9218"/>
	<stop  offset="0.6662" style="stop-color:#212737;stop-opacity:0.8668"/>
	<stop  offset="0.9051" style="stop-color:#11182C;stop-opacity:0.819"/>
	<stop  offset="1" style="stop-color:#091026;stop-opacity:0.8"/>
</linearGradient>
<path class="st0" d="M1369.6,1083.8H2.1V3.3h1367.5c0,104.6,0,209.3,0,313.9C1369.6,572.7,1369.6,828.3,1369.6,1083.8z"/>
<path class="st1" d="M65.1,504.7c-0.3-0.1-0.7-0.2-0.8-0.4c-0.1-0.2,0.2-0.5,0.3-0.8c0.3,0.1,0.7,0.2,0.8,0.4
	C65.5,504.1,65.2,504.4,65.1,504.7z"/>
<path class="st2" d="M134.6,474.9c0.1,0.3,0.3,0.5,0.4,0.8C134.8,475.4,134.6,475.2,134.6,474.9z"/>
<path class="st3" d="M530.7,649c0.2-0.2,0.5-0.6,0.6-0.5c0.6,0.4,0.3,0.8-0.1,1.1C531,649.3,530.9,649.1,530.7,649z"/>
<ellipse class="st4" cx="480.9" cy="251.9" rx="76.1" ry="72.3"/>
<linearGradient id="SVGID_2_" gradientUnits="userSpaceOnUse" x1="11.8571" y1="646.6056" x2="1366.4857" y2="646.6056">
	<stop  offset="0" style="stop-color:#091026;stop-opacity:0.8"/>
	<stop  offset="0.8818" style="stop-color:#091026;stop-opacity:0.8"/>
	<stop  offset="1" style="stop-color:#091026;stop-opacity:0.8"/>
</linearGradient>
<path class="st5" d="M1366.5,795.9H11.9c1.2-131.3,23.9-170.7,47.9-178c19.1-5.8,32.7,3.6,89.6,26.5c105.4,42.5,157.8,64.6,197.6,47
	c41.9-18.6,26.1-58.7,85.6-120.5c25.2-26.1,74.4-77.3,130.4-73.5c49.8,3.4,56.8,47.2,175.2,138.8c63.2,48.9,84.3,54.3,101.9,55.1
	c51.2,2.4,70.6-34,130.4-53.1c62-19.8,116.8-4.7,171.1,10.2C1260.3,681.3,1334.7,758.2,1366.5,795.9z"/>
<linearGradient id="SVGID_3_" gradientUnits="userSpaceOnUse" x1="3.6286" y1="644.7642" x2="1371.6285" y2="644.7642">
	<stop  offset="0" style="stop-color:#091026"/>
	<stop  offset="0.8818" style="stop-color:#091026;stop-opacity:0.8236"/>
	<stop  offset="1" style="stop-color:#091026;stop-opacity:0.8"/>
</linearGradient>
<path class="st6" d="M1371.6,765.3H3.6c29.4-7.1,73.9-21.6,119.8-53.2c32.4-22.3,41.9-37.6,71.4-65.5
	c40.3-38.1,96.8-91.5,174.4-112.6c93-25.3,175.4,6.7,189.1,12.3c33.7,13.7,72.9,44.6,151.3,106.5c15.2,12,27.2,21.7,37,29.7
	c19.9,16.3,27.5,33.7,47.4,37.5c6.3,1.2,11.3,0.8,16,0.4c22.2-1.9,38.1-12.9,43.2-16.4c30.3-20.7,121.4-77,168.7-98.3
	c29.5-13.2,85.5-38.4,150.2-24.6c68.1,14.6,116.2,66.1,148.1,100.3c20.7,22.2,35.5,42.8,45.1,57.3L1371.6,765.3z"/>
<linearGradient id="SVGID_4_" gradientUnits="userSpaceOnUse" x1="1503.2858" y1="644.4572" x2="1503.2858" y2="644.4572">
	<stop  offset="0" style="stop-color:#091026;stop-opacity:0.8"/>
	<stop  offset="0.8818" style="stop-color:#091026;stop-opacity:0.8"/>
	<stop  offset="1" style="stop-color:#091026;stop-opacity:0.8"/>
</linearGradient>
<path class="st7" d="M1503.3,644.5"/>
<linearGradient id="SVGID_5_" gradientUnits="userSpaceOnUse" x1="5.6857" y1="682.4176" x2="1368.6216" y2="682.4176">
	<stop  offset="0" style="stop-color:#2D3340"/>
	<stop  offset="0.391" style="stop-color:#2A303E;stop-opacity:0.9218"/>
	<stop  offset="0.6662" style="stop-color:#212737;stop-opacity:0.8668"/>
	<stop  offset="0.9051" style="stop-color:#11182C;stop-opacity:0.819"/>
	<stop  offset="1" style="stop-color:#091026;stop-opacity:0.8"/>
</linearGradient>
<path class="st8" d="M147.5,562.8c74.7-3.3,134.1,51.9,175.1,90c67,62.4,56.2,91.5,106.4,114.6c79.1,36.3,177-3.4,188.4-8.2
	c25.8-10.8,20.4-13.8,117.5-67.5c46.5-25.8,61.5-32.7,70.9-36.8c26.5-11.7,78.6-34.4,119.7-36.8c95.4-5.6,124.8,98.8,234.9,128.9
	c44.7,12.2,111.8,14.8,208.3-30.7v86H5.7V644.6C5.7,644.6,80.3,565.8,147.5,562.8z"/>
<path class="st9" d="M699.6,543.7"/>
<path class="st10" d="M182.5,1049.8c-0.2-13.2-0.5-25.8-0.7-38.5c-0.2-11.9-0.2-23.8-0.5-35.7c-0.1-4.2,1.2-5.7,4.9-5.6
	c5.9,0.1,11.8-0.1,17.7-0.6c4.2-0.3,5.7,1.4,5.5,6.1c-0.2,6.8,0,13.6,0.1,20.4c0,3-0.5,6.2,3.9,6.1c4-0.1,4.1-2.7,4.1-6
	c-0.4-17-0.5-34-1-51c-0.2-4.9,1.3-6.2,5.5-6c5.9,0.4,11.8,0.3,17.7,0c3.7-0.2,5.1,1.2,5.1,5.5c0,11.1,0.2,22.3,0.4,33.4
	c0.1,2.7-1.1,6.7,3.4,6.5c4.5-0.2,3-4.2,3-6.9c0.1-8.3,0.3-16.6-0.2-24.9c-0.3-5.9,2.9-5.1,6.1-5.3c3.6-0.3,5.8,0.3,5.7,5.3
	c-0.1,7.5,0.3,15.1,0.5,22.7c0,1.5,0.3,3,1.6,4.5c0.3-2.8,0.6-5.7,0.9-8.9c6.1,0.9,6.3-2.8,6.1-8.2c-0.7-19.4-0.9-38.9-1.1-58.4
	c0-1.7,1.6-4.8,2.5-4.9c13.3-0.6,26.6-0.7,40.2-0.9c0.1,6,0.2,11.3,0.3,16.5c0.3,11.7,0.4,23.4,1.1,35.1c0.2,3.3,2.1,6.5,3.4,9.6
	c0.2,0.5,2,0.9,2.1,0.7c0.7-1.1,1.5-2.4,1.5-3.7c0.1-8.3,0.1-16.6-0.1-24.9c-0.5-25.5-0.7-51-1.8-76.5c-0.3-6.4,4.4-9.4,5-14.7
	c0.3-2.3,2.1-4.4,2.2-6.7c0.8-10.7,0.6-21.4,1.9-32c1.1-9.1,3.9-17.9,5.9-26.9c1.6-7,3-14.1,4.9-22.8c1.1,2.7,1.9,4.1,2.2,5.7
	c2.7,15.4,5.2,30.8,7.9,46.1c0.2,1.2,0.6,2.9,1.4,3.5c5.1,3.3,4.5,8.8,4.5,14c0.1,4-0.2,8,0.3,11.9c0.3,2.8,1.7,5.4,2.6,8
	c0.5,1.5,1.6,3,1.7,4.5c1.1,15,2.4,29.9,2.9,44.9c0.7,22.8,0.8,45.7,1.4,68.5c0,1.7,1.6,3.3,2.4,4.9c0.8-1.7,2.1-3.4,2.2-5.2
	c0.2-6.2-0.6-12.5-0.1-18.7c0.6-5.9,0.7-13.8,4-17.1c4.9-4.8,3.6-9.6,3.9-14.8c0.1-1,1.9-2.8,2.8-2.7c3.8,0.3,4.1-2.1,4-5.4
	c-0.3-9.2-0.5-18.5-0.9-27.8c-0.2-4,1.1-5.5,4.6-5.3c3.7,0.2,7.5,0.2,11.2-0.2c4.4-0.4,5.5,1.8,5.5,6.3c0.1,11.5,0.4,23,0.9,34.5
	c0.1,1.7,1.7,3.3,2.6,4.9c0.7-1.6,1.9-3.3,1.9-4.9c0.1-11.7,0-23.4-0.3-35.1c-0.1-4.1,0.8-5.9,4.7-5.7c4.7,0.2,9.5-0.1,14.2-0.5
	c3.5-0.3,4.9,1.1,4.9,5.1c0.1,13.4,0.1,26.8,0.8,40.2c0.2,4.3,0.8,9.4,6.6,10c0.8,0.1,2,2.3,2.1,3.7c0.3,3.7,0.2,7.4,0.3,11.2
	c3.7,0.9,8.3-1,8.1,5.4c0,0.3,1.9,1.1,1.9,1c0.7-1.3,1.8-2.6,1.8-4c0-10-0.1-20-0.3-30c-0.4-24.6-0.9-49.1-1.4-73.6
	c-0.1-3.5,0.9-5.2,4.3-5.1c15.1,0.2,12.7-3,13.1,13.4c0.5,17.9,0.8,35.9,0.9,53.8c0,5,1.2,7.1,6.1,6.7c8.1-0.7,7.9,1.4,7.7-9.1
	c-0.5-24.2-0.8-48.4-1.6-72.5c-0.2-6.4,2.4-7,6.9-6.9c4.1,0.1,7.6-0.3,7.4,6.5c-0.3,10.2,0.5,20.4,0.5,30.6c0,4.3,1.2,6.4,5.3,5.8
	c2-0.3,4.1-0.1,6.1-0.1c0.7,0,1.4-0.1,2,0c0.8,0.2,2.2,0.7,2.2,0.9c-0.9,6.3,7.7,3.4,7.4,11c-0.7,21.1,0.4,42.3,0.6,63.4
	c0.1,7.7,6.5,9.2,9.3,14.2c0.5-0.2,1-0.4,1.6-0.7c0.1-2.1,0.4-4.2,0.4-6.3c-0.5-25.5-0.9-51-1.6-76.5c-0.1-5.1,1.1-7.4,5.8-6.9
	c1.7,0.2,3.4,0.1,5.1,0.1c9.5,0.1,9.4,0.1,9.7,10.9c0.4,22.1,0.9,44.2,1.3,66.3c0,1.3-0.1,2.7,0.3,3.9c0.3,0.9,1.2,1.5,1.8,2.3
	c0.7-0.8,1.9-1.5,2.2-2.5c2.9-11.7,3.8-23.4,3.4-35.7c-1.3-39.8-1.7-79.7-2.2-119.5c-0.1-10.8-0.3-21.9,1.9-32.3
	c1-4.8,0.2-11.4,5.3-15.4c2.4-1.8,3.3-6.1,4.8-9.3c0.2-0.5,0.3-1.4,0.6-1.5c6.6-2.1,3.9-8.1,4-12.6c0.2-7.7-0.1-15.5,0-23.2
	c0-1.8,0.1-4.8,1-5.3c6.6-3.4,5.2-9.8,6.1-15.8c0,1.9-0.3,3.9,0.2,5.5c0.8,2.7,2.2,5.1,3.2,7.7c1,2.4,2.7,4.9,2.8,7.4
	c0.4,8.9,0,17.8,0.6,26.6c0.2,3,1.8,6.3,3.5,8.8c2.9,4.4,6.5,8.2,9.6,12.4c0.7,1,0.2,3,0.6,4.4c0.7,2.5,1.8,4.9,2.6,7.3
	c0.5,1.4,1,2.8,1.1,4.2c0.3,5.5,0.3,11,0.5,16.4c0.1,3.2-0.9,6.8,2.8,8.9c0.7,0.4,0.7,2.8,0.7,4.2c0.6,33.8,1.3,67.6,1.8,101.4
	c0.4,21.7,0.7,43.4,1,65.2c0,1.5,0.3,3.1,0.5,4.6c0.4,0,0.9,0.1,1.3,0.1c0.3-1.3,0.8-2.6,0.8-3.8c0.2-23.3,0.5-46.7,0.3-70
	c0-5,1-7,5.5-6.6c2.9,0.2,5.8-0.3,8.6,0.1c4.7,0.7,5.8-1.8,5.7-6.5c-0.2-7.9-0.1-7.9,7-8c12.5-0.2,12.5-0.2,12.8,13.7
	c0,0.2,0,0.4,0,0.6c0.2,4.5-1,10.2,1.1,13.1c1.6,2.2,7.2,1.2,11,1.1c3.4-0.1,3.8,2,3.9,5c0.2,8.7,0.7,17.4,0.7,26.1
	c0,4.8,2.3,4.9,5.5,5.1c3.8,0.2,4.1-2.2,3.9-5.4c-0.1-2.8-0.4-5.7-0.2-8.5c0.6-7.3,1.5-14.6,2.5-21.8c0.1-1,1.8-2.3,2.8-2.3
	c6.1-0.3,12.2-0.2,18.3-0.3c3.7,0,3.2,3,3.2,5.6c0.4,20.4,0.7,40.8,1.2,61.2c0.1,2.5,1.4,4.9,2.1,7.3c0.7-2.4,2-4.8,2-7.2
	c0.1-8-0.9-16.2,5.1-24.5c1.4,5.4,3.1,9.6,3.6,14.1c0.7,6.5,0.4,13.2,0.8,19.8c0.1,1.5,1.5,2.8,2.4,4.2c0.8-1.4,2.1-2.7,2.2-4.2
	c0.2-3-0.6-6.1-0.2-9c0.2-1.8,1.7-3.4,2.7-5c0.7-1.3,1.9-2.4,2.2-3.8c0.4-2.4,0.4-4.9,0.3-7.3c-0.2-3.4,0.6-5.6,4.1-5.3
	c3.4,0.3,4.4-1.6,4.2-5.2c-0.3-6-0.4-12.1-0.3-18.1c0-1.4,1.3-4,2.1-4c1.5-0.1,3.1,1.2,4.5,2.1c1.3,0.8,2.6,2.7,3.7,2.5
	c1.1-0.1,2.5-1.9,3.1-3.3c1.2-2.9,6.4-5,7.7-2.5c2.5,5.1,6.3,3.3,9.7,3.7c2.2,0.2,4.5,0.4,6.6-0.2c1.5-0.5,2.6-2.3,4-3.5
	c1.2-1,2.4-1.9,3.5-2.9c0.8,1.3,2.3,2.6,2.4,4c0.3,7,0.3,14,0.4,21c0,2.6,0.1,5.2,3.4,5c2.7-0.2,6,0.9,6.8-3.8c0.3-2,1-3.9,2.5-5.9
	c0.8,2.8,1.6,5.6,2.4,8.4c0.5-0.1,1-0.1,1.5-0.2c-0.1-4.2-0.2-8.3-0.2-12.5c0-4.7-0.3-9.5,0.1-14.1c0.1-1.7,2-3.2,2.6-4.9
	c0.8-2.2,1.8-4.6,1.8-6.9c0.1-9.3,0-9.5,8.5-9.7c6.9-0.2,13.9,0.1,20.8-0.2c3.8-0.1,4.9,1.5,5,5.6c0.2,21.2,0.7,42.3,1.1,63.5
	c0.1,3.5,0.1,7,1.4,10.6c1.2-21.5,2-42.9,6.6-63.7c0.5-0.1,1.1-0.1,1.6-0.2c1.9,14.2,4.1,28.4,5.7,42.7c0.7,6.3,0.4,12.8,0.7,19.2
	c0.1,1.2,1.2,2.3,1.8,3.4c0.6-1.2,1.6-2.3,1.7-3.5c0.2-2.6-0.3-5.3-0.1-7.9c0.1-1,1.1-2.2,2-2.6c0.5-0.2,1.9,0.7,2.2,1.5
	c1.9,4.1,4.3,7.2,9,7.1c0.9,0,1.8,1.6,2.7,2.5c1,1,2,2,3,3c0.7-1.5,1.9-2.9,2-4.4c0.1-7-0.1-14-0.4-21c-0.2-3.7,0.7-5.9,4.4-5.5
	c4,0.4,5.2-1.4,5-5.9c-0.5-9-0.2-18.1-0.4-27.2c-0.1-3.8,0.8-5.5,4.5-5.4c5.7,0.1,11.5-0.2,17.2-0.5c2.6-0.1,3,2,4.4,3.8
	c4.6,5.9,2.6,12.9,4,21c2.6-1.6,4.4-2.9,6.3-4c1.4-0.8,2.9-1.7,4.4-1.8c3.9-0.3,7.8-0.4,11.7-0.3c3.1,0.1,4.1-1.5,4.1-4.8
	c0.2-12.5,0.7-25.1,0.9-37.6c0-3.7,0.7-5.8,4.5-5.4c1.5,0.2,3,0,4.6-0.1c2.9-0.3,3.9,1.3,3.9,4.4c0.1,5.5,0.2,11,0.6,16.4
	c0.1,1.5,1.5,4,2.3,4c4.8-0.2,4.5,3.4,4.5,6.8c0.3,20.8,0.6,41.6,0.8,62.3c0.1,4.1,0.1,8.2,0.2,12.6c2.4,0,4.4-0.1,6.8-0.1
	c-0.1-3.1-0.4-5.7-0.1-8.3c0.3-2.6,1.3-5.1,1.9-7.7c0.4-1.6,0.8-3.2,0.8-4.8c-0.1-7.7-0.5-15.5-0.4-23.2c0-2.4,1.3-4.7,1.8-7.1
	c0.5-2.3,1.2-4.8,0.8-7c-1.4-8.5,4.6-12.4,8.7-17.3c0.8-1,4.1,0.6,7.4,1.3c-0.1-8.4-0.3-16.6-0.4-24.8c-0.9-44.4-1.7-88.8-2.6-133.1
	c-0.4-20.2-0.6-40.4-1.2-60.6c-0.2-5.5,1.4-7.5,6.3-7c3.1,0.4,6.2,0,9.4-0.1c0.1-0.6,0.2-1.3,0.3-1.9c-1.1-0.5-2.2-1.3-3.4-1.4
	c-2.7-0.2-5.4,0.2-8.1-0.2c-1.1-0.1-2-1.5-3-2.4c0.9-1.2,1.6-3.1,2.7-3.4c2.2-0.6,4.7-0.7,7-0.5c3.9,0.3,4.9-1.6,4.8-5.7
	c0-17.4,0.2-34.8,0.4-52.1c0-0.9,0-1.8,0.8-2.8c0.7,17.7,1.6,35.3,2,53c0.1,5.7,1.4,7.8,6.7,7.2c3-0.4,7.8-1.3,7.9,3.4
	c0,4.9-4.9,2.9-7.8,3.5c-1.7,0.4-3.5,0.7-5.2,1c0.1,0.9,0.1,1.7,0.2,2.6c3-0.1,6.1,0,9.1-0.2c2.8-0.2,4.3,0.7,4.3,4.4
	c0.5,33.6,1.1,67.2,1.7,100.8c0.5,28.9,1.2,57.8,1.8,86.7c0.3,13,0.4,26.1,0.6,39.1c0,2.9,0.2,5.7,3.7,4.8c2.8-0.6,6.6,0.8,6.5-5.3
	c-0.9-37.6-1.4-75.2-2.4-112.8c-0.2-6.3,1.7-10.3,5.9-13.8c5.2-4.4,10.4-9,15.2-14.1c2.9-3.1,4.5-2.6,7,0.3
	c5.2,6,10.8,11.5,15.8,17.6c1.5,1.8,2,5.1,2.1,7.7c0.8,44.4,1.5,88.8,2.2,133.1c0,2,0.1,4,0.1,6.1c7.7-1.2,7.7-1.2,7.6-8.8
	c-0.9-48.9-1.7-97.8-2.7-146.7c-0.1-5.5,1.3-7.3,6.2-7c5.4,0.3,10.8,0.1,16.2-0.4c4.4-0.4,6,1.1,6,6.2c0.1,20.2,0.4,40.4,0.7,60.6
	c0.5,28.3,1.2,56.6,1.7,85c0.3,14.2,0.5,28.3,0.8,42.5c0.1,2.5-0.5,5.6,3.3,5.6c3.7,0,3.8-2.6,3.8-5.7c0.2-21.2,0.5-42.5,0.5-63.7
	c0-3.7,1.2-5.1,4.4-5.1c3.9,0.1,7.8,0.2,11.7-0.2c4.4-0.5,5.9,1.4,6,6.3c0.1,18.7,0.6,37.4,0.8,56.1c0,4.1,0.6,7.5,3.2,10.8
	c2.5,3.2,7.4,5,6.1,11.1c-0.1,0.3,2.1,1.7,3.2,1.7c8.8,0.1,16.4,3.2,23.2,9.7c5.9,5.6,13.1,9.5,18.6,15.4c4.2,4.5,6.8,10.9,10.4,17
	c1.1-2.4,2.3-4.8,3.1-6.5c-1.9-2.7-3.4-4.9-5.2-7.4c6-2.9,9.2-9.1,9.4-15.2c0.3-7.9,1.6-15.8,1.3-23.6c-0.4-8.2-2.3-16.4-3.4-24.6
	c-0.4-3.3-0.1-6.7-0.4-10c-0.6-7.2-1.4-14.3-2.1-21.5c-0.4-3.5-1.2-6.9-1.2-10.3c0-2.8,0.9-5.6,1.2-8.4c0.8-7.1,4.2-14.1-0.6-21.4
	c-2.2-3.3-1-8.3-1.2-12.5c-0.3-6.1,2.4-9.4,4.5-13.7c0.3-0.7,1.2-1.1,2.1-2c0.1,5.7,0.2,10.8,0.3,17c3.8,3.5,3.7,4.5-0.9,7.2
	c1.3,9,2.5,17.8,4,27.9c5-6.7,10.8-7,14.8-2.1c0.7,0.9,1.2,2.6,1,3.7c-0.8,3.3-1.6,6.9-3.3,9.7c-2.7,4.3,0,7.9,2.3,8
	c6.5,0.2,7.6,5.7,10,10.2c0.4,0.8,1,1.5,1.7,2.6c3.4-2.7,7-4.9,9.1,1.3c0.5,1.6,0.8,4.5,0,5.3c-7,6.9-7.4,15-5.5,24.6
	c1.7,8.5-1.2,13.1-8.5,17c-0.4,0.2-0.7,0.8-1.5,1.8c1.4,0.9,2.5,2,3.7,2.4c5,1.8,8.4,5.6,7.5,11.3c-1,6.7,3.8,10.5,6.6,12
	c5.1,2.6,3.3,4.9,3,7.4c3.7,6.4,7.5,12.6,10.9,19.2c1,1.9,0.7,4.7,1.1,7.5C918.8,1036.9,551.1,1043.3,182.5,1049.8z"/>
<linearGradient id="SVGID_6_" gradientUnits="userSpaceOnUse" x1="-3" y1="915.0428" x2="1367.5143" y2="915.0428">
	<stop  offset="0" style="stop-color:#2D3340"/>
	<stop  offset="1" style="stop-color:#091026"/>
</linearGradient>
<path class="st11" d="M1.2,747.1c44.7,11,106.9,32.9,164.8,81.4c65.6,54.9,72.6,99.5,129.3,139.8c41.4,29.4,100.5,34.6,216.9,43.8
	c326.5,25.8,354.5,27.5,410.9,10.4c84.7-25.6,157.3-70.4,181.5-85.5c51-31.9,67.2-66.6,118.9-89.7c54-24.2,106.9-24.6,143.9-20.9
	V1083H-3L1.2,747.1z"/>
</svg>
