<svg xmlns="http://www.w3.org/2000/svg" viewBox="0 0 595 128.61"><defs><style>.cls-1{fill:#2d3340;}.cls-2{fill:#d9b29c;}</style></defs><g id="Layer_2" data-name="Layer 2"><g id="Layer_1-2" data-name="Layer 1"><path class="cls-1" d="M182.66,89.68a4,4,0,0,1-1.57-3.47c0-10.58,0-21.15.09-31.73a9.82,9.82,0,0,1,.92-2.79c1.53,6.85.49,13.79.68,20.69C182.94,78.14,182.72,83.91,182.66,89.68Z"/><path class="cls-1" d="M489.93,87.58c-.38-.73-.77-1.45-1.16-2.18,1.14-3.05,2.3-6.1,3.44-9.16.35-1,.82-1.95,2-1.7s1.24,1.42,1,2.4C494.29,80.89,493.8,85.08,489.93,87.58Z"/><path class="cls-1" d="M439.28,82.91l-1.51-1.48c.89-2.32,1.75-4.65,2.68-7a1.71,1.71,0,0,1,1.92-1.24c1.3.33,1.2,1.45.91,2.42C442.47,78.35,441.78,81.13,439.28,82.91Z"/><path class="cls-1" d="M377.25,82.87c-.49-.47-1-1-1.45-1.43.84-2.11,1.63-4.24,2.55-6.31a1.55,1.55,0,0,1,2-.9c1,.38,1,1.25.72,2C380.36,78.79,379.6,81.3,377.25,82.87Z"/><path class="cls-1" d="M183,92.12c0-.72,0-1.44-.05-2.16,2.36,0,4.82-1,7,.71a.9.9,0,0,1,0,.87C187.78,93.28,185.36,92.35,183,92.12Z"/><rect class="cls-2" y="67.61" width="595" height="61"/><path class="cls-1" d="M120.23,90.82c-1.24,2.09-3.07,1.61-4.63,1.62-12.82,0-25.65,0-38.47,0a14.65,14.65,0,0,1-2-.07c-1-.13-2.2-.08-2.11-1.47.06-1,1.15-1.21,1.93-1.15,5.34.43,5.24-3.06,5.23-6.81-.06-22.11,0-44.22,0-66.33,0-8.42,0-8.42-7.12-11-.17-1.5,1-1.62,1.93-1.6,16.79.32,33.65-1.47,50.36,1.1,16.26,2.5,22.35,10.23,21.69,26.69-.4,10-5.26,16.85-14.68,20.5-7.26,2.81-14.88,3.56-22.51,4.08-3.37.23-4.79,1.4-4.74,4.8q.16,11.72,0,23.43c0,3.64,1.56,5,5.11,5.07C113.49,89.83,117,88.62,120.23,90.82Zm-15.13-61c0,5.82,0,11.63,0,17.45.05,6.27,2.72,7.86,8.5,5.18A9.35,9.35,0,0,0,119,46.3a65.54,65.54,0,0,0,.58-32c-1-4.69-4.3-7.27-9.3-7.57-3.51-.22-5.32.87-5.23,4.69C105.21,17.53,105.11,23.68,105.1,29.83Z"/><path class="cls-1" d="M247.45,30.76a72.19,72.19,0,0,1,7.94.57c18.53,3.35,23.22,15.17,23,31.82-.11,8.06-1.84,15.93-7.74,22-10.66,11-36.24,11.52-47.46,1.07-8.91-8.31-11.85-24.35-6.86-37.55,4-10.55,14.74-17.49,27.6-17.79,1.16,0,2.33,0,3.49,0ZM239,62.32c.36,7.45-1.06,15,.86,22.35.95,3.64,2.83,6.49,7.26,6,4.14-.42,5.43-3.38,5.9-6.92,1.64-12.25,1-24.56.65-36.85a44.81,44.81,0,0,0-1.13-7.88c-.63-3-2.16-5.22-5.62-5.4s-5.55,1.72-6.68,4.86A21.63,21.63,0,0,0,239,45.86Q239,54.1,239,62.32Z"/><path class="cls-1" d="M281.12,33.45a1.61,1.61,0,0,1,1.81-1.35q13-.09,25.95-.07A2.8,2.8,0,0,1,312,35.16c-.5,21.07,1.59,42.2-1.32,63.2a36.58,36.58,0,0,1-4.95,13.5,21.54,21.54,0,0,1-14.39,10.7c-7.22,1.57-14.57,2.06-21.59-.88a13.42,13.42,0,0,1-8.46-13.4c.52-5.3,3.73-8.41,8.58-9.87,7.68-2.31,14.19,3.46,13,11.38-.23,1.55-.56,3.06-2.34,3.42-2.45.52-4,1.62-3.51,4.4.39,2.15,1.89,3,3.93,3.11,2.59.19,4.81-.57,5.54-3.19a34.56,34.56,0,0,0,1.52-8.8c.16-23.09.11-46.19.2-69.28,0-3.3-1.12-5-4.62-4.87C282.66,34.62,281.51,34.72,281.12,33.45Z"/><path class="cls-1" d="M489.93,87.58c-7,6.8-22.25,8.06-30.47,2.52-4.74-3.2-6.39-7.94-6.43-13.36C453,65.93,453,55.12,453,44.31c0-7.83,0-7.83-7.38-11.65,9.41.06,7.57-6.06,7.27-10.84s1.66-6.92,6.23-7.71,9.09-2.09,13.6-3.28c2.83-.75,4.12.26,4.12,3.13,0,4.32.16,8.65,0,13-.13,3.61,1.34,5,5,5.07,3.43,0,7.12-1.07,10.95,1.42-4,2-7.66,1.1-11.17,1.15s-4.79,1.37-4.76,4.77c.09,13.47.05,26.94.08,40.41a13.13,13.13,0,0,0,.15,2c1.08,7.69,4.7,8.82,11.73,3.66C489.16,86.13,489.55,86.85,489.93,87.58Z"/><path class="cls-1" d="M377.25,82.87A34.71,34.71,0,0,1,336,90C325,84.32,319.42,71.65,321.38,57.05c2-15.22,13.69-25.62,29.19-26.14,8.82-.29,17.28.33,24.14,7,5.19,5,6.37,11.49,6.9,18.17.26,3.29-2.24,3.6-4.74,3.6-8.49,0-17,.16-25.46,0-4.1-.09-5.68,1.38-5.54,5.51a64.56,64.56,0,0,0,1.57,13.32c2.67,10.73,15.61,14.52,24,7.11,1.5-1.31,2.88-2.75,4.33-4.13C376.28,81.92,376.76,82.4,377.25,82.87Zm-18.32-34.5a36.59,36.59,0,0,0-.88-9.38c-.7-2.71-1.65-5.2-5-5.23s-5.07,2.1-6,5.05c-1.52,5-1.1,10.18-1,15.31a3.15,3.15,0,0,0,2.07,3.09c6.16,2.63,10.78-.28,10.79-6.84Z"/><path class="cls-1" d="M439.28,82.91c-7.15,9.75-17.14,11.77-28.39,10.45-13.29-1.57-21.45-9.12-24-22.3-3-15.62,1.82-29.33,13.52-35.64,11.11-6,23-6.64,34.61-1.47,7.23,3.22,10.05,11.21,7.32,18.56-1.89,5.08-7.38,7.43-13.79,5.91-4.91-1.16-7.93-5.72-7.33-11,.18-1.59.62-2.89,2.26-3.54,4.32-1.68,4.24-4.78,2.16-8-1.93-3-6.89-3-9.72-.26a14.24,14.24,0,0,0-3.7,8,113.38,113.38,0,0,0-.49,32.75c.7,5.83,3,11,8.85,12.75S431.2,88,435.24,83.84c.81-.83,1.68-1.61,2.53-2.41Z"/><path class="cls-1" d="M499.06,71.09c3.19,1.59,3.13,3.65,3.84,5.24,6.06,13.76,14.66,14.76,27.32,13,3.19-.45,5.26-2.88,5.54-6.25.25-3.06-1.5-5.08-4.16-6.16-3.07-1.25-6.25-2.25-9.4-3.3-3.63-1.21-7.39-2.09-10.88-3.6-10.18-4.37-14.05-12-12-22.94,1.71-9,9.86-15.71,19.62-16.14a29.9,29.9,0,0,1,13.2,2c3.12,1.32,6.18,2.73,9-.81,1-1.29,2.35-.68,2.4.82.17,4.81.12,9.62.05,14.43a2,2,0,0,1-1,1.57c-.89.32-1.49-.45-1.93-1.18-1.19-2-2.23-4.1-3.59-6a18.67,18.67,0,0,0-21.25-6.9c-2.67.93-4.77,2.41-4.94,5.56a5.82,5.82,0,0,0,4.19,6.13c4.69,1.66,9.53,2.93,14.29,4.4,14.59,4.49,20.27,13.15,17.44,26.62-1.76,8.38-8.16,14.4-17.3,15.6-6.3.83-12.67.75-18.58-2.18-3.25-1.62-6.18-2.19-9.05.83-1.59,1.68-2.77.79-2.79-1.27C499,84.36,499.06,78.13,499.06,71.09Z"/><path class="cls-1" d="M183,92.12c-10,.44-19.93.82-30.19-1,5.51-1,5.49-4.63,5.45-8.63q-.18-20.62,0-41.25c0-3.82-.16-7.06-5.43-7.08,3.51-2.65,18.76-3.29,28.22-1.49.18,4.24-.92,8.71,2.28,12.4-.42,2.19-.83,4.39-1.24,6.58a9.82,9.82,0,0,0-.92,2.79c-.08,10.58-.08,21.15-.09,31.73a4,4,0,0,0,1.57,3.47L183,90C183,90.68,183,91.4,183,92.12Z"/><path class="cls-1" d="M183.34,45.11c-3.2-3.69-2.1-8.16-2.28-12.4,2.13,6.17,4.62,4,8.26.93,5.16-4.31,14.22-3.78,19,.24,4.46,3.72,5.74,11,2.92,16.91-1.92,4-5.15,5.78-9.58,5.84-4.26,0-7.9-.76-10-4.93-2.35-4.57-1.54-7.51,3.05-10,1.32-.71,2.25-1.48,1.9-3s-1.68-1.89-3.07-2c-2.82-.23-4.69,1.36-6.31,3.35C185.88,41.67,184.63,43.41,183.34,45.11Z"/><path class="cls-1" d="M300.48,23.7c-8.25.05-13-4.1-13.17-11.57C287.13,5.21,292.53.1,300.13,0,308.38-.1,313,4.07,313,11.67,313,19.42,308.64,23.64,300.48,23.7Z"/></g></g></svg>