<?xml version="1.0" encoding="utf-8"?>
<!-- Generator: Adobe Illustrator 24.1.1, SVG Export Plug-In . SVG Version: 6.00 Build 0)  -->
<svg version="1.1" id="Layer_1" xmlns="http://www.w3.org/2000/svg" xmlns:xlink="http://www.w3.org/1999/xlink" x="0px" y="0px"
	 viewBox="0 0 595 128.6" style="enable-background:new 0 0 595 128.6;" xml:space="preserve">
<style type="text/css">
	.st0{fill:#D9B29C;}
	.st1{fill:#2D3340;}
	.st2{fill:#F2F2F2;}
</style>
<g id="Layer_2_1_">
	<g id="Layer_1-2">
		<path class="st0" d="M182.7,89.7c-1.1-0.8-1.7-2.1-1.6-3.5c0-10.6,0-21.2,0.1-31.7c0.2-1,0.5-1.9,0.9-2.8
			c1.5,6.8,0.5,13.8,0.7,20.7C182.9,78.1,182.7,83.9,182.7,89.7z"/>
		<path class="st1" d="M489.9,87.6c-0.4-0.7-0.8-1.4-1.2-2.2c1.1-3.1,2.3-6.1,3.4-9.2c0.4-1,0.8-1.9,2-1.7s1.2,1.4,1,2.4
			C494.3,80.9,493.8,85.1,489.9,87.6z"/>
		<path class="st1" d="M439.3,82.9l-1.5-1.5c0.9-2.3,1.8-4.7,2.7-7c0.2-0.8,1.1-1.4,1.9-1.2c1.3,0.3,1.2,1.4,0.9,2.4
			C442.5,78.3,441.8,81.1,439.3,82.9z"/>
		<path class="st1" d="M377.3,82.9c-0.5-0.5-1-1-1.5-1.4c0.8-2.1,1.6-4.2,2.5-6.3c0.3-0.8,1.2-1.2,2-0.9l0,0c1,0.4,1,1.3,0.7,2
			C380.4,78.8,379.6,81.3,377.3,82.9z"/>
		<path class="st1" d="M183,92.1c0-0.7,0-1.4-0.1-2.2c2.4,0,4.8-1,7,0.7c0.1,0.3,0.1,0.6,0,0.9C187.8,93.3,185.4,92.3,183,92.1z"/>
		<rect y="67.6" class="st2" width="595" height="61"/>
		<path class="st0" d="M120.2,90.8c-1.2,2.1-3.1,1.6-4.6,1.6c-12.8,0-25.7,0-38.5,0c-0.7,0-1.3,0-2-0.1c-1-0.1-2.2-0.1-2.1-1.5
			c0.1-1,1.2-1.2,1.9-1.2c5.3,0.4,5.2-3.1,5.2-6.8c-0.1-22.1,0-44.2,0-66.3c0-8.4,0-8.4-7.1-11C72.9,4.1,74.1,4,75,4
			c16.8,0.3,33.7-1.5,50.4,1.1c16.3,2.5,22.4,10.2,21.7,26.7c-0.4,10-5.3,16.9-14.7,20.5c-7.3,2.8-14.9,3.6-22.5,4.1
			c-3.4,0.2-4.8,1.4-4.7,4.8c0.1,7.8,0.1,15.6,0,23.4c0,3.6,1.6,5,5.1,5.1C113.5,89.8,117,88.6,120.2,90.8z M105.1,29.8
			c0,5.8,0,11.6,0,17.5c0.1,6.3,2.7,7.9,8.5,5.2c2.6-1.1,4.6-3.4,5.4-6.2c2.8-10.5,3-21.4,0.6-32c-1-4.7-4.3-7.3-9.3-7.6
			c-3.5-0.2-5.3,0.9-5.2,4.7C105.2,17.5,105.1,23.7,105.1,29.8L105.1,29.8z"/>
		<path class="st0" d="M247.4,30.8c2.7,0,5.3,0.2,7.9,0.6c18.5,3.4,23.2,15.2,23,31.8c-0.1,8.1-1.8,15.9-7.7,22
			c-10.7,11-36.2,11.5-47.5,1.1c-8.9-8.3-11.9-24.3-6.9-37.5c4-10.5,14.7-17.5,27.6-17.8c1.2,0,2.3,0,3.5,0L247.4,30.8z M239,62.3
			c0.4,7.4-1.1,15,0.9,22.3c0.9,3.6,2.8,6.5,7.3,6c4.1-0.4,5.4-3.4,5.9-6.9c1.6-12.3,1-24.6,0.6-36.8c-0.1-2.7-0.5-5.3-1.1-7.9
			c-0.6-3-2.2-5.2-5.6-5.4s-5.6,1.7-6.7,4.9c-0.8,2.4-1.3,4.9-1.2,7.4C239,51.4,239,56.8,239,62.3z"/>
		<path class="st0" d="M281.1,33.5c0.1-0.9,0.9-1.5,1.8-1.3c8.7-0.1,17.3-0.1,26-0.1c1.5-0.2,2.9,0.9,3.1,2.4c0,0.2,0,0.5,0,0.7
			c-0.5,21.1,1.6,42.2-1.3,63.2c-0.7,4.8-2.4,9.4-5,13.5c-3,5.5-8.3,9.4-14.4,10.7c-7.2,1.6-14.6,2.1-21.6-0.9
			c-5.4-2.1-8.9-7.6-8.5-13.4c0.5-5.3,3.7-8.4,8.6-9.9c7.7-2.3,14.2,3.5,13,11.4c-0.2,1.6-0.6,3.1-2.3,3.4c-2.5,0.5-4,1.6-3.5,4.4
			c0.4,2.2,1.9,3,3.9,3.1c2.6,0.2,4.8-0.6,5.5-3.2c0.9-2.9,1.4-5.8,1.5-8.8c0.2-23.1,0.1-46.2,0.2-69.3c0-3.3-1.1-5-4.6-4.9
			C282.7,34.6,281.5,34.7,281.1,33.5z"/>
		<path class="st0" d="M489.9,87.6c-7,6.8-22.3,8.1-30.5,2.5c-4.7-3.2-6.4-7.9-6.4-13.4c0-10.8,0-21.6,0-32.4c0-7.8,0-7.8-7.4-11.6
			c9.4,0.1,7.6-6.1,7.3-10.8s1.7-6.9,6.2-7.7s9.1-2.1,13.6-3.3c2.8-0.8,4.1,0.3,4.1,3.1c0,4.3,0.2,8.7,0,13c-0.1,3.6,1.3,5,5,5.1
			c3.4,0,7.1-1.1,11,1.4c-4,2-7.7,1.1-11.2,1.2s-4.8,1.4-4.8,4.8c0.1,13.5,0,26.9,0.1,40.4c0,0.7,0,1.3,0.1,2
			c1.1,7.7,4.7,8.8,11.7,3.7C489.2,86.1,489.5,86.8,489.9,87.6z"/>
		<path class="st0" d="M377.3,82.9C366.6,94.2,349.8,97.1,336,90c-11-5.7-16.6-18.3-14.6-33c2-15.2,13.7-25.6,29.2-26.1
			c8.8-0.3,17.3,0.3,24.1,7c5.2,5,6.4,11.5,6.9,18.2c0.3,3.3-2.2,3.6-4.7,3.6c-8.5,0-17,0.2-25.5,0c-4.1-0.1-5.7,1.4-5.5,5.5
			c0.1,4.5,0.6,8.9,1.6,13.3c2.7,10.7,15.6,14.5,24,7.1c1.5-1.3,2.9-2.8,4.3-4.1C376.3,81.9,376.8,82.4,377.3,82.9z M358.9,48.4
			c0.1-3.2-0.2-6.3-0.9-9.4c-0.7-2.7-1.6-5.2-5-5.2s-5.1,2.1-6,5c-1.5,5-1.1,10.2-1,15.3c-0.1,1.4,0.8,2.6,2.1,3.1
			c6.2,2.6,10.8-0.3,10.8-6.8V48.4z"/>
		<path class="st0" d="M439.3,82.9c-7.1,9.8-17.1,11.8-28.4,10.4c-13.3-1.6-21.5-9.1-24-22.3c-3-15.6,1.8-29.3,13.5-35.6
			c11.1-6,23-6.6,34.6-1.5c7.2,3.2,10,11.2,7.3,18.6c-1.9,5.1-7.4,7.4-13.8,5.9c-4.9-1.2-7.9-5.7-7.3-11c0.2-1.6,0.6-2.9,2.3-3.5
			c4.3-1.7,4.2-4.8,2.2-8c-1.9-3-6.9-3-9.7-0.3c-2,2.2-3.3,5-3.7,8c-1.7,10.8-1.9,21.9-0.5,32.8c0.7,5.8,3,11,8.9,12.8
			s10.6-1.1,14.7-5.3c0.8-0.8,1.7-1.6,2.5-2.4L439.3,82.9z"/>
		<path class="st0" d="M499.1,71.1c3.2,1.6,3.1,3.7,3.8,5.2c6.1,13.8,14.7,14.8,27.3,13c3.2-0.4,5.3-2.9,5.5-6.3
			c0.3-3.1-1.5-5.1-4.2-6.2c-3.1-1.3-6.3-2.3-9.4-3.3c-3.6-1.2-7.4-2.1-10.9-3.6c-10.2-4.4-14-12-12-22.9c1.7-9,9.9-15.7,19.6-16.1
			c4.5-0.3,9,0.3,13.2,2c3.1,1.3,6.2,2.7,9-0.8c1-1.3,2.3-0.7,2.4,0.8c0.2,4.8,0.1,9.6,0,14.4c-0.1,0.7-0.4,1.2-1,1.6
			c-0.9,0.3-1.5-0.5-1.9-1.2c-1.2-2-2.2-4.1-3.6-6c-4.8-6.8-13.4-9.6-21.3-6.9c-2.7,0.9-4.8,2.4-4.9,5.6c-0.3,2.8,1.5,5.4,4.2,6.1
			c4.7,1.7,9.5,2.9,14.3,4.4c14.6,4.5,20.3,13.1,17.4,26.6c-1.6,8.5-8,14.5-17.1,15.7c-6.3,0.8-12.7,0.8-18.6-2.2
			c-3.3-1.6-6.2-2.2-9,0.8c-1.6,1.7-2.8,0.8-2.8-1.3C499,84.4,499.1,78.1,499.1,71.1z"/>
		<path class="st0" d="M183,92.1c-10,0.4-19.9,0.8-30.2-1c5.5-1,5.5-4.6,5.4-8.6c-0.1-13.7-0.1-27.5,0-41.3c0-3.8-0.2-7.1-5.4-7.1
			c3.5-2.6,18.8-3.3,28.2-1.5c0.2,4.2-0.9,8.7,2.3,12.4c-0.4,2.2-0.8,4.4-1.2,6.6c-0.4,0.9-0.8,1.8-0.9,2.8
			c-0.1,10.6-0.1,21.2-0.1,31.7c-0.1,1.3,0.5,2.7,1.6,3.5L183,90C183,90.7,183,91.4,183,92.1z"/>
		<path class="st0" d="M183.3,45.1c-3.2-3.7-2.1-8.2-2.3-12.4c2.1,6.2,4.6,4,8.3,0.9c5.2-4.3,14.2-3.8,19,0.2
			c4.5,3.7,5.7,11,2.9,16.9c-1.9,4-5.1,5.8-9.6,5.8c-4.3,0-7.9-0.8-10-4.9c-2.4-4.6-1.5-7.5,3.1-10c1.3-0.7,2.3-1.5,1.9-3
			s-1.7-1.9-3.1-2c-2.8-0.2-4.7,1.4-6.3,3.3C185.9,41.7,184.6,43.4,183.3,45.1z"/>
		<path class="st0" d="M300.5,23.7c-8.3,0-13-4.1-13.2-11.6c-0.2-6.9,5.2-12,12.8-12.1c8.3-0.1,12.9,4.1,12.9,11.7
			C313,19.4,308.6,23.6,300.5,23.7z"/>
	</g>
</g>
</svg>
