<svg xmlns="http://www.w3.org/2000/svg" viewBox="0 0 317.8 74.18"><defs><style>.cls-1{fill:#fee5d9;}.cls-1,.cls-14,.cls-15,.cls-2,.cls-3,.cls-4,.cls-5,.cls-6,.cls-7{stroke:#231f20;stroke-miterlimit:10;stroke-width:0.55px;}.cls-2{fill:#fabaa1;}.cls-3{fill:#f6927b;}.cls-4{fill:#f26a4d;}.cls-5{fill:#de2f27;}.cls-6{fill:#a41e22;}.cls-15,.cls-7{opacity:0.54;fill:#231f20;font-family:Roboto, Arial;}.cls-7{font-size:8px;}.cls-8{letter-spacing:-0.10em;}.cls-9{letter-spacing:-0.01em;}.cls-10{letter-spacing:0em;}.cls-11{letter-spacing:0em;}.cls-12{letter-spacing:-0.01em;}.cls-13{letter-spacing:0.01em;}.cls-14{fill:#cccccb;}.cls-15{font-size:7px;}.cls-16{letter-spacing:0em;}.cls-17{letter-spacing:-0.01em;}</style></defs><g id="Layer_2" data-name="Layer 2"><g id="Layer_1-2" data-name="Layer 1"><rect class="cls-1" x="32.7" y="20.14" width="17" height="17"/><rect class="cls-2" x="74.42" y="20.14" width="17" height="17"/><rect class="cls-3" x="116.14" y="20.14" width="17" height="17"/><rect class="cls-4" x="157.86" y="20.14" width="17" height="17"/><rect class="cls-5" x="200.23" y="20.14" width="17" height="17"/><rect class="cls-6" x="241.29" y="20.14" width="17" height="17"/><text class="cls-7" transform="translate(31.29 13.42)">0 - 2.5</text><text class="cls-7" transform="translate(70.13 13.42)">2.5 - 4.0</text><text class="cls-7" transform="translate(111.85 13.42)">4.0 - 7.0</text><text class="cls-7" transform="translate(153.57 13.42)">7.0 - 9.0</text><text class="cls-7" transform="translate(193.89 14.46)">9.0 - 10.0</text><text class="cls-7" transform="translate(243.31 13.42)">10+</text><text class="cls-7" transform="translate(30.7 53.82)">*<tspan class="cls-8" x="3.32" y="0">T</tspan><tspan x="6.73" y="0">empe</tspan><tspan class="cls-9" x="25.97" y="0">r</tspan><tspan class="cls-10" x="28.54" y="0">a</tspan><tspan class="cls-11" x="32.37" y="0">tu</tspan><tspan class="cls-12" x="39.42" y="0">r</tspan><tspan x="41.96" y="0">e p</tspan><tspan class="cls-12" x="52.22" y="0">r</tspan><tspan x="54.75" y="0">oje</tspan><tspan class="cls-13" x="65.09" y="0">c</tspan><tspan x="68.78" y="0">tions in °F</tspan></text><text/><rect class="cls-14" x="279.82" y="21.07" width="17" height="17"/><text class="cls-15" transform="translate(276.86 5.98)">No d<tspan class="cls-16" x="13.88" y="0">a</tspan><tspan x="17.23" y="0">ta </tspan><tspan class="cls-17" x="-1.46" y="8.4">a</tspan><tspan class="cls-16" x="1.86" y="8.4">v</tspan><tspan x="5.2" y="8.4">ailable</tspan></text></g></g></svg>